<svg id="Layer_2" data-name="Layer 2" xmlns="http://www.w3.org/2000/svg" viewBox="0 0 1024 1280"><defs><style>.cls-1{opacity:0.2;}.cls-2{fill:none;stroke:#e8e8e8;stroke-miterlimit:10;}</style></defs><title>background</title><g class="cls-1"><rect class="cls-2" x="709.885" y="1114.835" width="37" height="37" transform="matrix(0.998, -0.058, 0.058, 0.998, -64.197, 43.929)"/><polyline class="cls-2" points="745.787 1113.799 757.016 1100.128 721.076 1102.205 708.378 1116.462"/><polyline class="cls-2" points="747.922 1150.737 759.535 1135.04 757.515 1100.099"/></g><g class="cls-1"><rect class="cls-2" x="816.885" y="485.835" width="37" height="37" transform="translate(-27.716 49.056) rotate(-3.309)"/><polyline class="cls-2" points="852.787 484.799 864.016 471.128 828.076 473.205 815.378 487.462"/><polyline class="cls-2" points="854.922 521.737 866.535 506.04 864.515 471.099"/></g><g class="cls-1"><rect class="cls-2" x="822.945" y="635.94" width="37" height="37" transform="translate(114.715 1434.302) rotate(-84.894)"/><polyline class="cls-2" points="861.518 637.66 874.628 625.78 838.771 622.576 824.123 634.821"/><polyline class="cls-2" points="858.225 674.513 872.011 660.685 875.126 625.824"/></g><g class="cls-1"><rect class="cls-2" x="103.625" y="756.865" width="37" height="37"/><polyline class="cls-2" points="140.625 756.865 152.625 743.865 116.625 743.865 103.125 757.365"/><polyline class="cls-2" points="140.625 793.865 153.125 778.865 153.125 743.865"/></g><g class="cls-1"><rect class="cls-2" x="210.625" y="610.865" width="37" height="37"/><polyline class="cls-2" points="247.625 610.865 259.625 597.865 223.625 597.865 210.125 611.365"/><polyline class="cls-2" points="247.625 647.865 260.125 632.865 260.125 597.865"/></g><g class="cls-1"><rect class="cls-2" x="106.625" y="1041.045" width="37" height="37"/><polyline class="cls-2" points="143.625 1041.045 155.625 1028.045 119.625 1028.045 106.125 1041.545"/><polyline class="cls-2" points="143.625 1078.045 156.125 1063.045 156.125 1028.045"/></g><g class="cls-1"><rect class="cls-2" x="291.888" y="917.994" width="37" height="37" transform="translate(-442.298 298.666) rotate(-31.385)"/><polyline class="cls-2" points="316.547 911.066 320.021 893.719 289.288 912.467 284.794 931.022"/><polyline class="cls-2" points="335.816 942.653 338.675 923.337 320.448 893.458"/></g><g class="cls-1"><rect class="cls-2" x="682.288" y="969.26" width="37" height="37" transform="translate(-422.012 1441.737) rotate(-76.66)"/><polyline class="cls-2" points="723.057 974.028 737.733 964.148 702.704 955.841 686.453 965.862"/><polyline class="cls-2" points="714.52 1010.03 730.144 998.319 738.219 964.263"/></g><g class="cls-1"><rect class="cls-2" x="370.914" y="1068.949" width="37" height="37" transform="translate(-604.878 499.596) rotate(-39.705)"/><polyline class="cls-2" points="415.466 1089.863 433.133 1090.79 410.135 1063.094 391.125 1061.332"/><polyline class="cls-2" points="387 1113.5 406.526 1113.534 433.453 1091.175"/></g><g class="cls-1"><rect class="cls-2" x="459.469" y="709.097" width="37" height="37" transform="translate(-276.638 293.524) rotate(-26.79)"/><polyline class="cls-2" points="486.145 702.744 490.998 685.731 458.862 701.956 452.895 720.092"/><polyline class="cls-2" points="502.821 735.773 507.219 716.749 491.444 685.505"/></g><g class="cls-1"><rect class="cls-2" x="626.915" y="947.406" width="37" height="37" transform="translate(-490.833 1207.721) rotate(-68.264)"/><polyline class="cls-2" points="669.45 955.572 685.411 947.941 651.971 934.609 634.432 942.149"/><polyline class="cls-2" points="655.748 989.942 672.914 980.637 685.876 948.126"/></g><g class="cls-1"><rect class="cls-2" x="865.329" y="1031.296" width="37" height="37" transform="translate(-425.747 639.63) rotate(-32.515)"/><polyline class="cls-2" points="889.486 1024.252 892.617 1006.839 862.26 1026.19 858.132 1044.83"/><polyline class="cls-2" points="909.374 1055.452 911.852 1036.084 893.038 1006.571"/></g><g class="cls-1"><rect class="cls-2" x="620.895" y="674.09" width="37" height="37"/><polyline class="cls-2" points="657.895 674.09 669.895 661.09 633.895 661.09 620.395 674.59"/><polyline class="cls-2" points="657.895 711.09 670.395 696.09 670.395 661.09"/></g><g class="cls-1"><rect class="cls-2" x="100.895" y="1100.09" width="37" height="37"/><polyline class="cls-2" points="137.895 1100.09 149.895 1087.09 113.895 1087.09 100.395 1100.59"/><polyline class="cls-2" points="137.895 1137.09 150.395 1122.09 150.395 1087.09"/></g><g class="cls-1"><rect class="cls-2" x="57.315" y="65.615" width="37" height="37"/><polyline class="cls-2" points="94.315 65.615 106.315 52.615 70.315 52.615 56.815 66.115"/><polyline class="cls-2" points="94.315 102.615 106.815 87.615 106.815 52.615"/></g><g class="cls-1"><rect class="cls-2" x="235.315" y="444.795" width="37" height="37"/><polyline class="cls-2" points="272.315 444.795 284.315 431.795 248.315 431.795 234.815 445.295"/><polyline class="cls-2" points="272.315 481.795 284.815 466.795 284.815 431.795"/></g><g class="cls-1"><rect class="cls-2" x="420.578" y="321.744" width="37" height="37" transform="translate(-112.951 278.447) rotate(-31.385)"/><polyline class="cls-2" points="445.237 314.816 448.711 297.469 417.978 316.217 413.484 334.772"/><polyline class="cls-2" points="464.506 346.403 467.365 327.087 449.138 297.208"/></g><g class="cls-1"><rect class="cls-2" x="182.578" y="172.744" width="37" height="37" transform="translate(-70.177 132.7) rotate(-31.385)"/><polyline class="cls-2" points="207.237 165.816 210.711 148.469 179.978 167.217 175.484 185.772"/><polyline class="cls-2" points="226.506 197.403 229.365 178.087 211.138 148.208"/></g><g class="cls-1"><rect class="cls-2" x="522.604" y="137.699" width="37" height="37" transform="translate(25.023 381.703) rotate(-39.705)"/><polyline class="cls-2" points="567.156 158.613 584.823 159.54 561.825 131.844 542.815 130.082"/><polyline class="cls-2" points="538.69 182.25 558.215 182.284 585.142 159.925"/></g><g class="cls-1"><rect class="cls-2" x="635.159" y="271.847" width="37" height="37" transform="translate(-60.705 325.779) rotate(-26.79)"/><polyline class="cls-2" points="661.835 265.494 666.687 248.481 634.551 264.706 628.585 282.842"/><polyline class="cls-2" points="678.511 298.523 682.909 279.499 667.134 248.255"/></g><g class="cls-1"><rect class="cls-2" x="872.159" y="272.847" width="37" height="37" transform="translate(-35.718 432.706) rotate(-26.79)"/><polyline class="cls-2" points="898.835 266.494 903.687 249.481 871.551 265.706 865.585 283.842"/><polyline class="cls-2" points="915.511 299.523 919.909 280.499 904.134 249.255"/></g><g class="cls-1"><rect class="cls-2" x="848.604" y="115.156" width="37" height="37" transform="translate(421.833 889.61) rotate(-68.264)"/><polyline class="cls-2" points="891.14 123.322 907.101 115.691 873.661 102.359 856.121 109.899"/><polyline class="cls-2" points="877.438 157.692 894.604 148.387 907.566 115.876"/></g><g class="cls-1"><rect class="cls-2" x="878.604" y="73.156" width="37" height="37" transform="translate(479.736 891.031) rotate(-68.264)"/><polyline class="cls-2" points="921.14 81.322 937.101 73.691 903.661 60.359 886.121 67.899"/><polyline class="cls-2" points="907.438 115.692 924.604 106.387 937.566 73.876"/></g><g class="cls-1"><rect class="cls-2" x="893.604" y="133.156" width="37" height="37" transform="translate(433.447 942.744) rotate(-68.264)"/><polyline class="cls-2" points="936.14 141.322 952.101 133.691 918.661 120.359 901.121 127.899"/><polyline class="cls-2" points="922.438 175.692 939.604 166.387 952.566 133.876"/></g><g class="cls-1"><rect class="cls-2" x="512.585" y="516.84" width="37" height="37"/><polyline class="cls-2" points="549.585 516.84 561.585 503.84 525.585 503.84 512.085 517.34"/><polyline class="cls-2" points="549.585 553.84 562.085 538.84 562.085 503.84"/></g><g class="cls-1"><rect class="cls-2" x="512.585" y="458.84" width="37" height="37"/><polyline class="cls-2" points="549.585 458.84 561.585 445.84 525.585 445.84 512.085 459.34"/><polyline class="cls-2" points="549.585 495.84 562.085 480.84 562.085 445.84"/></g></svg>