<svg id="Layer_1" data-name="Layer 1" xmlns="http://www.w3.org/2000/svg" viewBox="0 0 1280 1024"><defs><style>.cls-1{fill:#1e2d3a;}.cls-2{fill:#efefef;}</style></defs><title>blocks</title><rect class="cls-1" x="265.182" y="819.093" width="61.57" height="61.57"/><path class="cls-2" d="M326.752,879.537h-61.57l1.125,1.125V819.093l-1.125,1.125h61.57l-1.125-1.125v61.569a1.126,1.126,0,0,0,2.25,0V819.093a1.141,1.141,0,0,0-1.125-1.125h-61.57a1.141,1.141,0,0,0-1.125,1.125v61.569a1.14,1.14,0,0,0,1.125,1.125h61.57A1.126,1.126,0,0,0,326.752,879.537Z"/><rect class="cls-1" x="326.909" y="819.093" width="61.57" height="61.57"/><path class="cls-2" d="M388.479,879.537h-61.57l1.125,1.125V819.093l-1.125,1.125h61.57l-1.125-1.125v61.569a1.126,1.126,0,0,0,2.25,0V819.093a1.14,1.14,0,0,0-1.125-1.125h-61.57a1.141,1.141,0,0,0-1.125,1.125v61.569a1.141,1.141,0,0,0,1.125,1.125h61.57A1.126,1.126,0,0,0,388.479,879.537Z"/><rect class="cls-1" x="388.637" y="819.093" width="61.57" height="61.57"/><path class="cls-2" d="M450.206,879.537H388.637l1.125,1.125V819.093l-1.125,1.125h61.569l-1.125-1.125v61.569a1.126,1.126,0,0,0,2.25,0V819.093a1.14,1.14,0,0,0-1.125-1.125H388.637a1.14,1.14,0,0,0-1.125,1.125v61.569a1.14,1.14,0,0,0,1.125,1.125h61.569A1.126,1.126,0,0,0,450.206,879.537Z"/><rect class="cls-1" x="450.364" y="819.093" width="61.57" height="61.57"/><path class="cls-2" d="M511.934,879.537h-61.57l1.125,1.125V819.093l-1.125,1.125h61.57l-1.125-1.125v61.569a1.126,1.126,0,0,0,2.25,0V819.093a1.141,1.141,0,0,0-1.125-1.125h-61.57a1.141,1.141,0,0,0-1.125,1.125v61.569a1.14,1.14,0,0,0,1.125,1.125h61.57A1.126,1.126,0,0,0,511.934,879.537Z"/><rect class="cls-1" x="512.091" y="819.093" width="61.57" height="61.57"/><path class="cls-2" d="M573.661,879.537h-61.57l1.125,1.125V819.093l-1.125,1.125h61.57l-1.125-1.125v61.569a1.126,1.126,0,0,0,2.25,0V819.093a1.141,1.141,0,0,0-1.125-1.125h-61.57a1.141,1.141,0,0,0-1.125,1.125v61.569a1.141,1.141,0,0,0,1.125,1.125h61.57A1.126,1.126,0,0,0,573.661,879.537Z"/><rect class="cls-1" x="573.818" y="819.093" width="61.57" height="61.57"/><path class="cls-2" d="M635.388,879.537h-61.57l1.125,1.125V819.093l-1.125,1.125h61.57l-1.125-1.125v61.569a1.126,1.126,0,0,0,2.25,0V819.093a1.14,1.14,0,0,0-1.125-1.125h-61.57a1.141,1.141,0,0,0-1.125,1.125v61.569a1.141,1.141,0,0,0,1.125,1.125h61.57A1.126,1.126,0,0,0,635.388,879.537Z"/><rect class="cls-1" x="635.546" y="819.093" width="61.57" height="61.57"/><path class="cls-2" d="M697.116,879.537h-61.57l1.125,1.125V819.093l-1.125,1.125h61.57l-1.125-1.125v61.569a1.126,1.126,0,0,0,2.25,0V819.093a1.141,1.141,0,0,0-1.125-1.125h-61.57a1.141,1.141,0,0,0-1.125,1.125v61.569a1.14,1.14,0,0,0,1.125,1.125h61.57A1.126,1.126,0,0,0,697.116,879.537Z"/><rect class="cls-1" x="697.273" y="819.093" width="61.57" height="61.57"/><path class="cls-2" d="M758.843,879.537h-61.57l1.125,1.125V819.093l-1.125,1.125h61.57l-1.125-1.125v61.569a1.126,1.126,0,0,0,2.25,0V819.093a1.141,1.141,0,0,0-1.125-1.125h-61.57a1.141,1.141,0,0,0-1.125,1.125v61.569a1.14,1.14,0,0,0,1.125,1.125h61.57A1.126,1.126,0,0,0,758.843,879.537Z"/><rect class="cls-1" x="759" y="819.093" width="61.57" height="61.57"/><path class="cls-2" d="M820.57,879.537H759l1.125,1.125V819.093L759,820.218h61.57l-1.125-1.125v61.569a1.126,1.126,0,0,0,2.25,0V819.093a1.14,1.14,0,0,0-1.125-1.125H759a1.141,1.141,0,0,0-1.125,1.125v61.569A1.141,1.141,0,0,0,759,881.787h61.57A1.126,1.126,0,0,0,820.57,879.537Z"/><rect class="cls-1" x="820.728" y="819.093" width="61.57" height="61.57"/><path class="cls-2" d="M882.3,879.537H820.728l1.125,1.125V819.093l-1.125,1.125H882.3l-1.125-1.125v61.569a1.126,1.126,0,0,0,2.25,0V819.093a1.14,1.14,0,0,0-1.125-1.125H820.728a1.141,1.141,0,0,0-1.125,1.125v61.569a1.14,1.14,0,0,0,1.125,1.125H882.3A1.126,1.126,0,0,0,882.3,879.537Z"/><rect class="cls-1" x="882.455" y="819.093" width="61.57" height="61.57"/><path class="cls-2" d="M944.025,879.537h-61.57l1.125,1.125V819.093l-1.125,1.125h61.57l-1.125-1.125v61.569a1.126,1.126,0,0,0,2.25,0V819.093a1.141,1.141,0,0,0-1.125-1.125h-61.57a1.141,1.141,0,0,0-1.125,1.125v61.569a1.14,1.14,0,0,0,1.125,1.125h61.57A1.126,1.126,0,0,0,944.025,879.537Z"/><rect class="cls-1" x="944.182" y="819.093" width="61.57" height="61.57"/><path class="cls-2" d="M1005.752,879.537h-61.57l1.125,1.125V819.093l-1.125,1.125h61.57l-1.125-1.125v61.569a1.126,1.126,0,0,0,2.25,0V819.093a1.14,1.14,0,0,0-1.125-1.125h-61.57a1.141,1.141,0,0,0-1.125,1.125v61.569a1.141,1.141,0,0,0,1.125,1.125h61.57A1.126,1.126,0,0,0,1005.752,879.537Z"/><rect class="cls-1" x="1005.91" y="819.093" width="61.57" height="61.57"/><path class="cls-2" d="M1067.479,879.537H1005.91l1.125,1.125V819.093l-1.125,1.125h61.569l-1.125-1.125v61.569a1.126,1.126,0,0,0,2.25,0V819.093a1.14,1.14,0,0,0-1.125-1.125H1005.91a1.14,1.14,0,0,0-1.125,1.125v61.569a1.14,1.14,0,0,0,1.125,1.125h61.569A1.126,1.126,0,0,0,1067.479,879.537Z"/><rect class="cls-1" x="1067.637" y="819.093" width="61.57" height="61.57"/><path class="cls-2" d="M1129.207,879.537h-61.57l1.125,1.125V819.093l-1.125,1.125h61.57l-1.125-1.125v61.569a1.126,1.126,0,0,0,2.25,0V819.093a1.141,1.141,0,0,0-1.125-1.125h-61.57a1.141,1.141,0,0,0-1.125,1.125v61.569a1.14,1.14,0,0,0,1.125,1.125h61.57A1.126,1.126,0,0,0,1129.207,879.537Z"/><rect class="cls-1" x="265.182" y="759.129" width="61.57" height="61.57"/><path class="cls-2" d="M326.752,819.574h-61.57l1.125,1.125v-61.57l-1.125,1.125h61.57l-1.125-1.125V820.7a1.126,1.126,0,0,0,2.25,0v-61.57A1.142,1.142,0,0,0,326.752,758h-61.57a1.141,1.141,0,0,0-1.125,1.125V820.7a1.141,1.141,0,0,0,1.125,1.125h61.57A1.126,1.126,0,0,0,326.752,819.574Z"/><rect class="cls-1" x="326.909" y="759.129" width="61.57" height="61.57"/><path class="cls-2" d="M388.479,819.574h-61.57l1.125,1.125v-61.57l-1.125,1.125h61.57l-1.125-1.125V820.7a1.126,1.126,0,0,0,2.25,0v-61.57A1.141,1.141,0,0,0,388.479,758h-61.57a1.141,1.141,0,0,0-1.125,1.125V820.7a1.142,1.142,0,0,0,1.125,1.125h61.57A1.126,1.126,0,0,0,388.479,819.574Z"/><rect class="cls-1" x="388.637" y="759.129" width="61.57" height="61.57"/><path class="cls-2" d="M450.206,819.574H388.637l1.125,1.125v-61.57l-1.125,1.125h61.569l-1.125-1.125V820.7a1.126,1.126,0,0,0,2.25,0v-61.57A1.141,1.141,0,0,0,450.206,758H388.637a1.14,1.14,0,0,0-1.125,1.125V820.7a1.141,1.141,0,0,0,1.125,1.125h61.569A1.126,1.126,0,0,0,450.206,819.574Z"/><rect class="cls-1" x="450.364" y="759.129" width="61.57" height="61.57"/><path class="cls-2" d="M511.934,819.574h-61.57l1.125,1.125v-61.57l-1.125,1.125h61.57l-1.125-1.125V820.7a1.126,1.126,0,0,0,2.25,0v-61.57A1.142,1.142,0,0,0,511.934,758h-61.57a1.141,1.141,0,0,0-1.125,1.125V820.7a1.141,1.141,0,0,0,1.125,1.125h61.57A1.126,1.126,0,0,0,511.934,819.574Z"/><rect class="cls-1" x="512.091" y="759.129" width="61.57" height="61.57"/><path class="cls-2" d="M573.661,819.574h-61.57l1.125,1.125v-61.57l-1.125,1.125h61.57l-1.125-1.125V820.7a1.126,1.126,0,0,0,2.25,0v-61.57A1.142,1.142,0,0,0,573.661,758h-61.57a1.141,1.141,0,0,0-1.125,1.125V820.7a1.142,1.142,0,0,0,1.125,1.125h61.57A1.126,1.126,0,0,0,573.661,819.574Z"/><rect class="cls-1" x="573.818" y="759.129" width="61.57" height="61.57"/><path class="cls-2" d="M635.388,819.574h-61.57l1.125,1.125v-61.57l-1.125,1.125h61.57l-1.125-1.125V820.7a1.126,1.126,0,0,0,2.25,0v-61.57A1.141,1.141,0,0,0,635.388,758h-61.57a1.141,1.141,0,0,0-1.125,1.125V820.7a1.142,1.142,0,0,0,1.125,1.125h61.57A1.126,1.126,0,0,0,635.388,819.574Z"/><rect class="cls-1" x="635.546" y="759.129" width="61.57" height="61.57"/><path class="cls-2" d="M697.116,819.574h-61.57l1.125,1.125v-61.57l-1.125,1.125h61.57l-1.125-1.125V820.7a1.126,1.126,0,0,0,2.25,0v-61.57A1.142,1.142,0,0,0,697.116,758h-61.57a1.141,1.141,0,0,0-1.125,1.125V820.7a1.141,1.141,0,0,0,1.125,1.125h61.57A1.126,1.126,0,0,0,697.116,819.574Z"/><rect class="cls-1" x="697.273" y="759.129" width="61.57" height="61.57"/><path class="cls-2" d="M758.843,819.574h-61.57L698.4,820.7v-61.57l-1.125,1.125h61.57l-1.125-1.125V820.7a1.126,1.126,0,0,0,2.25,0v-61.57A1.142,1.142,0,0,0,758.843,758h-61.57a1.141,1.141,0,0,0-1.125,1.125V820.7a1.141,1.141,0,0,0,1.125,1.125h61.57A1.126,1.126,0,0,0,758.843,819.574Z"/><rect class="cls-1" x="759" y="759.129" width="61.57" height="61.57"/><path class="cls-2" d="M820.57,819.574H759l1.125,1.125v-61.57L759,760.254h61.57l-1.125-1.125V820.7a1.126,1.126,0,0,0,2.25,0v-61.57A1.141,1.141,0,0,0,820.57,758H759a1.141,1.141,0,0,0-1.125,1.125V820.7A1.142,1.142,0,0,0,759,821.824h61.57A1.126,1.126,0,0,0,820.57,819.574Z"/><rect class="cls-1" x="820.728" y="759.129" width="61.57" height="61.57"/><path class="cls-2" d="M882.3,819.574H820.728l1.125,1.125v-61.57l-1.125,1.125H882.3l-1.125-1.125V820.7a1.126,1.126,0,0,0,2.25,0v-61.57A1.141,1.141,0,0,0,882.3,758H820.728a1.141,1.141,0,0,0-1.125,1.125V820.7a1.141,1.141,0,0,0,1.125,1.125H882.3A1.126,1.126,0,0,0,882.3,819.574Z"/><rect class="cls-1" x="882.455" y="759.129" width="61.57" height="61.57"/><path class="cls-2" d="M944.025,819.574h-61.57l1.125,1.125v-61.57l-1.125,1.125h61.57l-1.125-1.125V820.7a1.126,1.126,0,0,0,2.25,0v-61.57A1.142,1.142,0,0,0,944.025,758h-61.57a1.141,1.141,0,0,0-1.125,1.125V820.7a1.141,1.141,0,0,0,1.125,1.125h61.57A1.126,1.126,0,0,0,944.025,819.574Z"/><rect class="cls-1" x="944.182" y="759.129" width="61.57" height="61.57"/><path class="cls-2" d="M1005.752,819.574h-61.57l1.125,1.125v-61.57l-1.125,1.125h61.57l-1.125-1.125V820.7a1.126,1.126,0,0,0,2.25,0v-61.57a1.141,1.141,0,0,0-1.125-1.125h-61.57a1.141,1.141,0,0,0-1.125,1.125V820.7a1.142,1.142,0,0,0,1.125,1.125h61.57A1.126,1.126,0,0,0,1005.752,819.574Z"/><rect class="cls-1" x="1005.91" y="759.129" width="61.57" height="61.57"/><path class="cls-2" d="M1067.479,819.574H1005.91l1.125,1.125v-61.57l-1.125,1.125h61.569l-1.125-1.125V820.7a1.126,1.126,0,0,0,2.25,0v-61.57a1.141,1.141,0,0,0-1.125-1.125H1005.91a1.14,1.14,0,0,0-1.125,1.125V820.7a1.141,1.141,0,0,0,1.125,1.125h61.569A1.126,1.126,0,0,0,1067.479,819.574Z"/><rect class="cls-1" x="1067.637" y="759.129" width="61.57" height="61.57"/><path class="cls-2" d="M1129.207,819.574h-61.57l1.125,1.125v-61.57l-1.125,1.125h61.57l-1.125-1.125V820.7a1.126,1.126,0,0,0,2.25,0v-61.57a1.142,1.142,0,0,0-1.125-1.125h-61.57a1.141,1.141,0,0,0-1.125,1.125V820.7a1.141,1.141,0,0,0,1.125,1.125h61.57A1.126,1.126,0,0,0,1129.207,819.574Z"/><rect class="cls-1" x="265.182" y="699.165" width="61.57" height="61.57"/><path class="cls-2" d="M326.752,759.61h-61.57l1.125,1.125v-61.57l-1.125,1.125h61.57l-1.125-1.125v61.57a1.126,1.126,0,0,0,2.25,0v-61.57a1.142,1.142,0,0,0-1.125-1.125h-61.57a1.142,1.142,0,0,0-1.125,1.125v61.57a1.141,1.141,0,0,0,1.125,1.125h61.57A1.126,1.126,0,0,0,326.752,759.61Z"/><rect class="cls-1" x="326.909" y="699.165" width="61.57" height="61.57"/><path class="cls-2" d="M388.479,759.61h-61.57l1.125,1.125v-61.57l-1.125,1.125h61.57l-1.125-1.125v61.57a1.126,1.126,0,0,0,2.25,0v-61.57a1.141,1.141,0,0,0-1.125-1.125h-61.57a1.142,1.142,0,0,0-1.125,1.125v61.57a1.142,1.142,0,0,0,1.125,1.125h61.57A1.126,1.126,0,0,0,388.479,759.61Z"/><rect class="cls-1" x="388.637" y="699.165" width="61.57" height="61.57"/><path class="cls-2" d="M450.206,759.61H388.637l1.125,1.125v-61.57l-1.125,1.125h61.569l-1.125-1.125v61.57a1.126,1.126,0,0,0,2.25,0v-61.57a1.141,1.141,0,0,0-1.125-1.125H388.637a1.141,1.141,0,0,0-1.125,1.125v61.57a1.141,1.141,0,0,0,1.125,1.125h61.569A1.126,1.126,0,0,0,450.206,759.61Z"/><rect class="cls-1" x="450.364" y="699.165" width="61.57" height="61.57"/><path class="cls-2" d="M511.934,759.61h-61.57l1.125,1.125v-61.57l-1.125,1.125h61.57l-1.125-1.125v61.57a1.126,1.126,0,0,0,2.25,0v-61.57a1.142,1.142,0,0,0-1.125-1.125h-61.57a1.142,1.142,0,0,0-1.125,1.125v61.57a1.141,1.141,0,0,0,1.125,1.125h61.57A1.126,1.126,0,0,0,511.934,759.61Z"/><rect class="cls-1" x="512.091" y="699.165" width="61.57" height="61.57"/><path class="cls-2" d="M573.661,759.61h-61.57l1.125,1.125v-61.57l-1.125,1.125h61.57l-1.125-1.125v61.57a1.126,1.126,0,0,0,2.25,0v-61.57a1.142,1.142,0,0,0-1.125-1.125h-61.57a1.142,1.142,0,0,0-1.125,1.125v61.57a1.142,1.142,0,0,0,1.125,1.125h61.57A1.126,1.126,0,0,0,573.661,759.61Z"/><rect class="cls-1" x="573.818" y="699.165" width="61.57" height="61.57"/><path class="cls-2" d="M635.388,759.61h-61.57l1.125,1.125v-61.57l-1.125,1.125h61.57l-1.125-1.125v61.57a1.126,1.126,0,0,0,2.25,0v-61.57a1.141,1.141,0,0,0-1.125-1.125h-61.57a1.142,1.142,0,0,0-1.125,1.125v61.57a1.142,1.142,0,0,0,1.125,1.125h61.57A1.126,1.126,0,0,0,635.388,759.61Z"/><rect class="cls-1" x="635.546" y="699.165" width="61.57" height="61.57"/><path class="cls-2" d="M697.116,759.61h-61.57l1.125,1.125v-61.57l-1.125,1.125h61.57l-1.125-1.125v61.57a1.126,1.126,0,0,0,2.25,0v-61.57a1.142,1.142,0,0,0-1.125-1.125h-61.57a1.142,1.142,0,0,0-1.125,1.125v61.57a1.141,1.141,0,0,0,1.125,1.125h61.57A1.126,1.126,0,0,0,697.116,759.61Z"/><rect class="cls-1" x="697.273" y="699.165" width="61.57" height="61.57"/><path class="cls-2" d="M758.843,759.61h-61.57l1.125,1.125v-61.57l-1.125,1.125h61.57l-1.125-1.125v61.57a1.126,1.126,0,0,0,2.25,0v-61.57a1.142,1.142,0,0,0-1.125-1.125h-61.57a1.142,1.142,0,0,0-1.125,1.125v61.57a1.141,1.141,0,0,0,1.125,1.125h61.57A1.126,1.126,0,0,0,758.843,759.61Z"/><rect class="cls-1" x="759" y="699.165" width="61.57" height="61.57"/><path class="cls-2" d="M820.57,759.61H759l1.125,1.125v-61.57L759,700.29h61.57l-1.125-1.125v61.57a1.126,1.126,0,0,0,2.25,0v-61.57a1.141,1.141,0,0,0-1.125-1.125H759a1.142,1.142,0,0,0-1.125,1.125v61.57A1.142,1.142,0,0,0,759,761.86h61.57A1.126,1.126,0,0,0,820.57,759.61Z"/><rect class="cls-1" x="820.728" y="699.165" width="61.57" height="61.57"/><path class="cls-2" d="M882.3,759.61H820.728l1.125,1.125v-61.57l-1.125,1.125H882.3l-1.125-1.125v61.57a1.126,1.126,0,0,0,2.25,0v-61.57a1.141,1.141,0,0,0-1.125-1.125H820.728a1.142,1.142,0,0,0-1.125,1.125v61.57a1.141,1.141,0,0,0,1.125,1.125H882.3A1.126,1.126,0,0,0,882.3,759.61Z"/><rect class="cls-1" x="882.455" y="699.165" width="61.57" height="61.57"/><path class="cls-2" d="M944.025,759.61h-61.57l1.125,1.125v-61.57l-1.125,1.125h61.57l-1.125-1.125v61.57a1.126,1.126,0,0,0,2.25,0v-61.57a1.142,1.142,0,0,0-1.125-1.125h-61.57a1.142,1.142,0,0,0-1.125,1.125v61.57a1.141,1.141,0,0,0,1.125,1.125h61.57A1.126,1.126,0,0,0,944.025,759.61Z"/><rect class="cls-1" x="944.182" y="699.165" width="61.57" height="61.57"/><path class="cls-2" d="M1005.752,759.61h-61.57l1.125,1.125v-61.57l-1.125,1.125h61.57l-1.125-1.125v61.57a1.126,1.126,0,0,0,2.25,0v-61.57a1.141,1.141,0,0,0-1.125-1.125h-61.57a1.142,1.142,0,0,0-1.125,1.125v61.57a1.142,1.142,0,0,0,1.125,1.125h61.57A1.126,1.126,0,0,0,1005.752,759.61Z"/><rect class="cls-1" x="1005.91" y="699.165" width="61.57" height="61.57"/><path class="cls-2" d="M1067.479,759.61H1005.91l1.125,1.125v-61.57l-1.125,1.125h61.569l-1.125-1.125v61.57a1.126,1.126,0,0,0,2.25,0v-61.57a1.141,1.141,0,0,0-1.125-1.125H1005.91a1.141,1.141,0,0,0-1.125,1.125v61.57a1.141,1.141,0,0,0,1.125,1.125h61.569A1.126,1.126,0,0,0,1067.479,759.61Z"/><rect class="cls-1" x="1067.637" y="699.165" width="61.57" height="61.57"/><path class="cls-2" d="M1129.207,759.61h-61.57l1.125,1.125v-61.57l-1.125,1.125h61.57l-1.125-1.125v61.57a1.126,1.126,0,0,0,2.25,0v-61.57a1.142,1.142,0,0,0-1.125-1.125h-61.57a1.142,1.142,0,0,0-1.125,1.125v61.57a1.141,1.141,0,0,0,1.125,1.125h61.57A1.126,1.126,0,0,0,1129.207,759.61Z"/><rect class="cls-1" x="265.182" y="639.202" width="61.57" height="61.57"/><path class="cls-2" d="M326.752,699.646h-61.57l1.125,1.125V639.2l-1.125,1.125h61.57l-1.125-1.125v61.569a1.126,1.126,0,0,0,2.25,0V639.2a1.141,1.141,0,0,0-1.125-1.125h-61.57a1.141,1.141,0,0,0-1.125,1.125v61.569a1.14,1.14,0,0,0,1.125,1.125h61.57A1.126,1.126,0,0,0,326.752,699.646Z"/><rect class="cls-1" x="326.909" y="639.202" width="61.57" height="61.57"/><path class="cls-2" d="M388.479,699.646h-61.57l1.125,1.125V639.2l-1.125,1.125h61.57l-1.125-1.125v61.569a1.126,1.126,0,0,0,2.25,0V639.2a1.14,1.14,0,0,0-1.125-1.125h-61.57a1.141,1.141,0,0,0-1.125,1.125v61.569a1.141,1.141,0,0,0,1.125,1.125h61.57A1.126,1.126,0,0,0,388.479,699.646Z"/><rect class="cls-1" x="388.637" y="639.202" width="61.57" height="61.57"/><path class="cls-2" d="M450.206,699.646H388.637l1.125,1.125V639.2l-1.125,1.125h61.569l-1.125-1.125v61.569a1.126,1.126,0,0,0,2.25,0V639.2a1.14,1.14,0,0,0-1.125-1.125H388.637a1.14,1.14,0,0,0-1.125,1.125v61.569a1.14,1.14,0,0,0,1.125,1.125h61.569A1.126,1.126,0,0,0,450.206,699.646Z"/><rect class="cls-1" x="450.364" y="639.202" width="61.57" height="61.57"/><path class="cls-2" d="M511.934,699.646h-61.57l1.125,1.125V639.2l-1.125,1.125h61.57l-1.125-1.125v61.569a1.126,1.126,0,0,0,2.25,0V639.2a1.141,1.141,0,0,0-1.125-1.125h-61.57a1.141,1.141,0,0,0-1.125,1.125v61.569a1.14,1.14,0,0,0,1.125,1.125h61.57A1.126,1.126,0,0,0,511.934,699.646Z"/><rect class="cls-1" x="512.091" y="639.202" width="61.57" height="61.57"/><path class="cls-2" d="M573.661,699.646h-61.57l1.125,1.125V639.2l-1.125,1.125h61.57l-1.125-1.125v61.569a1.126,1.126,0,0,0,2.25,0V639.2a1.141,1.141,0,0,0-1.125-1.125h-61.57a1.141,1.141,0,0,0-1.125,1.125v61.569a1.141,1.141,0,0,0,1.125,1.125h61.57A1.126,1.126,0,0,0,573.661,699.646Z"/><rect class="cls-1" x="573.818" y="639.202" width="61.57" height="61.57"/><path class="cls-2" d="M635.388,699.646h-61.57l1.125,1.125V639.2l-1.125,1.125h61.57l-1.125-1.125v61.569a1.126,1.126,0,0,0,2.25,0V639.2a1.14,1.14,0,0,0-1.125-1.125h-61.57a1.141,1.141,0,0,0-1.125,1.125v61.569a1.141,1.141,0,0,0,1.125,1.125h61.57A1.126,1.126,0,0,0,635.388,699.646Z"/><rect class="cls-1" x="635.546" y="639.202" width="61.57" height="61.57"/><path class="cls-2" d="M697.116,699.646h-61.57l1.125,1.125V639.2l-1.125,1.125h61.57l-1.125-1.125v61.569a1.126,1.126,0,0,0,2.25,0V639.2a1.141,1.141,0,0,0-1.125-1.125h-61.57a1.141,1.141,0,0,0-1.125,1.125v61.569a1.14,1.14,0,0,0,1.125,1.125h61.57A1.126,1.126,0,0,0,697.116,699.646Z"/><rect class="cls-1" x="697.273" y="639.202" width="61.57" height="61.57"/><path class="cls-2" d="M758.843,699.646h-61.57l1.125,1.125V639.2l-1.125,1.125h61.57l-1.125-1.125v61.569a1.126,1.126,0,0,0,2.25,0V639.2a1.141,1.141,0,0,0-1.125-1.125h-61.57a1.141,1.141,0,0,0-1.125,1.125v61.569a1.14,1.14,0,0,0,1.125,1.125h61.57A1.126,1.126,0,0,0,758.843,699.646Z"/><rect class="cls-1" x="759" y="639.202" width="61.57" height="61.57"/><path class="cls-2" d="M820.57,699.646H759l1.125,1.125V639.2L759,640.327h61.57l-1.125-1.125v61.569a1.126,1.126,0,0,0,2.25,0V639.2a1.14,1.14,0,0,0-1.125-1.125H759a1.141,1.141,0,0,0-1.125,1.125v61.569A1.141,1.141,0,0,0,759,701.9h61.57A1.126,1.126,0,0,0,820.57,699.646Z"/><rect class="cls-1" x="820.728" y="639.202" width="61.57" height="61.57"/><path class="cls-2" d="M882.3,699.646H820.728l1.125,1.125V639.2l-1.125,1.125H882.3l-1.125-1.125v61.569a1.126,1.126,0,0,0,2.25,0V639.2a1.14,1.14,0,0,0-1.125-1.125H820.728A1.141,1.141,0,0,0,819.6,639.2v61.569a1.14,1.14,0,0,0,1.125,1.125H882.3A1.126,1.126,0,0,0,882.3,699.646Z"/><rect class="cls-1" x="882.455" y="639.202" width="61.57" height="61.57"/><path class="cls-2" d="M944.025,699.646h-61.57l1.125,1.125V639.2l-1.125,1.125h61.57L942.9,639.2v61.569a1.126,1.126,0,0,0,2.25,0V639.2a1.141,1.141,0,0,0-1.125-1.125h-61.57a1.141,1.141,0,0,0-1.125,1.125v61.569a1.14,1.14,0,0,0,1.125,1.125h61.57A1.126,1.126,0,0,0,944.025,699.646Z"/><rect class="cls-1" x="944.182" y="639.202" width="61.57" height="61.57"/><path class="cls-2" d="M1005.752,699.646h-61.57l1.125,1.125V639.2l-1.125,1.125h61.57l-1.125-1.125v61.569a1.126,1.126,0,0,0,2.25,0V639.2a1.14,1.14,0,0,0-1.125-1.125h-61.57a1.141,1.141,0,0,0-1.125,1.125v61.569a1.141,1.141,0,0,0,1.125,1.125h61.57A1.126,1.126,0,0,0,1005.752,699.646Z"/><rect class="cls-1" x="1005.91" y="639.202" width="61.57" height="61.57"/><path class="cls-2" d="M1067.479,699.646H1005.91l1.125,1.125V639.2l-1.125,1.125h61.569l-1.125-1.125v61.569a1.126,1.126,0,0,0,2.25,0V639.2a1.14,1.14,0,0,0-1.125-1.125H1005.91a1.14,1.14,0,0,0-1.125,1.125v61.569a1.14,1.14,0,0,0,1.125,1.125h61.569A1.126,1.126,0,0,0,1067.479,699.646Z"/><rect class="cls-1" x="1067.637" y="639.202" width="61.57" height="61.57"/><path class="cls-2" d="M1129.207,699.646h-61.57l1.125,1.125V639.2l-1.125,1.125h61.57l-1.125-1.125v61.569a1.126,1.126,0,0,0,2.25,0V639.2a1.141,1.141,0,0,0-1.125-1.125h-61.57a1.141,1.141,0,0,0-1.125,1.125v61.569a1.14,1.14,0,0,0,1.125,1.125h61.57A1.126,1.126,0,0,0,1129.207,699.646Z"/><rect class="cls-1" x="265.182" y="579.238" width="61.57" height="61.57"/><path class="cls-2" d="M326.752,639.683h-61.57l1.125,1.125v-61.57l-1.125,1.125h61.57l-1.125-1.125v61.57a1.126,1.126,0,0,0,2.25,0v-61.57a1.142,1.142,0,0,0-1.125-1.125h-61.57a1.141,1.141,0,0,0-1.125,1.125v61.57a1.141,1.141,0,0,0,1.125,1.125h61.57A1.126,1.126,0,0,0,326.752,639.683Z"/><rect class="cls-1" x="326.909" y="579.238" width="61.57" height="61.57"/><path class="cls-2" d="M388.479,639.683h-61.57l1.125,1.125v-61.57l-1.125,1.125h61.57l-1.125-1.125v61.57a1.126,1.126,0,0,0,2.25,0v-61.57a1.141,1.141,0,0,0-1.125-1.125h-61.57a1.141,1.141,0,0,0-1.125,1.125v61.57a1.142,1.142,0,0,0,1.125,1.125h61.57A1.126,1.126,0,0,0,388.479,639.683Z"/><rect class="cls-1" x="388.637" y="543.238" width="61.57" height="61.57"/><path class="cls-2" d="M450.206,603.683H388.637l1.125,1.125v-61.57l-1.125,1.125h61.569l-1.125-1.125v61.57a1.126,1.126,0,0,0,2.25,0v-61.57a1.141,1.141,0,0,0-1.125-1.125H388.637a1.14,1.14,0,0,0-1.125,1.125v61.57a1.141,1.141,0,0,0,1.125,1.125h61.569A1.126,1.126,0,0,0,450.206,603.683Z"/><rect class="cls-1" x="450.364" y="579.238" width="61.57" height="61.57"/><path class="cls-2" d="M511.934,639.683h-61.57l1.125,1.125v-61.57l-1.125,1.125h61.57l-1.125-1.125v61.57a1.126,1.126,0,0,0,2.25,0v-61.57a1.142,1.142,0,0,0-1.125-1.125h-61.57a1.141,1.141,0,0,0-1.125,1.125v61.57a1.141,1.141,0,0,0,1.125,1.125h61.57A1.126,1.126,0,0,0,511.934,639.683Z"/><rect class="cls-1" x="512.091" y="579.238" width="61.57" height="61.57"/><path class="cls-2" d="M573.661,639.683h-61.57l1.125,1.125v-61.57l-1.125,1.125h61.57l-1.125-1.125v61.57a1.126,1.126,0,0,0,2.25,0v-61.57a1.142,1.142,0,0,0-1.125-1.125h-61.57a1.141,1.141,0,0,0-1.125,1.125v61.57a1.142,1.142,0,0,0,1.125,1.125h61.57A1.126,1.126,0,0,0,573.661,639.683Z"/><rect class="cls-1" x="573.818" y="579.238" width="61.57" height="61.57"/><path class="cls-2" d="M635.388,639.683h-61.57l1.125,1.125v-61.57l-1.125,1.125h61.57l-1.125-1.125v61.57a1.126,1.126,0,0,0,2.25,0v-61.57a1.141,1.141,0,0,0-1.125-1.125h-61.57a1.141,1.141,0,0,0-1.125,1.125v61.57a1.142,1.142,0,0,0,1.125,1.125h61.57A1.126,1.126,0,0,0,635.388,639.683Z"/><rect class="cls-1" x="635.546" y="579.238" width="61.57" height="61.57"/><path class="cls-2" d="M697.116,639.683h-61.57l1.125,1.125v-61.57l-1.125,1.125h61.57l-1.125-1.125v61.57a1.126,1.126,0,0,0,2.25,0v-61.57a1.142,1.142,0,0,0-1.125-1.125h-61.57a1.141,1.141,0,0,0-1.125,1.125v61.57a1.141,1.141,0,0,0,1.125,1.125h61.57A1.126,1.126,0,0,0,697.116,639.683Z"/><rect class="cls-1" x="697.273" y="579.238" width="61.57" height="61.57"/><path class="cls-2" d="M758.843,639.683h-61.57l1.125,1.125v-61.57l-1.125,1.125h61.57l-1.125-1.125v61.57a1.126,1.126,0,0,0,2.25,0v-61.57a1.142,1.142,0,0,0-1.125-1.125h-61.57a1.141,1.141,0,0,0-1.125,1.125v61.57a1.141,1.141,0,0,0,1.125,1.125h61.57A1.126,1.126,0,0,0,758.843,639.683Z"/><rect class="cls-1" x="759" y="579.238" width="61.57" height="61.57"/><path class="cls-2" d="M820.57,639.683H759l1.125,1.125v-61.57L759,580.363h61.57l-1.125-1.125v61.57a1.126,1.126,0,0,0,2.25,0v-61.57a1.141,1.141,0,0,0-1.125-1.125H759a1.141,1.141,0,0,0-1.125,1.125v61.57A1.142,1.142,0,0,0,759,641.933h61.57A1.126,1.126,0,0,0,820.57,639.683Z"/><rect class="cls-1" x="759" y="519.238" width="61.57" height="61.57"/><path class="cls-2" d="M820.57,579.683H759l1.125,1.125v-61.57L759,520.363h61.57l-1.125-1.125v61.57a1.126,1.126,0,0,0,2.25,0v-61.57a1.141,1.141,0,0,0-1.125-1.125H759a1.141,1.141,0,0,0-1.125,1.125v61.57A1.142,1.142,0,0,0,759,581.933h61.57A1.126,1.126,0,0,0,820.57,579.683Z"/><rect class="cls-1" x="820.728" y="579.238" width="61.57" height="61.57"/><path class="cls-2" d="M882.3,639.683H820.728l1.125,1.125v-61.57l-1.125,1.125H882.3l-1.125-1.125v61.57a1.126,1.126,0,0,0,2.25,0v-61.57a1.141,1.141,0,0,0-1.125-1.125H820.728a1.141,1.141,0,0,0-1.125,1.125v61.57a1.141,1.141,0,0,0,1.125,1.125H882.3A1.126,1.126,0,0,0,882.3,639.683Z"/><rect class="cls-1" x="882.455" y="579.238" width="61.57" height="61.57"/><path class="cls-2" d="M944.025,639.683h-61.57l1.125,1.125v-61.57l-1.125,1.125h61.57l-1.125-1.125v61.57a1.126,1.126,0,0,0,2.25,0v-61.57a1.142,1.142,0,0,0-1.125-1.125h-61.57a1.141,1.141,0,0,0-1.125,1.125v61.57a1.141,1.141,0,0,0,1.125,1.125h61.57A1.126,1.126,0,0,0,944.025,639.683Z"/><rect class="cls-1" x="944.455" y="463.165" width="61.57" height="61.57"/><path class="cls-2" d="M1006.025,523.61h-61.57l1.125,1.125v-61.57l-1.125,1.125h61.57l-1.125-1.125v61.57a1.126,1.126,0,0,0,2.25,0v-61.57a1.142,1.142,0,0,0-1.125-1.125h-61.57a1.142,1.142,0,0,0-1.125,1.125v61.57a1.141,1.141,0,0,0,1.125,1.125h61.57A1.126,1.126,0,0,0,1006.025,523.61Z"/><rect class="cls-1" x="944.455" y="403.202" width="61.57" height="61.57"/><path class="cls-2" d="M1006.025,463.646h-61.57l1.125,1.125V403.2l-1.125,1.125h61.57L1004.9,403.2v61.569a1.126,1.126,0,0,0,2.25,0V403.2a1.141,1.141,0,0,0-1.125-1.125h-61.57a1.141,1.141,0,0,0-1.125,1.125v61.569a1.14,1.14,0,0,0,1.125,1.125h61.57A1.126,1.126,0,0,0,1006.025,463.646Z"/><rect class="cls-1" x="882.728" y="343.238" width="61.57" height="61.57"/><path class="cls-2" d="M944.3,403.683H882.728l1.125,1.125v-61.57l-1.125,1.125H944.3l-1.125-1.125v61.57a1.126,1.126,0,0,0,2.25,0v-61.57a1.141,1.141,0,0,0-1.125-1.125H882.728a1.141,1.141,0,0,0-1.125,1.125v61.57a1.141,1.141,0,0,0,1.125,1.125H944.3A1.126,1.126,0,0,0,944.3,403.683Z"/><rect class="cls-1" x="944.455" y="343.238" width="61.57" height="61.57"/><path class="cls-2" d="M1006.025,403.683h-61.57l1.125,1.125v-61.57l-1.125,1.125h61.57l-1.125-1.125v61.57a1.126,1.126,0,0,0,2.25,0v-61.57a1.142,1.142,0,0,0-1.125-1.125h-61.57a1.141,1.141,0,0,0-1.125,1.125v61.57a1.141,1.141,0,0,0,1.125,1.125h61.57A1.126,1.126,0,0,0,1006.025,403.683Z"/><rect class="cls-1" x="1005.91" y="579.238" width="61.57" height="61.57"/><path class="cls-2" d="M1067.479,639.683H1005.91l1.125,1.125v-61.57l-1.125,1.125h61.569l-1.125-1.125v61.57a1.126,1.126,0,0,0,2.25,0v-61.57a1.141,1.141,0,0,0-1.125-1.125H1005.91a1.14,1.14,0,0,0-1.125,1.125v61.57a1.141,1.141,0,0,0,1.125,1.125h61.569A1.126,1.126,0,0,0,1067.479,639.683Z"/><rect class="cls-1" x="80" y="819.093" width="61.57" height="61.57"/><path class="cls-2" d="M141.57,879.537H80l1.125,1.125V819.093L80,820.218h61.57l-1.125-1.125v61.569a1.126,1.126,0,0,0,2.25,0V819.093a1.141,1.141,0,0,0-1.125-1.125H80a1.141,1.141,0,0,0-1.125,1.125v61.569A1.14,1.14,0,0,0,80,881.787h61.57A1.126,1.126,0,0,0,141.57,879.537Z"/><rect class="cls-1" x="141.727" y="819.093" width="61.57" height="61.57"/><path class="cls-2" d="M203.3,879.537h-61.57l1.125,1.125V819.093l-1.125,1.125H203.3l-1.125-1.125v61.569a1.126,1.126,0,0,0,2.25,0V819.093a1.14,1.14,0,0,0-1.125-1.125h-61.57a1.141,1.141,0,0,0-1.125,1.125v61.569a1.141,1.141,0,0,0,1.125,1.125H203.3A1.126,1.126,0,0,0,203.3,879.537Z"/><rect class="cls-1" x="203.455" y="819.093" width="61.57" height="61.57"/><path class="cls-2" d="M265.024,879.537H203.455l1.125,1.125V819.093l-1.125,1.125h61.569l-1.125-1.125v61.569a1.126,1.126,0,0,0,2.25,0V819.093a1.14,1.14,0,0,0-1.125-1.125H203.455a1.14,1.14,0,0,0-1.125,1.125v61.569a1.14,1.14,0,0,0,1.125,1.125h61.569A1.126,1.126,0,0,0,265.024,879.537Z"/><rect class="cls-1" x="80" y="759.129" width="61.57" height="61.57"/><path class="cls-2" d="M141.57,819.574H80l1.125,1.125v-61.57L80,760.254h61.57l-1.125-1.125V820.7a1.126,1.126,0,0,0,2.25,0v-61.57A1.142,1.142,0,0,0,141.57,758H80a1.141,1.141,0,0,0-1.125,1.125V820.7A1.141,1.141,0,0,0,80,821.824h61.57A1.126,1.126,0,0,0,141.57,819.574Z"/><rect class="cls-1" x="141.727" y="759.129" width="61.57" height="61.57"/><path class="cls-2" d="M203.3,819.574h-61.57l1.125,1.125v-61.57l-1.125,1.125H203.3l-1.125-1.125V820.7a1.126,1.126,0,0,0,2.25,0v-61.57A1.141,1.141,0,0,0,203.3,758h-61.57a1.141,1.141,0,0,0-1.125,1.125V820.7a1.142,1.142,0,0,0,1.125,1.125H203.3A1.126,1.126,0,0,0,203.3,819.574Z"/><rect class="cls-1" x="203.455" y="759.129" width="61.57" height="61.57"/><path class="cls-2" d="M265.024,819.574H203.455l1.125,1.125v-61.57l-1.125,1.125h61.569l-1.125-1.125V820.7a1.126,1.126,0,0,0,2.25,0v-61.57A1.141,1.141,0,0,0,265.024,758H203.455a1.14,1.14,0,0,0-1.125,1.125V820.7a1.141,1.141,0,0,0,1.125,1.125h61.569A1.126,1.126,0,0,0,265.024,819.574Z"/><rect class="cls-1" x="80" y="699.165" width="61.57" height="61.57"/><path class="cls-2" d="M141.57,759.61H80l1.125,1.125v-61.57L80,700.29h61.57l-1.125-1.125v61.57a1.126,1.126,0,0,0,2.25,0v-61.57a1.142,1.142,0,0,0-1.125-1.125H80a1.142,1.142,0,0,0-1.125,1.125v61.57A1.141,1.141,0,0,0,80,761.86h61.57A1.126,1.126,0,0,0,141.57,759.61Z"/><rect class="cls-1" x="141.727" y="699.165" width="61.57" height="61.57"/><path class="cls-2" d="M203.3,759.61h-61.57l1.125,1.125v-61.57l-1.125,1.125H203.3l-1.125-1.125v61.57a1.126,1.126,0,0,0,2.25,0v-61.57a1.141,1.141,0,0,0-1.125-1.125h-61.57a1.142,1.142,0,0,0-1.125,1.125v61.57a1.142,1.142,0,0,0,1.125,1.125H203.3A1.126,1.126,0,0,0,203.3,759.61Z"/><rect class="cls-1" x="203.455" y="699.165" width="61.57" height="61.57"/><path class="cls-2" d="M265.024,759.61H203.455l1.125,1.125v-61.57l-1.125,1.125h61.569l-1.125-1.125v61.57a1.126,1.126,0,0,0,2.25,0v-61.57a1.141,1.141,0,0,0-1.125-1.125H203.455a1.141,1.141,0,0,0-1.125,1.125v61.57a1.141,1.141,0,0,0,1.125,1.125h61.569A1.126,1.126,0,0,0,265.024,759.61Z"/><rect class="cls-1" x="80" y="639.202" width="61.57" height="61.57"/><path class="cls-2" d="M141.57,699.646H80l1.125,1.125V639.2L80,640.327h61.57l-1.125-1.125v61.569a1.126,1.126,0,0,0,2.25,0V639.2a1.141,1.141,0,0,0-1.125-1.125H80a1.141,1.141,0,0,0-1.125,1.125v61.569A1.14,1.14,0,0,0,80,701.9h61.57A1.126,1.126,0,0,0,141.57,699.646Z"/><rect class="cls-1" x="141.727" y="639.202" width="61.57" height="61.57"/><path class="cls-2" d="M203.3,699.646h-61.57l1.125,1.125V639.2l-1.125,1.125H203.3l-1.125-1.125v61.569a1.126,1.126,0,0,0,2.25,0V639.2a1.14,1.14,0,0,0-1.125-1.125h-61.57A1.141,1.141,0,0,0,140.6,639.2v61.569a1.141,1.141,0,0,0,1.125,1.125H203.3A1.126,1.126,0,0,0,203.3,699.646Z"/><rect class="cls-1" x="203.455" y="639.202" width="61.57" height="61.57"/><path class="cls-2" d="M265.024,699.646H203.455l1.125,1.125V639.2l-1.125,1.125h61.569L263.9,639.2v61.569a1.126,1.126,0,0,0,2.25,0V639.2a1.14,1.14,0,0,0-1.125-1.125H203.455a1.14,1.14,0,0,0-1.125,1.125v61.569a1.14,1.14,0,0,0,1.125,1.125h61.569A1.126,1.126,0,0,0,265.024,699.646Z"/><rect class="cls-1" x="80" y="579.238" width="61.57" height="61.57"/><path class="cls-2" d="M141.57,639.683H80l1.125,1.125v-61.57L80,580.363h61.57l-1.125-1.125v61.57a1.126,1.126,0,0,0,2.25,0v-61.57a1.142,1.142,0,0,0-1.125-1.125H80a1.141,1.141,0,0,0-1.125,1.125v61.57A1.141,1.141,0,0,0,80,641.933h61.57A1.126,1.126,0,0,0,141.57,639.683Z"/><rect class="cls-1" x="141.727" y="579.238" width="61.57" height="61.57"/><path class="cls-2" d="M203.3,639.683h-61.57l1.125,1.125v-61.57l-1.125,1.125H203.3l-1.125-1.125v61.57a1.126,1.126,0,0,0,2.25,0v-61.57a1.141,1.141,0,0,0-1.125-1.125h-61.57a1.141,1.141,0,0,0-1.125,1.125v61.57a1.142,1.142,0,0,0,1.125,1.125H203.3A1.126,1.126,0,0,0,203.3,639.683Z"/><rect class="cls-1" x="203.455" y="579.238" width="61.57" height="61.57"/><path class="cls-2" d="M265.024,639.683H203.455l1.125,1.125v-61.57l-1.125,1.125h61.569l-1.125-1.125v61.57a1.126,1.126,0,0,0,2.25,0v-61.57a1.141,1.141,0,0,0-1.125-1.125H203.455a1.14,1.14,0,0,0-1.125,1.125v61.57a1.141,1.141,0,0,0,1.125,1.125h61.569A1.126,1.126,0,0,0,265.024,639.683Z"/><rect class="cls-1" x="80" y="519.274" width="61.57" height="61.57"/><path class="cls-2" d="M141.57,579.719H80l1.125,1.125v-61.57L80,520.4h61.57l-1.125-1.125v61.57a1.126,1.126,0,0,0,2.25,0v-61.57a1.142,1.142,0,0,0-1.125-1.125H80a1.142,1.142,0,0,0-1.125,1.125v61.57A1.141,1.141,0,0,0,80,581.969h61.57A1.126,1.126,0,0,0,141.57,579.719Z"/><rect class="cls-1" x="203.455" y="519.274" width="61.57" height="61.57"/><path class="cls-2" d="M265.024,579.719H203.455l1.125,1.125v-61.57l-1.125,1.125h61.569l-1.125-1.125v61.57a1.126,1.126,0,0,0,2.25,0v-61.57a1.141,1.141,0,0,0-1.125-1.125H203.455a1.141,1.141,0,0,0-1.125,1.125v61.57a1.141,1.141,0,0,0,1.125,1.125h61.569A1.126,1.126,0,0,0,265.024,579.719Z"/><rect class="cls-1" x="265.182" y="483.274" width="61.57" height="61.57"/><path class="cls-2" d="M326.752,543.719h-61.57l1.125,1.125v-61.57l-1.125,1.125h61.57l-1.125-1.125v61.57a1.126,1.126,0,0,0,2.25,0v-61.57a1.142,1.142,0,0,0-1.125-1.125h-61.57a1.142,1.142,0,0,0-1.125,1.125v61.57a1.141,1.141,0,0,0,1.125,1.125h61.57A1.126,1.126,0,0,0,326.752,543.719Z"/><rect class="cls-1" x="142.182" y="519.274" width="61.57" height="61.57"/><path class="cls-2" d="M203.752,579.719h-61.57l1.125,1.125v-61.57l-1.125,1.125h61.57l-1.125-1.125v61.57a1.126,1.126,0,0,0,2.25,0v-61.57a1.142,1.142,0,0,0-1.125-1.125h-61.57a1.142,1.142,0,0,0-1.125,1.125v61.57a1.141,1.141,0,0,0,1.125,1.125h61.57A1.126,1.126,0,0,0,203.752,579.719Z"/><rect class="cls-1" x="326.909" y="483.274" width="61.57" height="61.57"/><path class="cls-2" d="M388.479,543.719h-61.57l1.125,1.125v-61.57l-1.125,1.125h61.57l-1.125-1.125v61.57a1.126,1.126,0,0,0,2.25,0v-61.57a1.141,1.141,0,0,0-1.125-1.125h-61.57a1.142,1.142,0,0,0-1.125,1.125v61.57a1.142,1.142,0,0,0,1.125,1.125h61.57A1.126,1.126,0,0,0,388.479,543.719Z"/><rect class="cls-1" x="388.637" y="483.274" width="61.57" height="61.57"/><path class="cls-2" d="M450.206,543.719H388.637l1.125,1.125v-61.57l-1.125,1.125h61.569l-1.125-1.125v61.57a1.126,1.126,0,0,0,2.25,0v-61.57a1.141,1.141,0,0,0-1.125-1.125H388.637a1.141,1.141,0,0,0-1.125,1.125v61.57a1.141,1.141,0,0,0,1.125,1.125h61.569A1.126,1.126,0,0,0,450.206,543.719Z"/><rect class="cls-1" x="450.364" y="519.274" width="61.57" height="61.57"/><path class="cls-2" d="M511.934,579.719h-61.57l1.125,1.125v-61.57l-1.125,1.125h61.57l-1.125-1.125v61.57a1.126,1.126,0,0,0,2.25,0v-61.57a1.142,1.142,0,0,0-1.125-1.125h-61.57a1.142,1.142,0,0,0-1.125,1.125v61.57a1.141,1.141,0,0,0,1.125,1.125h61.57A1.126,1.126,0,0,0,511.934,579.719Z"/><rect class="cls-1" x="635.546" y="519.274" width="61.57" height="61.57"/><path class="cls-2" d="M697.116,579.719h-61.57l1.125,1.125v-61.57l-1.125,1.125h61.57l-1.125-1.125v61.57a1.126,1.126,0,0,0,2.25,0v-61.57a1.142,1.142,0,0,0-1.125-1.125h-61.57a1.142,1.142,0,0,0-1.125,1.125v61.57a1.141,1.141,0,0,0,1.125,1.125h61.57A1.126,1.126,0,0,0,697.116,579.719Z"/><rect class="cls-1" x="697.273" y="408.238" width="61.57" height="61.57"/><path class="cls-2" d="M758.843,468.683h-61.57l1.125,1.125v-61.57l-1.125,1.125h61.57l-1.125-1.125v61.57a1.126,1.126,0,0,0,2.25,0v-61.57a1.142,1.142,0,0,0-1.125-1.125h-61.57a1.141,1.141,0,0,0-1.125,1.125v61.57a1.141,1.141,0,0,0,1.125,1.125h61.57A1.126,1.126,0,0,0,758.843,468.683Z"/><rect class="cls-1" x="759" y="348.238" width="61.57" height="61.57"/><path class="cls-2" d="M820.57,408.683H759l1.125,1.125v-61.57L759,349.363h61.57l-1.125-1.125v61.57a1.126,1.126,0,0,0,2.25,0v-61.57a1.141,1.141,0,0,0-1.125-1.125H759a1.141,1.141,0,0,0-1.125,1.125v61.57A1.142,1.142,0,0,0,759,410.933h61.57A1.126,1.126,0,0,0,820.57,408.683Z"/><rect class="cls-1" x="635.546" y="348.274" width="61.57" height="61.57"/><path class="cls-2" d="M697.116,408.719h-61.57l1.125,1.125v-61.57l-1.125,1.125h61.57l-1.125-1.125v61.57a1.126,1.126,0,0,0,2.25,0v-61.57a1.142,1.142,0,0,0-1.125-1.125h-61.57a1.142,1.142,0,0,0-1.125,1.125v61.57a1.141,1.141,0,0,0,1.125,1.125h61.57A1.126,1.126,0,0,0,697.116,408.719Z"/><rect class="cls-1" x="697.546" y="348.274" width="61.57" height="61.57"/><path class="cls-2" d="M759.116,408.719h-61.57l1.125,1.125v-61.57l-1.125,1.125h61.57l-1.125-1.125v61.57a1.126,1.126,0,0,0,2.25,0v-61.57a1.142,1.142,0,0,0-1.125-1.125h-61.57a1.142,1.142,0,0,0-1.125,1.125v61.57a1.141,1.141,0,0,0,1.125,1.125h61.57A1.126,1.126,0,0,0,759.116,408.719Z"/><rect class="cls-1" x="1128.637" y="819.093" width="61.57" height="61.57"/><path class="cls-2" d="M1190.207,879.537h-61.57l1.125,1.125V819.093l-1.125,1.125h61.57l-1.125-1.125v61.569a1.126,1.126,0,0,0,2.25,0V819.093a1.141,1.141,0,0,0-1.125-1.125h-61.57a1.141,1.141,0,0,0-1.125,1.125v61.569a1.14,1.14,0,0,0,1.125,1.125h61.57A1.126,1.126,0,0,0,1190.207,879.537Z"/><rect class="cls-1" x="1128.637" y="759.129" width="61.57" height="61.57"/><path class="cls-2" d="M1190.207,819.574h-61.57l1.125,1.125v-61.57l-1.125,1.125h61.57l-1.125-1.125V820.7a1.126,1.126,0,0,0,2.25,0v-61.57a1.142,1.142,0,0,0-1.125-1.125h-61.57a1.141,1.141,0,0,0-1.125,1.125V820.7a1.141,1.141,0,0,0,1.125,1.125h61.57A1.126,1.126,0,0,0,1190.207,819.574Z"/><rect class="cls-1" x="1128.637" y="699.165" width="61.57" height="61.57"/><path class="cls-2" d="M1190.207,759.61h-61.57l1.125,1.125v-61.57l-1.125,1.125h61.57l-1.125-1.125v61.57a1.126,1.126,0,0,0,2.25,0v-61.57a1.142,1.142,0,0,0-1.125-1.125h-61.57a1.142,1.142,0,0,0-1.125,1.125v61.57a1.141,1.141,0,0,0,1.125,1.125h61.57A1.126,1.126,0,0,0,1190.207,759.61Z"/><rect class="cls-1" x="1128.637" y="639.202" width="61.57" height="61.57"/><path class="cls-2" d="M1190.207,699.646h-61.57l1.125,1.125V639.2l-1.125,1.125h61.57l-1.125-1.125v61.569a1.126,1.126,0,0,0,2.25,0V639.2a1.141,1.141,0,0,0-1.125-1.125h-61.57a1.141,1.141,0,0,0-1.125,1.125v61.569a1.14,1.14,0,0,0,1.125,1.125h61.57A1.126,1.126,0,0,0,1190.207,699.646Z"/><rect class="cls-1" x="1128.637" y="579.238" width="61.57" height="61.57"/><path class="cls-2" d="M1190.207,639.683h-61.57l1.125,1.125v-61.57l-1.125,1.125h61.57l-1.125-1.125v61.57a1.126,1.126,0,0,0,2.25,0v-61.57a1.142,1.142,0,0,0-1.125-1.125h-61.57a1.141,1.141,0,0,0-1.125,1.125v61.57a1.141,1.141,0,0,0,1.125,1.125h61.57A1.126,1.126,0,0,0,1190.207,639.683Z"/></svg>