<svg xmlns="http://www.w3.org/2000/svg" viewBox="0 0 1552 1100"><defs><style>.cls-1{fill:#070707;}.cls-2{fill:none;stroke:#fff;stroke-miterlimit:10;}.cls-11,.cls-3{fill:#f2e7ac;}.cls-4{fill:#231f20;}.cls-12,.cls-5{fill:#88c1f2;}.cls-13,.cls-6{fill:#abd3d3;}.cls-15,.cls-7{fill:#e8caab;}.cls-14,.cls-8{fill:#f26363;}.cls-10,.cls-9{fill:#dfc8f7;}.cls-10,.cls-11,.cls-12,.cls-13,.cls-14,.cls-15{font-size:35px;}.cls-10,.cls-11,.cls-12,.cls-13,.cls-14,.cls-15,.cls-17{font-family:OpenSans-Light, Open Sans;font-weight:300;}.cls-16{fill:#efcf47;}.cls-17{font-size:43px;fill:#fff;letter-spacing:0.01em;}</style></defs><title>coding skills</title><g id="Layer_2" data-name="Layer 2"><rect class="cls-1" x="0.5" y="0.5" width="1551" height="1098"/><path d="M1551,1V1098H1V1H1551m1-1H0V1099H1552V0Z"/><line class="cls-2" x1="1415" y1="920.5" x2="135" y2="920.5"/><rect class="cls-3" x="401.182" y="853.521" width="61.57" height="61.57"/><path class="cls-4" d="M462.752,912.091h-61.57l3,3v-61.57l-3,3h61.57l-3-3v61.57c0,3.861,6,3.867,6,0v-61.57a3.044,3.044,0,0,0-3-3h-61.57a3.044,3.044,0,0,0-3,3v61.57a3.043,3.043,0,0,0,3,3h61.57C466.612,918.091,466.619,912.091,462.752,912.091Z"/><rect class="cls-3" x="462.909" y="853.521" width="61.57" height="61.57"/><path class="cls-4" d="M524.479,912.091h-61.57l3,3v-61.57l-3,3h61.57l-3-3v61.57c0,3.861,6,3.867,6,0v-61.57a3.043,3.043,0,0,0-3-3h-61.57a3.044,3.044,0,0,0-3,3v61.57a3.044,3.044,0,0,0,3,3h61.57C528.34,918.091,528.346,912.091,524.479,912.091Z"/><rect class="cls-3" x="524.637" y="853.521" width="61.57" height="61.57"/><path class="cls-4" d="M586.206,912.091H524.637l3,3v-61.57l-3,3h61.569l-3-3v61.57c0,3.861,6,3.867,6,0v-61.57a3.043,3.043,0,0,0-3-3H524.637a3.044,3.044,0,0,0-3,3v61.57a3.043,3.043,0,0,0,3,3h61.569C590.067,918.091,590.073,912.091,586.206,912.091Z"/><rect class="cls-5" x="586.364" y="853.521" width="61.57" height="61.57"/><path class="cls-4" d="M647.934,912.091h-61.57l3,3v-61.57l-3,3h61.57l-3-3v61.57c0,3.861,6,3.867,6,0v-61.57a3.044,3.044,0,0,0-3-3h-61.57a3.044,3.044,0,0,0-3,3v61.57a3.043,3.043,0,0,0,3,3h61.57C651.794,918.091,651.8,912.091,647.934,912.091Z"/><rect class="cls-5" x="648.091" y="853.521" width="61.57" height="61.57"/><path class="cls-4" d="M709.661,912.091h-61.57l3,3v-61.57l-3,3h61.57l-3-3v61.57c0,3.861,6,3.867,6,0v-61.57a3.044,3.044,0,0,0-3-3h-61.57a3.044,3.044,0,0,0-3,3v61.57a3.044,3.044,0,0,0,3,3h61.57C713.522,918.091,713.528,912.091,709.661,912.091Z"/><rect class="cls-5" x="709.818" y="853.521" width="61.57" height="61.57"/><path class="cls-4" d="M771.388,912.091h-61.57l3,3v-61.57l-3,3h61.57l-3-3v61.57c0,3.861,6,3.867,6,0v-61.57a3.043,3.043,0,0,0-3-3h-61.57a3.044,3.044,0,0,0-3,3v61.57a3.044,3.044,0,0,0,3,3h61.57C775.249,918.091,775.255,912.091,771.388,912.091Z"/><rect class="cls-6" x="771.546" y="853.521" width="61.57" height="61.57"/><path class="cls-4" d="M833.116,912.091h-61.57l3,3v-61.57l-3,3h61.57l-3-3v61.57c0,3.861,6,3.867,6,0v-61.57a3.044,3.044,0,0,0-3-3h-61.57a3.044,3.044,0,0,0-3,3v61.57a3.043,3.043,0,0,0,3,3h61.57C836.976,918.091,836.983,912.091,833.116,912.091Z"/><rect class="cls-6" x="833.273" y="853.521" width="61.57" height="61.57"/><path class="cls-4" d="M894.843,912.091h-61.57l3,3v-61.57l-3,3h61.57l-3-3v61.57c0,3.861,6,3.867,6,0v-61.57a3.044,3.044,0,0,0-3-3h-61.57a3.044,3.044,0,0,0-3,3v61.57a3.044,3.044,0,0,0,3,3h61.57C898.7,918.091,898.71,912.091,894.843,912.091Z"/><rect class="cls-6" x="895" y="853.521" width="61.57" height="61.57"/><path class="cls-4" d="M956.57,912.091H895l3,3v-61.57l-3,3h61.57l-3-3v61.57c0,3.861,6,3.867,6,0v-61.57a3.043,3.043,0,0,0-3-3H895a3.044,3.044,0,0,0-3,3v61.57a3.044,3.044,0,0,0,3,3h61.57C960.431,918.091,960.437,912.091,956.57,912.091Z"/><rect class="cls-7" x="956.728" y="853.521" width="61.57" height="61.57"/><path class="cls-4" d="M1018.3,912.091H956.728l3,3v-61.57l-3,3H1018.3l-3-3v61.57c0,3.861,6,3.867,6,0v-61.57a3.043,3.043,0,0,0-3-3H956.728a3.044,3.044,0,0,0-3,3v61.57a3.043,3.043,0,0,0,3,3H1018.3C1022.158,918.091,1022.165,912.091,1018.3,912.091Z"/><rect class="cls-7" x="1018.455" y="853.521" width="61.57" height="61.57"/><path class="cls-4" d="M1080.025,912.091h-61.57l3,3v-61.57l-3,3h61.57l-3-3v61.57c0,3.861,6,3.867,6,0v-61.57a3.044,3.044,0,0,0-3-3h-61.57a3.044,3.044,0,0,0-3,3v61.57a3.043,3.043,0,0,0,3,3h61.57C1083.885,918.091,1083.892,912.091,1080.025,912.091Z"/><rect class="cls-7" x="1080.182" y="853.521" width="61.57" height="61.57"/><path class="cls-4" d="M1141.752,912.091h-61.57l3,3v-61.57l-3,3h61.57l-3-3v61.57c0,3.861,6,3.867,6,0v-61.57a3.043,3.043,0,0,0-3-3h-61.57a3.044,3.044,0,0,0-3,3v61.57a3.044,3.044,0,0,0,3,3h61.57C1145.613,918.091,1145.619,912.091,1141.752,912.091Z"/><rect class="cls-8" x="1141.91" y="853.521" width="61.57" height="61.57"/><path class="cls-4" d="M1203.479,912.091H1141.91l3,3v-61.57l-3,3h61.569l-3-3v61.57c0,3.861,6,3.867,6,0v-61.57a3.043,3.043,0,0,0-3-3H1141.91a3.044,3.044,0,0,0-3,3v61.57a3.043,3.043,0,0,0,3,3h61.569C1207.34,918.091,1207.346,912.091,1203.479,912.091Z"/><rect class="cls-8" x="1203.637" y="853.521" width="61.57" height="61.57"/><path class="cls-4" d="M1265.207,912.091h-61.57l3,3v-61.57l-3,3h61.57l-3-3v61.57c0,3.861,6,3.867,6,0v-61.57a3.044,3.044,0,0,0-3-3h-61.57a3.044,3.044,0,0,0-3,3v61.57a3.043,3.043,0,0,0,3,3h61.57C1269.067,918.091,1269.074,912.091,1265.207,912.091Z"/><rect class="cls-3" x="401.182" y="793.558" width="61.57" height="61.57"/><path class="cls-4" d="M462.752,852.127h-61.57l3,3V793.558l-3,3h61.57l-3-3v61.569c0,3.861,6,3.867,6,0V793.558a3.044,3.044,0,0,0-3-3h-61.57a3.043,3.043,0,0,0-3,3v61.569a3.043,3.043,0,0,0,3,3h61.57C466.612,858.127,466.619,852.127,462.752,852.127Z"/><rect class="cls-3" x="462.909" y="793.558" width="61.57" height="61.57"/><path class="cls-4" d="M524.479,852.127h-61.57l3,3V793.558l-3,3h61.57l-3-3v61.569c0,3.861,6,3.867,6,0V793.558a3.043,3.043,0,0,0-3-3h-61.57a3.043,3.043,0,0,0-3,3v61.569a3.044,3.044,0,0,0,3,3h61.57C528.34,858.127,528.346,852.127,524.479,852.127Z"/><rect class="cls-3" x="524.637" y="793.558" width="61.57" height="61.57"/><path class="cls-4" d="M586.206,852.127H524.637l3,3V793.558l-3,3h61.569l-3-3v61.569c0,3.861,6,3.867,6,0V793.558a3.043,3.043,0,0,0-3-3H524.637a3.043,3.043,0,0,0-3,3v61.569a3.043,3.043,0,0,0,3,3h61.569C590.067,858.127,590.073,852.127,586.206,852.127Z"/><rect class="cls-5" x="586.364" y="793.558" width="61.57" height="61.57"/><path class="cls-4" d="M647.934,852.127h-61.57l3,3V793.558l-3,3h61.57l-3-3v61.569c0,3.861,6,3.867,6,0V793.558a3.044,3.044,0,0,0-3-3h-61.57a3.043,3.043,0,0,0-3,3v61.569a3.043,3.043,0,0,0,3,3h61.57C651.794,858.127,651.8,852.127,647.934,852.127Z"/><rect class="cls-5" x="648.091" y="793.558" width="61.57" height="61.57"/><path class="cls-4" d="M709.661,852.127h-61.57l3,3V793.558l-3,3h61.57l-3-3v61.569c0,3.861,6,3.867,6,0V793.558a3.044,3.044,0,0,0-3-3h-61.57a3.043,3.043,0,0,0-3,3v61.569a3.044,3.044,0,0,0,3,3h61.57C713.522,858.127,713.528,852.127,709.661,852.127Z"/><rect class="cls-5" x="709.818" y="793.558" width="61.57" height="61.57"/><path class="cls-4" d="M771.388,852.127h-61.57l3,3V793.558l-3,3h61.57l-3-3v61.569c0,3.861,6,3.867,6,0V793.558a3.043,3.043,0,0,0-3-3h-61.57a3.044,3.044,0,0,0-3,3v61.569a3.044,3.044,0,0,0,3,3h61.57C775.249,858.127,775.255,852.127,771.388,852.127Z"/><rect class="cls-6" x="771.546" y="793.558" width="61.57" height="61.57"/><path class="cls-4" d="M833.116,852.127h-61.57l3,3V793.558l-3,3h61.57l-3-3v61.569c0,3.861,6,3.867,6,0V793.558a3.044,3.044,0,0,0-3-3h-61.57a3.043,3.043,0,0,0-3,3v61.569a3.043,3.043,0,0,0,3,3h61.57C836.976,858.127,836.983,852.127,833.116,852.127Z"/><rect class="cls-6" x="833.273" y="793.558" width="61.57" height="61.57"/><path class="cls-4" d="M894.843,852.127h-61.57l3,3V793.558l-3,3h61.57l-3-3v61.569c0,3.861,6,3.867,6,0V793.558a3.044,3.044,0,0,0-3-3h-61.57a3.043,3.043,0,0,0-3,3v61.569a3.044,3.044,0,0,0,3,3h61.57C898.7,858.127,898.71,852.127,894.843,852.127Z"/><rect class="cls-6" x="895" y="793.558" width="61.57" height="61.57"/><path class="cls-4" d="M956.57,852.127H895l3,3V793.558l-3,3h61.57l-3-3v61.569c0,3.861,6,3.867,6,0V793.558a3.043,3.043,0,0,0-3-3H895a3.044,3.044,0,0,0-3,3v61.569a3.044,3.044,0,0,0,3,3h61.57C960.431,858.127,960.437,852.127,956.57,852.127Z"/><rect class="cls-7" x="956.728" y="793.558" width="61.57" height="61.57"/><path class="cls-4" d="M1018.3,852.127H956.728l3,3V793.558l-3,3H1018.3l-3-3v61.569c0,3.861,6,3.867,6,0V793.558a3.043,3.043,0,0,0-3-3H956.728a3.043,3.043,0,0,0-3,3v61.569a3.043,3.043,0,0,0,3,3H1018.3C1022.158,858.127,1022.165,852.127,1018.3,852.127Z"/><rect class="cls-7" x="1018.455" y="793.558" width="61.57" height="61.57"/><path class="cls-4" d="M1080.025,852.127h-61.57l3,3V793.558l-3,3h61.57l-3-3v61.569c0,3.861,6,3.867,6,0V793.558a3.044,3.044,0,0,0-3-3h-61.57a3.043,3.043,0,0,0-3,3v61.569a3.043,3.043,0,0,0,3,3h61.57C1083.885,858.127,1083.892,852.127,1080.025,852.127Z"/><rect class="cls-7" x="1080.182" y="793.558" width="61.57" height="61.57"/><path class="cls-4" d="M1141.752,852.127h-61.57l3,3V793.558l-3,3h61.57l-3-3v61.569c0,3.861,6,3.867,6,0V793.558a3.043,3.043,0,0,0-3-3h-61.57a3.044,3.044,0,0,0-3,3v61.569a3.044,3.044,0,0,0,3,3h61.57C1145.613,858.127,1145.619,852.127,1141.752,852.127Z"/><rect class="cls-8" x="1141.91" y="793.558" width="61.57" height="61.57"/><path class="cls-4" d="M1203.479,852.127H1141.91l3,3V793.558l-3,3h61.569l-3-3v61.569c0,3.861,6,3.867,6,0V793.558a3.043,3.043,0,0,0-3-3H1141.91a3.043,3.043,0,0,0-3,3v61.569a3.043,3.043,0,0,0,3,3h61.569C1207.34,858.127,1207.346,852.127,1203.479,852.127Z"/><rect class="cls-8" x="1203.637" y="793.558" width="61.57" height="61.57"/><path class="cls-4" d="M1265.207,852.127h-61.57l3,3V793.558l-3,3h61.57l-3-3v61.569c0,3.861,6,3.867,6,0V793.558a3.044,3.044,0,0,0-3-3h-61.57a3.043,3.043,0,0,0-3,3v61.569a3.043,3.043,0,0,0,3,3h61.57C1269.067,858.127,1269.074,852.127,1265.207,852.127Z"/><rect class="cls-3" x="401.182" y="733.594" width="61.57" height="61.57"/><path class="cls-4" d="M462.752,792.164h-61.57l3,3v-61.57l-3,3h61.57l-3-3v61.57c0,3.86,6,3.867,6,0v-61.57a3.044,3.044,0,0,0-3-3h-61.57a3.043,3.043,0,0,0-3,3v61.57a3.044,3.044,0,0,0,3,3h61.57C466.612,798.164,466.619,792.164,462.752,792.164Z"/><rect class="cls-3" x="462.909" y="733.594" width="61.57" height="61.57"/><path class="cls-4" d="M524.479,792.164h-61.57l3,3v-61.57l-3,3h61.57l-3-3v61.57c0,3.86,6,3.867,6,0v-61.57a3.043,3.043,0,0,0-3-3h-61.57a3.043,3.043,0,0,0-3,3v61.57a3.044,3.044,0,0,0,3,3h61.57C528.34,798.164,528.346,792.164,524.479,792.164Z"/><rect class="cls-3" x="524.637" y="733.594" width="61.57" height="61.57"/><path class="cls-4" d="M586.206,792.164H524.637l3,3v-61.57l-3,3h61.569l-3-3v61.57c0,3.86,6,3.867,6,0v-61.57a3.043,3.043,0,0,0-3-3H524.637a3.043,3.043,0,0,0-3,3v61.57a3.044,3.044,0,0,0,3,3h61.569C590.067,798.164,590.073,792.164,586.206,792.164Z"/><rect class="cls-5" x="586.364" y="733.594" width="61.57" height="61.57"/><path class="cls-4" d="M647.934,792.164h-61.57l3,3v-61.57l-3,3h61.57l-3-3v61.57c0,3.86,6,3.867,6,0v-61.57a3.044,3.044,0,0,0-3-3h-61.57a3.043,3.043,0,0,0-3,3v61.57a3.044,3.044,0,0,0,3,3h61.57C651.794,798.164,651.8,792.164,647.934,792.164Z"/><rect class="cls-5" x="648.091" y="733.594" width="61.57" height="61.57"/><path class="cls-4" d="M709.661,792.164h-61.57l3,3v-61.57l-3,3h61.57l-3-3v61.57c0,3.86,6,3.867,6,0v-61.57a3.044,3.044,0,0,0-3-3h-61.57a3.043,3.043,0,0,0-3,3v61.57a3.044,3.044,0,0,0,3,3h61.57C713.522,798.164,713.528,792.164,709.661,792.164Z"/><rect class="cls-5" x="709.818" y="733.594" width="61.57" height="61.57"/><path class="cls-4" d="M771.388,792.164h-61.57l3,3v-61.57l-3,3h61.57l-3-3v61.57c0,3.86,6,3.867,6,0v-61.57a3.043,3.043,0,0,0-3-3h-61.57a3.044,3.044,0,0,0-3,3v61.57a3.044,3.044,0,0,0,3,3h61.57C775.249,798.164,775.255,792.164,771.388,792.164Z"/><rect class="cls-6" x="771.546" y="733.594" width="61.57" height="61.57"/><path class="cls-4" d="M833.116,792.164h-61.57l3,3v-61.57l-3,3h61.57l-3-3v61.57c0,3.86,6,3.867,6,0v-61.57a3.044,3.044,0,0,0-3-3h-61.57a3.043,3.043,0,0,0-3,3v61.57a3.044,3.044,0,0,0,3,3h61.57C836.976,798.164,836.983,792.164,833.116,792.164Z"/><rect class="cls-6" x="833.273" y="733.594" width="61.57" height="61.57"/><path class="cls-4" d="M894.843,792.164h-61.57l3,3v-61.57l-3,3h61.57l-3-3v61.57c0,3.86,6,3.867,6,0v-61.57a3.044,3.044,0,0,0-3-3h-61.57a3.043,3.043,0,0,0-3,3v61.57a3.044,3.044,0,0,0,3,3h61.57C898.7,798.164,898.71,792.164,894.843,792.164Z"/><rect class="cls-6" x="895" y="733.594" width="61.57" height="61.57"/><path class="cls-4" d="M956.57,792.164H895l3,3v-61.57l-3,3h61.57l-3-3v61.57c0,3.86,6,3.867,6,0v-61.57a3.043,3.043,0,0,0-3-3H895a3.044,3.044,0,0,0-3,3v61.57a3.044,3.044,0,0,0,3,3h61.57C960.431,798.164,960.437,792.164,956.57,792.164Z"/><rect class="cls-7" x="956.728" y="733.594" width="61.57" height="61.57"/><path class="cls-4" d="M1018.3,792.164H956.728l3,3v-61.57l-3,3H1018.3l-3-3v61.57c0,3.86,6,3.867,6,0v-61.57a3.043,3.043,0,0,0-3-3H956.728a3.043,3.043,0,0,0-3,3v61.57a3.044,3.044,0,0,0,3,3H1018.3C1022.158,798.164,1022.165,792.164,1018.3,792.164Z"/><rect class="cls-7" x="1018.455" y="733.594" width="61.57" height="61.57"/><path class="cls-4" d="M1080.025,792.164h-61.57l3,3v-61.57l-3,3h61.57l-3-3v61.57c0,3.86,6,3.867,6,0v-61.57a3.044,3.044,0,0,0-3-3h-61.57a3.043,3.043,0,0,0-3,3v61.57a3.044,3.044,0,0,0,3,3h61.57C1083.885,798.164,1083.892,792.164,1080.025,792.164Z"/><rect class="cls-7" x="1080.182" y="733.594" width="61.57" height="61.57"/><path class="cls-4" d="M1141.752,792.164h-61.57l3,3v-61.57l-3,3h61.57l-3-3v61.57c0,3.86,6,3.867,6,0v-61.57a3.043,3.043,0,0,0-3-3h-61.57a3.044,3.044,0,0,0-3,3v61.57a3.044,3.044,0,0,0,3,3h61.57C1145.613,798.164,1145.619,792.164,1141.752,792.164Z"/><rect class="cls-8" x="1141.91" y="733.594" width="61.57" height="61.57"/><path class="cls-4" d="M1203.479,792.164H1141.91l3,3v-61.57l-3,3h61.569l-3-3v61.57c0,3.86,6,3.867,6,0v-61.57a3.043,3.043,0,0,0-3-3H1141.91a3.043,3.043,0,0,0-3,3v61.57a3.044,3.044,0,0,0,3,3h61.569C1207.34,798.164,1207.346,792.164,1203.479,792.164Z"/><rect class="cls-8" x="1203.637" y="733.594" width="61.57" height="61.57"/><path class="cls-4" d="M1265.207,792.164h-61.57l3,3v-61.57l-3,3h61.57l-3-3v61.57c0,3.86,6,3.867,6,0v-61.57a3.044,3.044,0,0,0-3-3h-61.57a3.043,3.043,0,0,0-3,3v61.57a3.044,3.044,0,0,0,3,3h61.57C1269.067,798.164,1269.074,792.164,1265.207,792.164Z"/><rect class="cls-3" x="401.182" y="673.63" width="61.57" height="61.57"/><path class="cls-4" d="M462.752,732.2h-61.57l3,3V673.63l-3,3h61.57l-3-3V735.2c0,3.861,6,3.867,6,0V673.63a3.044,3.044,0,0,0-3-3h-61.57a3.044,3.044,0,0,0-3,3V735.2a3.043,3.043,0,0,0,3,3h61.57C466.612,738.2,466.619,732.2,462.752,732.2Z"/><rect class="cls-3" x="462.909" y="673.63" width="61.57" height="61.57"/><path class="cls-4" d="M524.479,732.2h-61.57l3,3V673.63l-3,3h61.57l-3-3V735.2c0,3.861,6,3.867,6,0V673.63a3.043,3.043,0,0,0-3-3h-61.57a3.044,3.044,0,0,0-3,3V735.2a3.044,3.044,0,0,0,3,3h61.57C528.34,738.2,528.346,732.2,524.479,732.2Z"/><rect class="cls-3" x="524.637" y="673.63" width="61.57" height="61.57"/><path class="cls-4" d="M586.206,732.2H524.637l3,3V673.63l-3,3h61.569l-3-3V735.2c0,3.861,6,3.867,6,0V673.63a3.043,3.043,0,0,0-3-3H524.637a3.044,3.044,0,0,0-3,3V735.2a3.043,3.043,0,0,0,3,3h61.569C590.067,738.2,590.073,732.2,586.206,732.2Z"/><rect class="cls-5" x="586.364" y="673.63" width="61.57" height="61.57"/><path class="cls-4" d="M647.934,732.2h-61.57l3,3V673.63l-3,3h61.57l-3-3V735.2c0,3.861,6,3.867,6,0V673.63a3.044,3.044,0,0,0-3-3h-61.57a3.044,3.044,0,0,0-3,3V735.2a3.043,3.043,0,0,0,3,3h61.57C651.794,738.2,651.8,732.2,647.934,732.2Z"/><rect class="cls-5" x="648.091" y="673.63" width="61.57" height="61.57"/><path class="cls-4" d="M709.661,732.2h-61.57l3,3V673.63l-3,3h61.57l-3-3V735.2c0,3.861,6,3.867,6,0V673.63a3.044,3.044,0,0,0-3-3h-61.57a3.044,3.044,0,0,0-3,3V735.2a3.044,3.044,0,0,0,3,3h61.57C713.522,738.2,713.528,732.2,709.661,732.2Z"/><rect class="cls-5" x="709.818" y="673.63" width="61.57" height="61.57"/><path class="cls-4" d="M771.388,732.2h-61.57l3,3V673.63l-3,3h61.57l-3-3V735.2c0,3.861,6,3.867,6,0V673.63a3.043,3.043,0,0,0-3-3h-61.57a3.044,3.044,0,0,0-3,3V735.2a3.044,3.044,0,0,0,3,3h61.57C775.249,738.2,775.255,732.2,771.388,732.2Z"/><rect class="cls-6" x="771.546" y="673.63" width="61.57" height="61.57"/><path class="cls-4" d="M833.116,732.2h-61.57l3,3V673.63l-3,3h61.57l-3-3V735.2c0,3.861,6,3.867,6,0V673.63a3.044,3.044,0,0,0-3-3h-61.57a3.044,3.044,0,0,0-3,3V735.2a3.043,3.043,0,0,0,3,3h61.57C836.976,738.2,836.983,732.2,833.116,732.2Z"/><rect class="cls-6" x="833.273" y="673.63" width="61.57" height="61.57"/><path class="cls-4" d="M894.843,732.2h-61.57l3,3V673.63l-3,3h61.57l-3-3V735.2c0,3.861,6,3.867,6,0V673.63a3.044,3.044,0,0,0-3-3h-61.57a3.044,3.044,0,0,0-3,3V735.2a3.044,3.044,0,0,0,3,3h61.57C898.7,738.2,898.71,732.2,894.843,732.2Z"/><rect class="cls-6" x="895" y="673.63" width="61.57" height="61.57"/><path class="cls-4" d="M956.57,732.2H895l3,3V673.63l-3,3h61.57l-3-3V735.2c0,3.861,6,3.867,6,0V673.63a3.043,3.043,0,0,0-3-3H895a3.044,3.044,0,0,0-3,3V735.2a3.044,3.044,0,0,0,3,3h61.57C960.431,738.2,960.437,732.2,956.57,732.2Z"/><rect class="cls-7" x="956.728" y="673.63" width="61.57" height="61.57"/><path class="cls-4" d="M1018.3,732.2H956.728l3,3V673.63l-3,3H1018.3l-3-3V735.2c0,3.861,6,3.867,6,0V673.63a3.043,3.043,0,0,0-3-3H956.728a3.044,3.044,0,0,0-3,3V735.2a3.043,3.043,0,0,0,3,3H1018.3C1022.158,738.2,1022.165,732.2,1018.3,732.2Z"/><rect class="cls-7" x="1018.455" y="673.63" width="61.57" height="61.57"/><path class="cls-4" d="M1080.025,732.2h-61.57l3,3V673.63l-3,3h61.57l-3-3V735.2c0,3.861,6,3.867,6,0V673.63a3.044,3.044,0,0,0-3-3h-61.57a3.044,3.044,0,0,0-3,3V735.2a3.043,3.043,0,0,0,3,3h61.57C1083.885,738.2,1083.892,732.2,1080.025,732.2Z"/><rect class="cls-7" x="1080.182" y="673.63" width="61.57" height="61.57"/><path class="cls-4" d="M1141.752,732.2h-61.57l3,3V673.63l-3,3h61.57l-3-3V735.2c0,3.861,6,3.867,6,0V673.63a3.043,3.043,0,0,0-3-3h-61.57a3.044,3.044,0,0,0-3,3V735.2a3.044,3.044,0,0,0,3,3h61.57C1145.613,738.2,1145.619,732.2,1141.752,732.2Z"/><rect class="cls-8" x="1141.91" y="673.63" width="61.57" height="61.57"/><path class="cls-4" d="M1203.479,732.2H1141.91l3,3V673.63l-3,3h61.569l-3-3V735.2c0,3.861,6,3.867,6,0V673.63a3.043,3.043,0,0,0-3-3H1141.91a3.044,3.044,0,0,0-3,3V735.2a3.043,3.043,0,0,0,3,3h61.569C1207.34,738.2,1207.346,732.2,1203.479,732.2Z"/><rect class="cls-8" x="1203.637" y="673.63" width="61.57" height="61.57"/><path class="cls-4" d="M1265.207,732.2h-61.57l3,3V673.63l-3,3h61.57l-3-3V735.2c0,3.861,6,3.867,6,0V673.63a3.044,3.044,0,0,0-3-3h-61.57a3.044,3.044,0,0,0-3,3V735.2a3.043,3.043,0,0,0,3,3h61.57C1269.067,738.2,1269.074,732.2,1265.207,732.2Z"/><rect class="cls-3" x="401.182" y="613.667" width="61.57" height="61.57"/><path class="cls-4" d="M462.752,672.236h-61.57l3,3V613.667l-3,3h61.57l-3-3v61.569c0,3.861,6,3.867,6,0V613.667a3.044,3.044,0,0,0-3-3h-61.57a3.043,3.043,0,0,0-3,3v61.569a3.043,3.043,0,0,0,3,3h61.57C466.612,678.236,466.619,672.236,462.752,672.236Z"/><rect class="cls-3" x="462.909" y="613.667" width="61.57" height="61.57"/><path class="cls-4" d="M524.479,672.236h-61.57l3,3V613.667l-3,3h61.57l-3-3v61.569c0,3.861,6,3.867,6,0V613.667a3.043,3.043,0,0,0-3-3h-61.57a3.043,3.043,0,0,0-3,3v61.569a3.044,3.044,0,0,0,3,3h61.57C528.34,678.236,528.346,672.236,524.479,672.236Z"/><rect class="cls-3" x="524.637" y="577.667" width="61.57" height="61.57"/><path class="cls-4" d="M586.206,636.236H524.637l3,3V577.667l-3,3h61.569l-3-3v61.569c0,3.861,6,3.867,6,0V577.667a3.043,3.043,0,0,0-3-3H524.637a3.043,3.043,0,0,0-3,3v61.569a3.043,3.043,0,0,0,3,3h61.569C590.067,642.236,590.073,636.236,586.206,636.236Z"/><rect class="cls-5" x="586.364" y="613.667" width="61.57" height="61.57"/><path class="cls-4" d="M647.934,672.236h-61.57l3,3V613.667l-3,3h61.57l-3-3v61.569c0,3.861,6,3.867,6,0V613.667a3.044,3.044,0,0,0-3-3h-61.57a3.043,3.043,0,0,0-3,3v61.569a3.043,3.043,0,0,0,3,3h61.57C651.794,678.236,651.8,672.236,647.934,672.236Z"/><rect class="cls-5" x="648.091" y="613.667" width="61.57" height="61.57"/><path class="cls-4" d="M709.661,672.236h-61.57l3,3V613.667l-3,3h61.57l-3-3v61.569c0,3.861,6,3.867,6,0V613.667a3.044,3.044,0,0,0-3-3h-61.57a3.043,3.043,0,0,0-3,3v61.569a3.044,3.044,0,0,0,3,3h61.57C713.522,678.236,713.528,672.236,709.661,672.236Z"/><rect class="cls-5" x="709.818" y="613.667" width="61.57" height="61.57"/><path class="cls-4" d="M771.388,672.236h-61.57l3,3V613.667l-3,3h61.57l-3-3v61.569c0,3.861,6,3.867,6,0V613.667a3.043,3.043,0,0,0-3-3h-61.57a3.044,3.044,0,0,0-3,3v61.569a3.044,3.044,0,0,0,3,3h61.57C775.249,678.236,775.255,672.236,771.388,672.236Z"/><rect class="cls-6" x="771.546" y="613.667" width="61.57" height="61.57"/><path class="cls-4" d="M833.116,672.236h-61.57l3,3V613.667l-3,3h61.57l-3-3v61.569c0,3.861,6,3.867,6,0V613.667a3.044,3.044,0,0,0-3-3h-61.57a3.043,3.043,0,0,0-3,3v61.569a3.043,3.043,0,0,0,3,3h61.57C836.976,678.236,836.983,672.236,833.116,672.236Z"/><rect class="cls-6" x="833.273" y="613.667" width="61.57" height="61.57"/><path class="cls-4" d="M894.843,672.236h-61.57l3,3V613.667l-3,3h61.57l-3-3v61.569c0,3.861,6,3.867,6,0V613.667a3.044,3.044,0,0,0-3-3h-61.57a3.043,3.043,0,0,0-3,3v61.569a3.044,3.044,0,0,0,3,3h61.57C898.7,678.236,898.71,672.236,894.843,672.236Z"/><rect class="cls-6" x="895" y="613.667" width="61.57" height="61.57"/><path class="cls-4" d="M956.57,672.236H895l3,3V613.667l-3,3h61.57l-3-3v61.569c0,3.861,6,3.867,6,0V613.667a3.043,3.043,0,0,0-3-3H895a3.044,3.044,0,0,0-3,3v61.569a3.044,3.044,0,0,0,3,3h61.57C960.431,678.236,960.437,672.236,956.57,672.236Z"/><rect class="cls-6" x="895" y="553.667" width="61.57" height="61.57"/><path class="cls-4" d="M956.57,612.236H895l3,3V553.667l-3,3h61.57l-3-3v61.569c0,3.861,6,3.867,6,0V553.667a3.043,3.043,0,0,0-3-3H895a3.044,3.044,0,0,0-3,3v61.569a3.044,3.044,0,0,0,3,3h61.57C960.431,618.236,960.437,612.236,956.57,612.236Z"/><rect class="cls-7" x="956.728" y="613.667" width="61.57" height="61.57"/><path class="cls-4" d="M1018.3,672.236H956.728l3,3V613.667l-3,3H1018.3l-3-3v61.569c0,3.861,6,3.867,6,0V613.667a3.043,3.043,0,0,0-3-3H956.728a3.043,3.043,0,0,0-3,3v61.569a3.043,3.043,0,0,0,3,3H1018.3C1022.158,678.236,1022.165,672.236,1018.3,672.236Z"/><rect class="cls-7" x="1018.455" y="613.667" width="61.57" height="61.57"/><path class="cls-4" d="M1080.025,672.236h-61.57l3,3V613.667l-3,3h61.57l-3-3v61.569c0,3.861,6,3.867,6,0V613.667a3.044,3.044,0,0,0-3-3h-61.57a3.043,3.043,0,0,0-3,3v61.569a3.043,3.043,0,0,0,3,3h61.57C1083.885,678.236,1083.892,672.236,1080.025,672.236Z"/><rect class="cls-7" x="1080.455" y="497.594" width="61.57" height="61.57"/><path class="cls-4" d="M1142.025,556.164h-61.57l3,3v-61.57l-3,3h61.57l-3-3v61.57c0,3.86,6,3.867,6,0v-61.57a3.044,3.044,0,0,0-3-3h-61.57a3.043,3.043,0,0,0-3,3v61.57a3.044,3.044,0,0,0,3,3h61.57C1145.885,562.164,1145.892,556.164,1142.025,556.164Z"/><rect class="cls-7" x="1080.455" y="437.63" width="61.57" height="61.57"/><path class="cls-4" d="M1142.025,496.2h-61.57l3,3V437.63l-3,3h61.57l-3-3V499.2c0,3.861,6,3.867,6,0V437.63a3.044,3.044,0,0,0-3-3h-61.57a3.044,3.044,0,0,0-3,3V499.2a3.043,3.043,0,0,0,3,3h61.57C1145.885,502.2,1145.892,496.2,1142.025,496.2Z"/><rect class="cls-7" x="1018.728" y="377.667" width="61.57" height="61.57"/><path class="cls-4" d="M1080.3,436.236h-61.569l3,3V377.667l-3,3H1080.3l-3-3v61.569c0,3.861,6,3.867,6,0V377.667a3.043,3.043,0,0,0-3-3h-61.569a3.043,3.043,0,0,0-3,3v61.569a3.043,3.043,0,0,0,3,3H1080.3C1084.158,442.236,1084.165,436.236,1080.3,436.236Z"/><rect class="cls-7" x="1080.455" y="377.667" width="61.57" height="61.57"/><path class="cls-4" d="M1142.025,436.236h-61.57l3,3V377.667l-3,3h61.57l-3-3v61.569c0,3.861,6,3.867,6,0V377.667a3.044,3.044,0,0,0-3-3h-61.57a3.043,3.043,0,0,0-3,3v61.569a3.043,3.043,0,0,0,3,3h61.57C1145.885,442.236,1145.892,436.236,1142.025,436.236Z"/><rect class="cls-8" x="1141.91" y="613.667" width="61.57" height="61.57"/><path class="cls-4" d="M1203.479,672.236H1141.91l3,3V613.667l-3,3h61.569l-3-3v61.569c0,3.861,6,3.867,6,0V613.667a3.043,3.043,0,0,0-3-3H1141.91a3.043,3.043,0,0,0-3,3v61.569a3.043,3.043,0,0,0,3,3h61.569C1207.34,678.236,1207.346,672.236,1203.479,672.236Z"/><rect class="cls-9" x="216" y="853.521" width="61.57" height="61.57"/><path class="cls-4" d="M277.57,912.091H216l3,3v-61.57l-3,3h61.57l-3-3v61.57c0,3.861,6,3.867,6,0v-61.57a3.044,3.044,0,0,0-3-3H216a3.044,3.044,0,0,0-3,3v61.57a3.043,3.043,0,0,0,3,3h61.57C281.43,918.091,281.437,912.091,277.57,912.091Z"/><rect class="cls-9" x="277.727" y="853.521" width="61.57" height="61.57"/><path class="cls-4" d="M339.3,912.091h-61.57l3,3v-61.57l-3,3H339.3l-3-3v61.57c0,3.861,6,3.867,6,0v-61.57a3.043,3.043,0,0,0-3-3h-61.57a3.044,3.044,0,0,0-3,3v61.57a3.044,3.044,0,0,0,3,3H339.3C343.158,918.091,343.164,912.091,339.3,912.091Z"/><rect class="cls-9" x="339.455" y="853.521" width="61.57" height="61.57"/><path class="cls-4" d="M401.024,912.091H339.455l3,3v-61.57l-3,3h61.569l-3-3v61.57c0,3.861,6,3.867,6,0v-61.57a3.043,3.043,0,0,0-3-3H339.455a3.044,3.044,0,0,0-3,3v61.57a3.043,3.043,0,0,0,3,3h61.569C404.885,918.091,404.891,912.091,401.024,912.091Z"/><rect class="cls-9" x="216" y="793.558" width="61.57" height="61.57"/><path class="cls-4" d="M277.57,852.127H216l3,3V793.558l-3,3h61.57l-3-3v61.569c0,3.861,6,3.867,6,0V793.558a3.044,3.044,0,0,0-3-3H216a3.043,3.043,0,0,0-3,3v61.569a3.043,3.043,0,0,0,3,3h61.57C281.43,858.127,281.437,852.127,277.57,852.127Z"/><rect class="cls-9" x="277.727" y="793.558" width="61.57" height="61.57"/><path class="cls-4" d="M339.3,852.127h-61.57l3,3V793.558l-3,3H339.3l-3-3v61.569c0,3.861,6,3.867,6,0V793.558a3.043,3.043,0,0,0-3-3h-61.57a3.044,3.044,0,0,0-3,3v61.569a3.044,3.044,0,0,0,3,3H339.3C343.158,858.127,343.164,852.127,339.3,852.127Z"/><rect class="cls-9" x="339.455" y="793.558" width="61.57" height="61.57"/><path class="cls-4" d="M401.024,852.127H339.455l3,3V793.558l-3,3h61.569l-3-3v61.569c0,3.861,6,3.867,6,0V793.558a3.043,3.043,0,0,0-3-3H339.455a3.043,3.043,0,0,0-3,3v61.569a3.043,3.043,0,0,0,3,3h61.569C404.885,858.127,404.891,852.127,401.024,852.127Z"/><rect class="cls-9" x="216" y="733.594" width="61.57" height="61.57"/><path class="cls-4" d="M277.57,792.164H216l3,3v-61.57l-3,3h61.57l-3-3v61.57c0,3.86,6,3.867,6,0v-61.57a3.044,3.044,0,0,0-3-3H216a3.043,3.043,0,0,0-3,3v61.57a3.044,3.044,0,0,0,3,3h61.57C281.43,798.164,281.437,792.164,277.57,792.164Z"/><rect class="cls-9" x="277.727" y="733.594" width="61.57" height="61.57"/><path class="cls-4" d="M339.3,792.164h-61.57l3,3v-61.57l-3,3H339.3l-3-3v61.57c0,3.86,6,3.867,6,0v-61.57a3.043,3.043,0,0,0-3-3h-61.57a3.044,3.044,0,0,0-3,3v61.57a3.044,3.044,0,0,0,3,3H339.3C343.158,798.164,343.164,792.164,339.3,792.164Z"/><rect class="cls-9" x="339.455" y="733.594" width="61.57" height="61.57"/><path class="cls-4" d="M401.024,792.164H339.455l3,3v-61.57l-3,3h61.569l-3-3v61.57c0,3.86,6,3.867,6,0v-61.57a3.043,3.043,0,0,0-3-3H339.455a3.043,3.043,0,0,0-3,3v61.57a3.044,3.044,0,0,0,3,3h61.569C404.885,798.164,404.891,792.164,401.024,792.164Z"/><rect class="cls-9" x="216" y="673.63" width="61.57" height="61.57"/><path class="cls-4" d="M277.57,732.2H216l3,3V673.63l-3,3h61.57l-3-3V735.2c0,3.861,6,3.867,6,0V673.63a3.044,3.044,0,0,0-3-3H216a3.044,3.044,0,0,0-3,3V735.2a3.043,3.043,0,0,0,3,3h61.57C281.43,738.2,281.437,732.2,277.57,732.2Z"/><rect class="cls-9" x="277.727" y="673.63" width="61.57" height="61.57"/><path class="cls-4" d="M339.3,732.2h-61.57l3,3V673.63l-3,3H339.3l-3-3V735.2c0,3.861,6,3.867,6,0V673.63a3.043,3.043,0,0,0-3-3h-61.57a3.044,3.044,0,0,0-3,3V735.2a3.044,3.044,0,0,0,3,3H339.3C343.158,738.2,343.164,732.2,339.3,732.2Z"/><rect class="cls-9" x="339.455" y="673.63" width="61.57" height="61.57"/><path class="cls-4" d="M401.024,732.2H339.455l3,3V673.63l-3,3h61.569l-3-3V735.2c0,3.861,6,3.867,6,0V673.63a3.043,3.043,0,0,0-3-3H339.455a3.044,3.044,0,0,0-3,3V735.2a3.043,3.043,0,0,0,3,3h61.569C404.885,738.2,404.891,732.2,401.024,732.2Z"/><rect class="cls-9" x="216" y="613.667" width="61.57" height="61.57"/><path class="cls-4" d="M277.57,672.236H216l3,3V613.667l-3,3h61.57l-3-3v61.569c0,3.861,6,3.867,6,0V613.667a3.044,3.044,0,0,0-3-3H216a3.043,3.043,0,0,0-3,3v61.569a3.043,3.043,0,0,0,3,3h61.57C281.43,678.236,281.437,672.236,277.57,672.236Z"/><rect class="cls-9" x="277.727" y="613.667" width="61.57" height="61.57"/><path class="cls-4" d="M339.3,672.236h-61.57l3,3V613.667l-3,3H339.3l-3-3v61.569c0,3.861,6,3.867,6,0V613.667a3.043,3.043,0,0,0-3-3h-61.57a3.044,3.044,0,0,0-3,3v61.569a3.044,3.044,0,0,0,3,3H339.3C343.158,678.236,343.164,672.236,339.3,672.236Z"/><rect class="cls-9" x="339.455" y="613.667" width="61.57" height="61.57"/><path class="cls-4" d="M401.024,672.236H339.455l3,3V613.667l-3,3h61.569l-3-3v61.569c0,3.861,6,3.867,6,0V613.667a3.043,3.043,0,0,0-3-3H339.455a3.043,3.043,0,0,0-3,3v61.569a3.043,3.043,0,0,0,3,3h61.569C404.885,678.236,404.891,672.236,401.024,672.236Z"/><rect class="cls-9" x="216" y="553.703" width="61.57" height="61.57"/><path class="cls-4" d="M277.57,612.273H216l3,3V553.7l-3,3h61.57l-3-3v61.57c0,3.86,6,3.867,6,0V553.7a3.044,3.044,0,0,0-3-3H216a3.043,3.043,0,0,0-3,3v61.57a3.044,3.044,0,0,0,3,3h61.57C281.43,618.273,281.437,612.273,277.57,612.273Z"/><rect class="cls-9" x="339.455" y="553.703" width="61.57" height="61.57"/><path class="cls-4" d="M401.024,612.273H339.455l3,3V553.7l-3,3h61.569l-3-3v61.57c0,3.86,6,3.867,6,0V553.7a3.043,3.043,0,0,0-3-3H339.455a3.043,3.043,0,0,0-3,3v61.57a3.044,3.044,0,0,0,3,3h61.569C404.885,618.273,404.891,612.273,401.024,612.273Z"/><rect class="cls-3" x="401.182" y="517.703" width="61.57" height="61.57"/><path class="cls-4" d="M462.752,576.273h-61.57l3,3V517.7l-3,3h61.57l-3-3v61.57c0,3.86,6,3.867,6,0V517.7a3.044,3.044,0,0,0-3-3h-61.57a3.043,3.043,0,0,0-3,3v61.57a3.044,3.044,0,0,0,3,3h61.57C466.612,582.273,466.619,576.273,462.752,576.273Z"/><rect class="cls-9" x="278.182" y="553.703" width="61.57" height="61.57"/><path class="cls-4" d="M339.752,612.273h-61.57l3,3V553.7l-3,3h61.57l-3-3v61.57c0,3.86,6,3.867,6,0V553.7a3.044,3.044,0,0,0-3-3h-61.57a3.043,3.043,0,0,0-3,3v61.57a3.044,3.044,0,0,0,3,3h61.57C343.612,618.273,343.619,612.273,339.752,612.273Z"/><rect class="cls-3" x="462.909" y="517.703" width="61.57" height="61.57"/><path class="cls-4" d="M524.479,576.273h-61.57l3,3V517.7l-3,3h61.57l-3-3v61.57c0,3.86,6,3.867,6,0V517.7a3.043,3.043,0,0,0-3-3h-61.57a3.043,3.043,0,0,0-3,3v61.57a3.044,3.044,0,0,0,3,3h61.57C528.34,582.273,528.346,576.273,524.479,576.273Z"/><rect class="cls-3" x="524.637" y="517.703" width="61.57" height="61.57"/><path class="cls-4" d="M586.206,576.273H524.637l3,3V517.7l-3,3h61.569l-3-3v61.57c0,3.86,6,3.867,6,0V517.7a3.043,3.043,0,0,0-3-3H524.637a3.043,3.043,0,0,0-3,3v61.57a3.044,3.044,0,0,0,3,3h61.569C590.067,582.273,590.073,576.273,586.206,576.273Z"/><rect class="cls-5" x="586.364" y="553.703" width="61.57" height="61.57"/><path class="cls-4" d="M647.934,612.273h-61.57l3,3V553.7l-3,3h61.57l-3-3v61.57c0,3.86,6,3.867,6,0V553.7a3.044,3.044,0,0,0-3-3h-61.57a3.043,3.043,0,0,0-3,3v61.57a3.044,3.044,0,0,0,3,3h61.57C651.794,618.273,651.8,612.273,647.934,612.273Z"/><rect class="cls-6" x="771.546" y="553.703" width="61.57" height="61.57"/><path class="cls-4" d="M833.116,612.273h-61.57l3,3V553.7l-3,3h61.57l-3-3v61.57c0,3.86,6,3.867,6,0V553.7a3.044,3.044,0,0,0-3-3h-61.57a3.043,3.043,0,0,0-3,3v61.57a3.044,3.044,0,0,0,3,3h61.57C836.976,618.273,836.983,612.273,833.116,612.273Z"/><rect class="cls-6" x="833.273" y="442.667" width="61.57" height="61.57"/><path class="cls-4" d="M894.843,501.236h-61.57l3,3V442.667l-3,3h61.57l-3-3v61.569c0,3.861,6,3.867,6,0V442.667a3.044,3.044,0,0,0-3-3h-61.57a3.043,3.043,0,0,0-3,3v61.569a3.044,3.044,0,0,0,3,3h61.57C898.7,507.236,898.71,501.236,894.843,501.236Z"/><rect class="cls-6" x="895" y="382.667" width="61.57" height="61.57"/><path class="cls-4" d="M956.57,441.236H895l3,3V382.667l-3,3h61.57l-3-3v61.569c0,3.861,6,3.867,6,0V382.667a3.043,3.043,0,0,0-3-3H895a3.044,3.044,0,0,0-3,3v61.569a3.044,3.044,0,0,0,3,3h61.57C960.431,447.236,960.437,441.236,956.57,441.236Z"/><rect class="cls-6" x="771.546" y="382.703" width="61.57" height="61.57"/><path class="cls-4" d="M833.116,441.273h-61.57l3,3V382.7l-3,3h61.57l-3-3v61.57c0,3.86,6,3.867,6,0V382.7a3.044,3.044,0,0,0-3-3h-61.57a3.043,3.043,0,0,0-3,3v61.57a3.044,3.044,0,0,0,3,3h61.57C836.976,447.273,836.983,441.273,833.116,441.273Z"/><rect class="cls-6" x="833.546" y="382.703" width="61.57" height="61.57"/><path class="cls-4" d="M895.116,441.273h-61.57l3,3V382.7l-3,3h61.57l-3-3v61.57c0,3.86,6,3.867,6,0V382.7a3.044,3.044,0,0,0-3-3h-61.57a3.043,3.043,0,0,0-3,3v61.57a3.044,3.044,0,0,0,3,3h61.57C898.976,447.273,898.983,441.273,895.116,441.273Z"/><rect class="cls-8" x="1264.637" y="853.521" width="61.57" height="61.57"/><path class="cls-4" d="M1326.207,912.091h-61.57l3,3v-61.57l-3,3h61.57l-3-3v61.57c0,3.861,6,3.867,6,0v-61.57a3.044,3.044,0,0,0-3-3h-61.57a3.044,3.044,0,0,0-3,3v61.57a3.043,3.043,0,0,0,3,3h61.57C1330.067,918.091,1330.074,912.091,1326.207,912.091Z"/><rect class="cls-8" x="1264.637" y="793.558" width="61.57" height="61.57"/><path class="cls-4" d="M1326.207,852.127h-61.57l3,3V793.558l-3,3h61.57l-3-3v61.569c0,3.861,6,3.867,6,0V793.558a3.044,3.044,0,0,0-3-3h-61.57a3.043,3.043,0,0,0-3,3v61.569a3.043,3.043,0,0,0,3,3h61.57C1330.067,858.127,1330.074,852.127,1326.207,852.127Z"/><rect class="cls-8" x="1264.637" y="733.594" width="61.57" height="61.57"/><path class="cls-4" d="M1326.207,792.164h-61.57l3,3v-61.57l-3,3h61.57l-3-3v61.57c0,3.86,6,3.867,6,0v-61.57a3.044,3.044,0,0,0-3-3h-61.57a3.043,3.043,0,0,0-3,3v61.57a3.044,3.044,0,0,0,3,3h61.57C1330.067,798.164,1330.074,792.164,1326.207,792.164Z"/><rect class="cls-8" x="1264.637" y="673.63" width="61.57" height="61.57"/><path class="cls-4" d="M1326.207,732.2h-61.57l3,3V673.63l-3,3h61.57l-3-3V735.2c0,3.861,6,3.867,6,0V673.63a3.044,3.044,0,0,0-3-3h-61.57a3.044,3.044,0,0,0-3,3V735.2a3.043,3.043,0,0,0,3,3h61.57C1330.067,738.2,1330.074,732.2,1326.207,732.2Z"/><rect class="cls-8" x="1264.637" y="613.667" width="61.57" height="61.57"/><path class="cls-4" d="M1326.207,672.236h-61.57l3,3V613.667l-3,3h61.57l-3-3v61.569c0,3.861,6,3.867,6,0V613.667a3.044,3.044,0,0,0-3-3h-61.57a3.043,3.043,0,0,0-3,3v61.569a3.043,3.043,0,0,0,3,3h61.57C1330.067,678.236,1330.074,672.236,1326.207,672.236Z"/><text class="cls-10" transform="translate(261 968.933)">HTML</text><text class="cls-11" transform="translate(452.466 968.933)">CSS</text><text class="cls-12" transform="translate(631.145 968.932)">SCSS</text><text class="cls-13" transform="translate(845.041 968.933)">JS</text><text class="cls-14" transform="translate(1203.543 968.932)">BOOTSTRAP</text><text class="cls-15" transform="translate(1007.557 968.932)">REACT</text><path class="cls-16" d="M1513.5,1035H60.734c-6.365,0-13.4-.85-19.726,0a19.434,19.434,0,0,1-2.508,0l1.5,1.5V70.478c0-3.862,1.084-9.556,0-13.3A6.851,6.851,0,0,1,40,55.5L38.5,57H1491.266c6.365,0,13.4.85,19.726,0a19.434,19.434,0,0,1,2.508,0l-1.5-1.5V996.735c0,12.387-1.446,25.764,0,38.09a14.625,14.625,0,0,1,0,1.675,1.5,1.5,0,0,0,3,0V95.265c0-12.455,1.284-25.683,0-38.09a16.711,16.711,0,0,1,0-1.675,1.522,1.522,0,0,0-1.5-1.5H98.374c-19.107,0-38.262-.4-57.366,0-.835.017-1.672,0-2.508,0A1.522,1.522,0,0,0,37,55.5V996.735c0,12.455-1.284,25.683,0,38.09a16.711,16.711,0,0,1,0,1.675,1.522,1.522,0,0,0,1.5,1.5H1453.626c19.107,0,38.262.4,57.366,0,.835-.017,1.672,0,2.508,0A1.5,1.5,0,0,0,1513.5,1035Z"/><text class="cls-17" transform="translate(585.73 161.067) scale(1.05 1)">CODING SKILLS</text></g></svg>