<svg xmlns="http://www.w3.org/2000/svg" viewBox="0 0 1280 678"><defs><style>.cls-1{fill:#7ca1c0;}.cls-2{fill:#231f20;}.cls-3{fill:#76aadb;}.cls-4{fill:#097ca0;}.cls-5{font-size:46px;fill:#fff;font-family:OpenSans-Regular, Open Sans;}.cls-6{fill:#076589;}</style></defs><title>coding skills</title><g id="Layer_2" data-name="Layer 2"><rect class="cls-1" x="39.098" y="273" width="65.016" height="65.016"/><path class="cls-2" d="M104.114,333.016H39.1l5,5V273l-5,5h65.016l-5-5v65.016c0,6.434,10,6.445,10,0V273a5.073,5.073,0,0,0-5-5H39.1a5.073,5.073,0,0,0-5,5v65.016a5.073,5.073,0,0,0,5,5h65.016C110.548,343.016,110.559,333.016,104.114,333.016Z"/><rect class="cls-1" x="39.098" y="339.916" width="65.016" height="65.016"/><path class="cls-2" d="M104.114,399.932H39.1l5,5V339.916l-5,5h65.016l-5-5v65.016c0,6.435,10,6.445,10,0V339.916a5.073,5.073,0,0,0-5-5H39.1a5.073,5.073,0,0,0-5,5v65.016a5.073,5.073,0,0,0,5,5h65.016C110.548,409.932,110.559,399.932,104.114,399.932Z"/><rect class="cls-3" x="39.098" y="406.922" width="65.016" height="65.016"/><path class="cls-2" d="M104.114,466.938H39.1l5,5V406.922l-5,5h65.016l-5-5v65.016c0,6.435,10,6.445,10,0V406.922a5.073,5.073,0,0,0-5-5H39.1a5.073,5.073,0,0,0-5,5v65.016a5.073,5.073,0,0,0,5,5h65.016C110.548,476.938,110.559,466.938,104.114,466.938Z"/><rect class="cls-3" x="39.098" y="475.238" width="65.016" height="65.016"/><path class="cls-2" d="M104.114,535.254H39.1l5,5V475.238l-5,5h65.016l-5-5v65.016c0,6.435,10,6.446,10,0V475.238a5.073,5.073,0,0,0-5-5H39.1a5.073,5.073,0,0,0-5,5v65.016a5.073,5.073,0,0,0,5,5h65.016C110.548,545.254,110.559,535.254,104.114,535.254Z"/><rect class="cls-4" x="39.098" y="542.661" width="65.016" height="65.016"/><path class="cls-2" d="M104.114,602.677H39.1l5,5V542.661l-5,5h65.016l-5-5v65.016c0,6.434,10,6.445,10,0V542.661a5.073,5.073,0,0,0-5-5H39.1a5.073,5.073,0,0,0-5,5v65.016a5.073,5.073,0,0,0,5,5h65.016C110.548,612.677,110.559,602.677,104.114,602.677Z"/><rect class="cls-4" x="39.098" y="610.18" width="65.016" height="65.016"/><path class="cls-2" d="M104.114,670.2H39.1l5,5V610.18l-5,5h65.016l-5-5V675.2c0,6.435,10,6.445,10,0V610.18a5.073,5.073,0,0,0-5-5H39.1a5.073,5.073,0,0,0-5,5V675.2a5.073,5.073,0,0,0,5,5h65.016C110.548,680.2,110.559,670.2,104.114,670.2Z"/><rect class="cls-4" x="104.114" y="610.18" width="65.016" height="65.016"/><path class="cls-2" d="M169.13,670.2H104.114l5,5V610.18l-5,5H169.13l-5-5V675.2c0,6.435,10,6.445,10,0V610.18a5.073,5.073,0,0,0-5-5H104.114a5.073,5.073,0,0,0-5,5V675.2a5.072,5.072,0,0,0,5,5H169.13C175.564,680.2,175.575,670.2,169.13,670.2Z"/><rect class="cls-1" x="104.114" y="339.916" width="65.016" height="65.016"/><path class="cls-2" d="M169.13,399.932H104.114l5,5V339.916l-5,5H169.13l-5-5v65.016c0,6.435,10,6.445,10,0V339.916a5.073,5.073,0,0,0-5-5H104.114a5.073,5.073,0,0,0-5,5v65.016a5.072,5.072,0,0,0,5,5H169.13C175.564,409.932,175.575,399.932,169.13,399.932Z"/><rect class="cls-1" x="104.114" y="406.922" width="65.016" height="65.016"/><path class="cls-2" d="M169.13,466.938H104.114l5,5V406.922l-5,5H169.13l-5-5v65.016c0,6.435,10,6.445,10,0V406.922a5.073,5.073,0,0,0-5-5H104.114a5.073,5.073,0,0,0-5,5v65.016a5.072,5.072,0,0,0,5,5H169.13C175.564,476.938,175.575,466.938,169.13,466.938Z"/><rect class="cls-3" x="104.114" y="475.238" width="65.016" height="65.016"/><path class="cls-2" d="M169.13,535.254H104.114l5,5V475.238l-5,5H169.13l-5-5v65.016c0,6.435,10,6.446,10,0V475.238a5.073,5.073,0,0,0-5-5H104.114a5.073,5.073,0,0,0-5,5v65.016a5.072,5.072,0,0,0,5,5H169.13C175.564,545.254,175.575,535.254,169.13,535.254Z"/><rect class="cls-3" x="104.114" y="542.661" width="65.016" height="65.016"/><path class="cls-2" d="M169.13,602.677H104.114l5,5V542.661l-5,5H169.13l-5-5v65.016c0,6.434,10,6.445,10,0V542.661a5.073,5.073,0,0,0-5-5H104.114a5.073,5.073,0,0,0-5,5v65.016a5.072,5.072,0,0,0,5,5H169.13C175.564,612.677,175.575,602.677,169.13,602.677Z"/><rect class="cls-1" x="304.519" y="610.032" width="65.016" height="65.016" transform="translate(-2.938 1.55) rotate(-0.262)"/><path class="cls-2" d="M309.668,675.2l-.3-65.015-5,5,65.015-.3-5-5,.3,65.015,5-5-65.015.3c-6.433.029-6.447,10.03,0,10l65.015-.3a5.071,5.071,0,0,0,5-5l-.3-65.015a5.071,5.071,0,0,0-5-5l-65.015.3a5.072,5.072,0,0,0-5,5l.3,65.015C299.7,681.629,309.7,681.642,309.668,675.2Z"/><rect class="cls-1" x="238.174" y="610.032" width="65.016" height="65.016" transform="translate(-2.939 1.246) rotate(-0.262)"/><path class="cls-2" d="M243.323,675.2l-.3-65.015-5,5,65.015-.3-5-5,.3,65.015,5-5-65.016.3c-6.433.029-6.446,10.03,0,10l65.016-.3a5.072,5.072,0,0,0,5-5l-.3-65.015a5.072,5.072,0,0,0-5-5l-65.015.3a5.071,5.071,0,0,0-5,5l.3,65.015C233.353,681.629,243.353,681.642,243.323,675.2Z"/><rect class="cls-1" x="304.519" y="542.512" width="65.016" height="65.016" transform="translate(-2.629 1.549) rotate(-0.262)"/><path class="cls-2" d="M309.668,607.677l-.3-65.015-5,5,65.015-.3-5-5,.3,65.015,5-5-65.015.3c-6.433.029-6.447,10.029,0,10l65.015-.3a5.072,5.072,0,0,0,5-5l-.3-65.015a5.071,5.071,0,0,0-5-5l-65.015.3a5.071,5.071,0,0,0-5,5l.3,65.015C299.7,614.11,309.7,614.123,309.668,607.677Z"/><rect class="cls-1" x="238.174" y="542.512" width="65.016" height="65.016" transform="translate(-2.63 1.245) rotate(-0.262)"/><path class="cls-2" d="M243.323,607.677l-.3-65.015-5,5,65.015-.3-5-5,.3,65.015,5-5-65.016.3c-6.433.029-6.446,10.029,0,10l65.016-.3a5.073,5.073,0,0,0,5-5l-.3-65.015a5.072,5.072,0,0,0-5-5l-65.015.3a5.071,5.071,0,0,0-5,5l.3,65.015C233.353,614.11,243.353,614.123,243.323,607.677Z"/><rect class="cls-1" x="304.519" y="475.09" width="65.016" height="65.016" transform="translate(-2.32 1.548) rotate(-0.262)"/><path class="cls-2" d="M309.668,540.254l-.3-65.015-5,5,65.015-.3-5-5,.3,65.016,5-5-65.015.3c-6.433.03-6.447,10.03,0,10l65.015-.3a5.073,5.073,0,0,0,5-5l-.3-65.016a5.072,5.072,0,0,0-5-5l-65.015.3a5.072,5.072,0,0,0-5,5l.3,65.015C299.7,546.688,309.7,546.7,309.668,540.254Z"/><rect class="cls-4" x="238.174" y="475.09" width="65.016" height="65.016" transform="translate(-2.321 1.245) rotate(-0.262)"/><path class="cls-2" d="M243.323,540.254l-.3-65.015-5,5,65.015-.3-5-5,.3,65.016,5-5-65.016.3c-6.433.03-6.446,10.03,0,10l65.016-.3a5.073,5.073,0,0,0,5-5l-.3-65.016a5.073,5.073,0,0,0-5-5l-65.015.3a5.071,5.071,0,0,0-5,5l.3,65.015C233.353,546.688,243.353,546.7,243.323,540.254Z"/><rect class="cls-4" x="304.519" y="406.774" width="65.016" height="65.016" transform="translate(-2.008 1.548) rotate(-0.262)"/><path class="cls-2" d="M309.668,471.938l-.3-65.015-5,5,65.015-.3-5-5,.3,65.016,5-5-65.015.3c-6.433.03-6.447,10.03,0,10l65.015-.3a5.073,5.073,0,0,0,5-5l-.3-65.016a5.072,5.072,0,0,0-5-5l-65.015.3a5.072,5.072,0,0,0-5,5l.3,65.015C299.7,478.371,309.7,478.385,309.668,471.938Z"/><rect class="cls-4" x="238.174" y="406.774" width="65.016" height="65.016" transform="translate(-2.008 1.244) rotate(-0.262)"/><path class="cls-2" d="M243.323,471.938l-.3-65.015-5,5,65.015-.3-5-5,.3,65.016,5-5-65.016.3c-6.433.03-6.446,10.03,0,10l65.016-.3a5.073,5.073,0,0,0,5-5l-.3-65.016a5.073,5.073,0,0,0-5-5l-65.015.3a5.071,5.071,0,0,0-5,5l.3,65.015C233.353,478.371,243.353,478.385,243.323,471.938Z"/><rect class="cls-4" x="238.174" y="339.768" width="65.016" height="65.016" transform="translate(-1.702 1.243) rotate(-0.262)"/><path class="cls-2" d="M243.323,404.932l-.3-65.015-5,5,65.015-.3-5-5,.3,65.015,5-5-65.016.3c-6.433.03-6.446,10.03,0,10l65.016-.3a5.072,5.072,0,0,0,5-5l-.3-65.015a5.073,5.073,0,0,0-5-5l-65.015.3a5.071,5.071,0,0,0-5,5l.3,65.015C233.353,411.365,243.353,411.378,243.323,404.932Z"/><rect class="cls-1" x="514.971" y="610.032" width="65.016" height="65.016" transform="matrix(1, -0.005, 0.005, 1, -2.936, 2.513)"/><path class="cls-2" d="M520.12,675.2l-.3-65.015-5,5,65.015-.3-5-5,.3,65.015,5-5-65.015.3c-6.433.029-6.446,10.03,0,10l65.015-.3a5.071,5.071,0,0,0,5-5l-.3-65.015a5.071,5.071,0,0,0-5-5l-65.015.3a5.073,5.073,0,0,0-5,5l.3,65.015C510.149,681.629,520.149,681.642,520.12,675.2Z"/><rect class="cls-1" x="448.626" y="610.032" width="65.016" height="65.016" transform="translate(-2.937 2.21) rotate(-0.262)"/><path class="cls-2" d="M453.776,675.2l-.3-65.015-5,5,65.015-.3-5-5,.3,65.015,5-5-65.015.3c-6.434.029-6.447,10.03,0,10l65.015-.3a5.072,5.072,0,0,0,5-5l-.3-65.015a5.072,5.072,0,0,0-5-5l-65.015.3a5.071,5.071,0,0,0-5,5l.3,65.015C443.805,681.629,453.805,681.642,453.776,675.2Z"/><rect class="cls-1" x="514.971" y="542.512" width="65.016" height="65.016" transform="matrix(1, -0.005, 0.005, 1, -2.627, 2.513)"/><path class="cls-2" d="M520.12,607.677l-.3-65.015-5,5,65.015-.3-5-5,.3,65.015,5-5-65.015.3c-6.433.029-6.446,10.029,0,10l65.015-.3a5.071,5.071,0,0,0,5-5l-.3-65.015a5.071,5.071,0,0,0-5-5l-65.015.3a5.072,5.072,0,0,0-5,5l.3,65.015C510.149,614.11,520.149,614.123,520.12,607.677Z"/><rect class="cls-1" x="448.626" y="542.512" width="65.016" height="65.016" transform="translate(-2.628 2.209) rotate(-0.262)"/><path class="cls-2" d="M453.776,607.677l-.3-65.015-5,5,65.015-.3-5-5,.3,65.015,5-5-65.015.3c-6.434.029-6.447,10.029,0,10l65.015-.3a5.073,5.073,0,0,0,5-5l-.3-65.015a5.072,5.072,0,0,0-5-5l-65.015.3a5.071,5.071,0,0,0-5,5l.3,65.015C443.805,614.11,453.805,614.123,453.776,607.677Z"/><rect class="cls-1" x="514.971" y="475.09" width="65.016" height="65.016" transform="matrix(1, -0.005, 0.005, 1, -2.318, 2.512)"/><path class="cls-2" d="M520.12,540.254l-.3-65.015-5,5,65.015-.3-5-5,.3,65.016,5-5-65.015.3c-6.433.03-6.446,10.03,0,10l65.015-.3a5.072,5.072,0,0,0,5-5l-.3-65.016a5.072,5.072,0,0,0-5-5l-65.015.3a5.073,5.073,0,0,0-5,5l.3,65.015C510.149,546.688,520.149,546.7,520.12,540.254Z"/><rect class="cls-1" x="448.626" y="475.09" width="65.016" height="65.016" transform="translate(-2.319 2.208) rotate(-0.262)"/><path class="cls-2" d="M453.776,540.254l-.3-65.015-5,5,65.015-.3-5-5,.3,65.016,5-5-65.015.3c-6.434.03-6.447,10.03,0,10l65.015-.3a5.073,5.073,0,0,0,5-5l-.3-65.016a5.073,5.073,0,0,0-5-5l-65.015.3a5.071,5.071,0,0,0-5,5l.3,65.015C443.805,546.688,453.805,546.7,453.776,540.254Z"/><rect class="cls-4" x="514.971" y="406.774" width="65.016" height="65.016" transform="matrix(1, -0.005, 0.005, 1, -2.005, 2.511)"/><path class="cls-2" d="M520.12,471.938l-.3-65.015-5,5,65.015-.3-5-5,.3,65.016,5-5-65.015.3c-6.433.03-6.446,10.03,0,10l65.015-.3a5.072,5.072,0,0,0,5-5l-.3-65.016a5.072,5.072,0,0,0-5-5l-65.015.3a5.073,5.073,0,0,0-5,5l.3,65.015C510.149,478.371,520.149,478.385,520.12,471.938Z"/><rect class="cls-4" x="514.971" y="339.768" width="65.016" height="65.016" transform="matrix(1, -0.005, 0.005, 1, -1.699, 2.51)"/><path class="cls-2" d="M520.12,404.932l-.3-65.015-5,5,65.015-.3-5-5,.3,65.015,5-5-65.015.3c-6.433.03-6.446,10.03,0,10l65.015-.3a5.071,5.071,0,0,0,5-5l-.3-65.015a5.072,5.072,0,0,0-5-5l-65.015.3a5.073,5.073,0,0,0-5,5l.3,65.015C510.149,411.365,520.149,411.378,520.12,404.932Z"/><rect class="cls-1" x="448.626" y="406.774" width="65.016" height="65.016" transform="translate(-2.006 2.207) rotate(-0.262)"/><path class="cls-2" d="M453.776,471.938l-.3-65.015-5,5,65.015-.3-5-5,.3,65.016,5-5-65.015.3c-6.434.03-6.447,10.03,0,10l65.015-.3a5.073,5.073,0,0,0,5-5l-.3-65.016a5.073,5.073,0,0,0-5-5l-65.015.3a5.071,5.071,0,0,0-5,5l.3,65.015C443.805,478.371,453.805,478.385,453.776,471.938Z"/><rect class="cls-3" x="729.282" y="610.032" width="65.016" height="65.016" transform="translate(-2.934 3.495) rotate(-0.262)"/><path class="cls-2" d="M734.431,675.2l-.3-65.015-5,5,65.016-.3-5-5,.3,65.015,5-5-65.015.3c-6.433.029-6.446,10.03,0,10l65.015-.3a5.071,5.071,0,0,0,5-5l-.3-65.015a5.073,5.073,0,0,0-5-5l-65.016.3a5.073,5.073,0,0,0-5,5l.3,65.015C724.46,681.629,734.461,681.642,734.431,675.2Z"/><rect class="cls-3" x="662.938" y="610.032" width="65.016" height="65.016" transform="translate(-2.935 3.191) rotate(-0.262)"/><path class="cls-2" d="M668.087,675.2l-.3-65.015-5,5,65.015-.3-5-5,.3,65.015,5-5-65.015.3c-6.433.029-6.447,10.03,0,10l65.015-.3a5.071,5.071,0,0,0,5-5l-.3-65.015a5.071,5.071,0,0,0-5-5l-65.015.3a5.072,5.072,0,0,0-5,5l.3,65.015C658.116,681.629,668.116,681.642,668.087,675.2Z"/><rect class="cls-3" x="729.282" y="542.512" width="65.016" height="65.016" transform="translate(-2.625 3.494) rotate(-0.262)"/><path class="cls-2" d="M734.431,607.677l-.3-65.015-5,5,65.016-.3-5-5,.3,65.015,5-5-65.015.3c-6.433.029-6.446,10.029,0,10l65.015-.3a5.071,5.071,0,0,0,5-5l-.3-65.015a5.073,5.073,0,0,0-5-5l-65.016.3a5.072,5.072,0,0,0-5,5l.3,65.015C724.46,614.11,734.461,614.123,734.431,607.677Z"/><rect class="cls-3" x="662.938" y="542.512" width="65.016" height="65.016" transform="translate(-2.625 3.19) rotate(-0.262)"/><path class="cls-2" d="M668.087,607.677l-.3-65.015-5,5,65.015-.3-5-5,.3,65.015,5-5-65.015.3c-6.433.029-6.447,10.029,0,10l65.015-.3a5.072,5.072,0,0,0,5-5l-.3-65.015a5.071,5.071,0,0,0-5-5l-65.015.3a5.071,5.071,0,0,0-5,5l.3,65.015C658.116,614.11,668.116,614.123,668.087,607.677Z"/><rect class="cls-3" x="729.282" y="475.09" width="65.016" height="65.016" transform="translate(-2.316 3.493) rotate(-0.262)"/><path class="cls-2" d="M734.431,540.254l-.3-65.015-5,5,65.016-.3-5-5,.3,65.016,5-5-65.015.3c-6.433.03-6.446,10.03,0,10l65.015-.3a5.072,5.072,0,0,0,5-5l-.3-65.016a5.073,5.073,0,0,0-5-5l-65.016.3a5.073,5.073,0,0,0-5,5l.3,65.015C724.46,546.688,734.461,546.7,734.431,540.254Z"/><rect class="cls-3" x="729.282" y="406.774" width="65.016" height="65.016" transform="translate(-2.003 3.492) rotate(-0.262)"/><path class="cls-2" d="M734.431,471.938l-.3-65.015-5,5,65.016-.3-5-5,.3,65.016,5-5-65.015.3c-6.433.03-6.446,10.03,0,10l65.015-.3a5.072,5.072,0,0,0,5-5l-.3-65.016a5.073,5.073,0,0,0-5-5l-65.016.3a5.073,5.073,0,0,0-5,5l.3,65.015C724.46,478.371,734.461,478.385,734.431,471.938Z"/><rect class="cls-3" x="729.282" y="339.768" width="65.016" height="65.016" transform="translate(-1.696 3.492) rotate(-0.262)"/><path class="cls-2" d="M734.431,404.932l-.3-65.015-5,5,65.016-.3-5-5,.3,65.015,5-5-65.015.3c-6.433.03-6.446,10.03,0,10l65.015-.3a5.071,5.071,0,0,0,5-5l-.3-65.015a5.073,5.073,0,0,0-5-5l-65.016.3a5.073,5.073,0,0,0-5,5l.3,65.015C724.46,411.365,734.461,411.378,734.431,404.932Z"/><rect class="cls-3" x="662.938" y="339.768" width="65.016" height="65.016" transform="translate(-1.697 3.188) rotate(-0.262)"/><path class="cls-2" d="M668.087,404.932l-.3-65.015-5,5,65.015-.3-5-5,.3,65.015,5-5-65.015.3c-6.433.03-6.447,10.03,0,10l65.015-.3a5.071,5.071,0,0,0,5-5l-.3-65.015a5.072,5.072,0,0,0-5-5l-65.015.3a5.072,5.072,0,0,0-5,5l.3,65.015C658.116,411.365,668.116,411.378,668.087,404.932Z"/><rect class="cls-3" x="662.938" y="475.09" width="65.016" height="65.016" transform="translate(-2.317 3.189) rotate(-0.262)"/><path class="cls-2" d="M668.087,540.254l-.3-65.015-5,5,65.015-.3-5-5,.3,65.016,5-5-65.015.3c-6.433.03-6.447,10.03,0,10l65.015-.3a5.073,5.073,0,0,0,5-5l-.3-65.016a5.072,5.072,0,0,0-5-5l-65.015.3a5.072,5.072,0,0,0-5,5l.3,65.015C658.116,546.688,668.116,546.7,668.087,540.254Z"/><rect class="cls-3" x="662.938" y="406.774" width="65.016" height="65.016" transform="translate(-2.004 3.189) rotate(-0.262)"/><path class="cls-2" d="M668.087,471.938l-.3-65.015-5,5,65.015-.3-5-5,.3,65.016,5-5-65.015.3c-6.433.03-6.447,10.03,0,10l65.015-.3a5.073,5.073,0,0,0,5-5l-.3-65.016a5.072,5.072,0,0,0-5-5l-65.015.3a5.072,5.072,0,0,0-5,5l.3,65.015C658.116,478.371,668.116,478.385,668.087,471.938Z"/><text class="cls-5" transform="translate(41.717 219.955)">HTML</text><text class="cls-5" transform="translate(264.099 285.444)">CSS</text><text class="cls-5" transform="translate(461.928 285.444)">SCSS</text><text class="cls-5" transform="translate(711.649 285.444)">JS</text><rect class="cls-1" x="1142.2" y="610.032" width="65.016" height="65.016" transform="translate(-2.929 5.385) rotate(-0.262)"/><path class="cls-2" d="M1147.349,675.2l-.3-65.015-5,5,65.016-.3-5-5,.3,65.015,5-5-65.015.3c-6.433.029-6.446,10.03,0,10l65.015-.3a5.071,5.071,0,0,0,5-5l-.3-65.015a5.073,5.073,0,0,0-5-5l-65.016.3a5.073,5.073,0,0,0-5,5l.3,65.015C1137.379,681.629,1147.379,681.642,1147.349,675.2Z"/><rect class="cls-1" x="1075.856" y="610.032" width="65.016" height="65.016" transform="translate(-2.93 5.081) rotate(-0.262)"/><path class="cls-2" d="M1081.005,675.2l-.3-65.015-5,5,65.015-.3-5-5,.3,65.015,5-5-65.015.3c-6.433.029-6.446,10.03,0,10l65.015-.3a5.071,5.071,0,0,0,5-5l-.3-65.015a5.071,5.071,0,0,0-5-5l-65.015.3a5.073,5.073,0,0,0-5,5l.3,65.015C1071.034,681.629,1081.034,681.642,1081.005,675.2Z"/><rect class="cls-4" x="1142.2" y="542.512" width="65.016" height="65.016" transform="translate(-2.62 5.384) rotate(-0.262)"/><path class="cls-2" d="M1147.349,607.677l-.3-65.015-5,5,65.016-.3-5-5,.3,65.015,5-5-65.015.3c-6.433.029-6.446,10.029,0,10l65.015-.3a5.071,5.071,0,0,0,5-5l-.3-65.015a5.073,5.073,0,0,0-5-5l-65.016.3a5.072,5.072,0,0,0-5,5l.3,65.015C1137.379,614.11,1147.379,614.123,1147.349,607.677Z"/><rect class="cls-4" x="1075.856" y="542.512" width="65.016" height="65.016" transform="translate(-2.621 5.081) rotate(-0.262)"/><path class="cls-2" d="M1081.005,607.677l-.3-65.015-5,5,65.015-.3-5-5,.3,65.015,5-5-65.015.3c-6.433.029-6.446,10.029,0,10l65.015-.3a5.071,5.071,0,0,0,5-5l-.3-65.015a5.071,5.071,0,0,0-5-5l-65.015.3a5.072,5.072,0,0,0-5,5l.3,65.015C1071.034,614.11,1081.034,614.123,1081.005,607.677Z"/><rect class="cls-4" x="1142.2" y="475.09" width="65.016" height="65.016" transform="translate(-2.312 5.384) rotate(-0.262)"/><path class="cls-2" d="M1147.349,540.254l-.3-65.015-5,5,65.016-.3-5-5,.3,65.016,5-5-65.015.3c-6.433.03-6.446,10.03,0,10l65.015-.3a5.072,5.072,0,0,0,5-5l-.3-65.016a5.073,5.073,0,0,0-5-5l-65.016.3a5.073,5.073,0,0,0-5,5l.3,65.015C1137.379,546.688,1147.379,546.7,1147.349,540.254Z"/><rect class="cls-4" x="1075.856" y="475.09" width="65.016" height="65.016" transform="translate(-2.312 5.08) rotate(-0.262)"/><path class="cls-2" d="M1081.005,540.254l-.3-65.015-5,5,65.015-.3-5-5,.3,65.016,5-5-65.015.3c-6.433.03-6.446,10.03,0,10l65.015-.3a5.072,5.072,0,0,0,5-5l-.3-65.016a5.072,5.072,0,0,0-5-5l-65.015.3a5.073,5.073,0,0,0-5,5l.3,65.015C1071.034,546.688,1081.034,546.7,1081.005,540.254Z"/><text class="cls-5" transform="translate(1010.117 406.86)">BOOTSTRAP</text><rect class="cls-3" x="937.103" y="610.032" width="65.016" height="65.016" transform="translate(-2.932 4.446) rotate(-0.262)"/><path class="cls-2" d="M942.252,675.2l-.3-65.015-5,5,65.016-.3-5-5,.3,65.015,5-5-65.015.3c-6.433.029-6.446,10.03,0,10l65.015-.3a5.071,5.071,0,0,0,5-5l-.3-65.015a5.073,5.073,0,0,0-5-5l-65.016.3a5.073,5.073,0,0,0-5,5l.3,65.015C932.281,681.629,942.281,681.642,942.252,675.2Z"/><rect class="cls-6" x="870.123" y="610.032" width="65.016" height="65.016" transform="translate(-2.932 4.139) rotate(-0.262)"/><path class="cls-2" d="M875.273,675.2l-.3-65.015-5,5,65.015-.3-5-5,.3,65.015,5-5-65.015.3c-6.433.029-6.447,10.03,0,10l65.015-.3a5.071,5.071,0,0,0,5-5l-.3-65.015a5.072,5.072,0,0,0-5-5l-65.015.3a5.072,5.072,0,0,0-5,5l.3,65.015C865.3,681.629,875.3,681.642,875.273,675.2Z"/><rect class="cls-6" x="937.103" y="542.512" width="65.016" height="65.016" transform="translate(-2.623 4.445) rotate(-0.262)"/><path class="cls-2" d="M942.252,607.677l-.3-65.015-5,5,65.016-.3-5-5,.3,65.015,5-5-65.015.3c-6.433.029-6.446,10.029,0,10l65.015-.3a5.071,5.071,0,0,0,5-5l-.3-65.015a5.073,5.073,0,0,0-5-5l-65.016.3a5.072,5.072,0,0,0-5,5l.3,65.015C932.281,614.11,942.281,614.123,942.252,607.677Z"/><rect class="cls-6" x="870.123" y="542.512" width="65.016" height="65.016" transform="translate(-2.623 4.139) rotate(-0.262)"/><path class="cls-2" d="M875.273,607.677l-.3-65.015-5,5,65.015-.3-5-5,.3,65.015,5-5-65.015.3c-6.433.029-6.447,10.029,0,10l65.015-.3a5.072,5.072,0,0,0,5-5l-.3-65.015a5.072,5.072,0,0,0-5-5l-65.015.3a5.071,5.071,0,0,0-5,5l.3,65.015C865.3,614.11,875.3,614.123,875.273,607.677Z"/><rect class="cls-1" x="937.103" y="475.09" width="65.016" height="65.016" transform="translate(-2.314 4.445) rotate(-0.262)"/><path class="cls-2" d="M942.252,540.254l-.3-65.015-5,5,65.016-.3-5-5,.3,65.016,5-5-65.015.3c-6.433.03-6.446,10.03,0,10l65.015-.3a5.072,5.072,0,0,0,5-5l-.3-65.016a5.073,5.073,0,0,0-5-5l-65.016.3a5.073,5.073,0,0,0-5,5l.3,65.015C932.281,546.688,942.281,546.7,942.252,540.254Z"/><rect class="cls-1" x="937.103" y="406.774" width="65.016" height="65.016" transform="translate(-2.001 4.444) rotate(-0.262)"/><path class="cls-2" d="M942.252,471.938l-.3-65.015-5,5,65.016-.3-5-5,.3,65.016,5-5-65.015.3c-6.433.03-6.446,10.03,0,10l65.015-.3a5.072,5.072,0,0,0,5-5l-.3-65.016a5.073,5.073,0,0,0-5-5l-65.016.3a5.073,5.073,0,0,0-5,5l.3,65.015C932.281,478.371,942.281,478.385,942.252,471.938Z"/><rect class="cls-1" x="937.103" y="339.768" width="65.016" height="65.016" transform="translate(-1.694 4.443) rotate(-0.262)"/><path class="cls-2" d="M942.252,404.932l-.3-65.015-5,5,65.016-.3-5-5,.3,65.015,5-5-65.015.3c-6.433.03-6.446,10.03,0,10l65.015-.3a5.071,5.071,0,0,0,5-5l-.3-65.015a5.073,5.073,0,0,0-5-5l-65.016.3a5.073,5.073,0,0,0-5,5l.3,65.015C932.281,411.365,942.281,411.378,942.252,404.932Z"/><rect class="cls-1" x="870.123" y="406.774" width="65.016" height="65.016" transform="translate(-2.002 4.137) rotate(-0.262)"/><path class="cls-2" d="M875.273,471.938l-.3-65.015-5,5,65.015-.3-5-5,.3,65.016,5-5-65.015.3c-6.433.03-6.447,10.03,0,10l65.015-.3a5.073,5.073,0,0,0,5-5l-.3-65.016a5.073,5.073,0,0,0-5-5l-65.015.3a5.072,5.072,0,0,0-5,5l.3,65.015C865.3,478.371,875.3,478.385,875.273,471.938Z"/><rect class="cls-6" x="870.123" y="475.09" width="65.016" height="65.016" transform="translate(-2.315 4.138) rotate(-0.262)"/><path class="cls-2" d="M875.273,540.254l-.3-65.015-5,5,65.015-.3-5-5,.3,65.016,5-5-65.015.3c-6.433.03-6.447,10.03,0,10l65.015-.3a5.073,5.073,0,0,0,5-5l-.3-65.016a5.073,5.073,0,0,0-5-5l-65.015.3a5.072,5.072,0,0,0-5,5l.3,65.015C865.3,546.688,875.3,546.7,875.273,540.254Z"/><text class="cls-5" transform="translate(867.323 285.444)">REACT</text></g></svg>