<svg xmlns="http://www.w3.org/2000/svg" viewBox="0 0 1552 1100"><defs><style>.cls-1{fill:#070707;}.cls-15,.cls-2,.cls-3,.cls-4,.cls-5,.cls-6{font-size:35px;}.cls-2,.cls-8{fill:#f2d378;}.cls-15,.cls-17,.cls-2,.cls-3,.cls-4,.cls-5,.cls-6{font-family:OpenSans-Light, Open Sans;font-weight:300;}.cls-10,.cls-3{fill:#61acf2;}.cls-11,.cls-4{fill:#e4f291;}.cls-13,.cls-5{fill:#e575ac;}.cls-12,.cls-6{fill:#fba375;}.cls-7{fill:none;stroke:#fff;stroke-miterlimit:10;}.cls-9{fill:#231f20;}.cls-14,.cls-15{fill:#a978fc;}.cls-16{fill:#efcf47;}.cls-17{font-size:43px;fill:#fff;letter-spacing:0.01em;}</style></defs><title>graphic skills</title><g id="Layer_1" data-name="Layer 1"><rect class="cls-1" x="0.5" y="0.5" width="1551" height="1100"/><path d="M1551,1V1100H1V1H1551m1-1H0V1101H1552V0Z"/><text class="cls-2" transform="translate(464.305 974.653)">FIGMA</text><text class="cls-3" transform="translate(678.494 974.653)">XD</text><text class="cls-4" transform="translate(866.331 974.653)">AE</text><text class="cls-5" transform="translate(1235.348 974.653)">PS</text><text class="cls-6" transform="translate(1020.937 974.653)">AXURE</text><line class="cls-7" x1="1412.5" y1="926.5" x2="132.5" y2="926.5"/><rect class="cls-8" x="419.182" y="859.521" width="61.57" height="61.57"/><path class="cls-9" d="M480.752,918.091h-61.57l3,3v-61.57l-3,3h61.57l-3-3v61.57c0,3.861,6,3.867,6,0v-61.57a3.044,3.044,0,0,0-3-3h-61.57a3.044,3.044,0,0,0-3,3v61.57a3.043,3.043,0,0,0,3,3h61.57C484.612,924.091,484.619,918.091,480.752,918.091Z"/><rect class="cls-8" x="480.909" y="859.521" width="61.57" height="61.57"/><path class="cls-9" d="M542.479,918.091h-61.57l3,3v-61.57l-3,3h61.57l-3-3v61.57c0,3.861,6,3.867,6,0v-61.57a3.043,3.043,0,0,0-3-3h-61.57a3.044,3.044,0,0,0-3,3v61.57a3.044,3.044,0,0,0,3,3h61.57C546.34,924.091,546.346,918.091,542.479,918.091Z"/><rect class="cls-8" x="542.637" y="859.521" width="61.57" height="61.57"/><path class="cls-9" d="M604.206,918.091H542.637l3,3v-61.57l-3,3h61.569l-3-3v61.57c0,3.861,6,3.867,6,0v-61.57a3.043,3.043,0,0,0-3-3H542.637a3.044,3.044,0,0,0-3,3v61.57a3.043,3.043,0,0,0,3,3h61.569C608.067,924.091,608.073,918.091,604.206,918.091Z"/><rect class="cls-10" x="604.364" y="859.521" width="61.57" height="61.57"/><path class="cls-9" d="M665.934,918.091h-61.57l3,3v-61.57l-3,3h61.57l-3-3v61.57c0,3.861,6,3.867,6,0v-61.57a3.044,3.044,0,0,0-3-3h-61.57a3.044,3.044,0,0,0-3,3v61.57a3.043,3.043,0,0,0,3,3h61.57C669.794,924.091,669.8,918.091,665.934,918.091Z"/><rect class="cls-10" x="666.091" y="859.521" width="61.57" height="61.57"/><path class="cls-9" d="M727.661,918.091h-61.57l3,3v-61.57l-3,3h61.57l-3-3v61.57c0,3.861,6,3.867,6,0v-61.57a3.044,3.044,0,0,0-3-3h-61.57a3.044,3.044,0,0,0-3,3v61.57a3.044,3.044,0,0,0,3,3h61.57C731.522,924.091,731.528,918.091,727.661,918.091Z"/><rect class="cls-10" x="727.818" y="859.521" width="61.57" height="61.57"/><path class="cls-9" d="M789.388,918.091h-61.57l3,3v-61.57l-3,3h61.57l-3-3v61.57c0,3.861,6,3.867,6,0v-61.57a3.043,3.043,0,0,0-3-3h-61.57a3.044,3.044,0,0,0-3,3v61.57a3.044,3.044,0,0,0,3,3h61.57C793.249,924.091,793.255,918.091,789.388,918.091Z"/><rect class="cls-11" x="789.546" y="859.521" width="61.57" height="61.57"/><path class="cls-9" d="M851.116,918.091h-61.57l3,3v-61.57l-3,3h61.57l-3-3v61.57c0,3.861,6,3.867,6,0v-61.57a3.044,3.044,0,0,0-3-3h-61.57a3.044,3.044,0,0,0-3,3v61.57a3.043,3.043,0,0,0,3,3h61.57C854.976,924.091,854.983,918.091,851.116,918.091Z"/><rect class="cls-11" x="851.273" y="859.521" width="61.57" height="61.57"/><path class="cls-9" d="M912.843,918.091h-61.57l3,3v-61.57l-3,3h61.57l-3-3v61.57c0,3.861,6,3.867,6,0v-61.57a3.044,3.044,0,0,0-3-3h-61.57a3.044,3.044,0,0,0-3,3v61.57a3.044,3.044,0,0,0,3,3h61.57C916.7,924.091,916.71,918.091,912.843,918.091Z"/><rect class="cls-11" x="913" y="859.521" width="61.57" height="61.57"/><path class="cls-9" d="M974.57,918.091H913l3,3v-61.57l-3,3h61.57l-3-3v61.57c0,3.861,6,3.867,6,0v-61.57a3.043,3.043,0,0,0-3-3H913a3.044,3.044,0,0,0-3,3v61.57a3.044,3.044,0,0,0,3,3h61.57C978.431,924.091,978.437,918.091,974.57,918.091Z"/><rect class="cls-12" x="974.728" y="859.521" width="61.57" height="61.57"/><path class="cls-9" d="M1036.3,918.091H974.728l3,3v-61.57l-3,3H1036.3l-3-3v61.57c0,3.861,6,3.867,6,0v-61.57a3.043,3.043,0,0,0-3-3H974.728a3.044,3.044,0,0,0-3,3v61.57a3.043,3.043,0,0,0,3,3H1036.3C1040.158,924.091,1040.165,918.091,1036.3,918.091Z"/><rect class="cls-12" x="1036.455" y="859.521" width="61.57" height="61.57"/><path class="cls-9" d="M1098.025,918.091h-61.57l3,3v-61.57l-3,3h61.57l-3-3v61.57c0,3.861,6,3.867,6,0v-61.57a3.044,3.044,0,0,0-3-3h-61.57a3.044,3.044,0,0,0-3,3v61.57a3.043,3.043,0,0,0,3,3h61.57C1101.885,924.091,1101.892,918.091,1098.025,918.091Z"/><rect class="cls-12" x="1098.182" y="859.521" width="61.57" height="61.57"/><path class="cls-9" d="M1159.752,918.091h-61.57l3,3v-61.57l-3,3h61.57l-3-3v61.57c0,3.861,6,3.867,6,0v-61.57a3.043,3.043,0,0,0-3-3h-61.57a3.044,3.044,0,0,0-3,3v61.57a3.044,3.044,0,0,0,3,3h61.57C1163.613,924.091,1163.619,918.091,1159.752,918.091Z"/><rect class="cls-13" x="1159.91" y="859.521" width="61.57" height="61.57"/><path class="cls-9" d="M1221.479,918.091H1159.91l3,3v-61.57l-3,3h61.569l-3-3v61.57c0,3.861,6,3.867,6,0v-61.57a3.043,3.043,0,0,0-3-3H1159.91a3.044,3.044,0,0,0-3,3v61.57a3.043,3.043,0,0,0,3,3h61.569C1225.34,924.091,1225.346,918.091,1221.479,918.091Z"/><rect class="cls-13" x="1221.637" y="859.521" width="61.57" height="61.57"/><path class="cls-9" d="M1283.207,918.091h-61.57l3,3v-61.57l-3,3h61.57l-3-3v61.57c0,3.861,6,3.867,6,0v-61.57a3.044,3.044,0,0,0-3-3h-61.57a3.044,3.044,0,0,0-3,3v61.57a3.043,3.043,0,0,0,3,3h61.57C1287.067,924.091,1287.074,918.091,1283.207,918.091Z"/><rect class="cls-8" x="419.182" y="799.558" width="61.57" height="61.57"/><path class="cls-9" d="M480.752,858.127h-61.57l3,3V799.558l-3,3h61.57l-3-3v61.569c0,3.861,6,3.867,6,0V799.558a3.044,3.044,0,0,0-3-3h-61.57a3.043,3.043,0,0,0-3,3v61.569a3.043,3.043,0,0,0,3,3h61.57C484.612,864.127,484.619,858.127,480.752,858.127Z"/><rect class="cls-8" x="480.909" y="799.558" width="61.57" height="61.57"/><path class="cls-9" d="M542.479,858.127h-61.57l3,3V799.558l-3,3h61.57l-3-3v61.569c0,3.861,6,3.867,6,0V799.558a3.043,3.043,0,0,0-3-3h-61.57a3.043,3.043,0,0,0-3,3v61.569a3.044,3.044,0,0,0,3,3h61.57C546.34,864.127,546.346,858.127,542.479,858.127Z"/><rect class="cls-8" x="542.637" y="799.558" width="61.57" height="61.57"/><path class="cls-9" d="M604.206,858.127H542.637l3,3V799.558l-3,3h61.569l-3-3v61.569c0,3.861,6,3.867,6,0V799.558a3.043,3.043,0,0,0-3-3H542.637a3.043,3.043,0,0,0-3,3v61.569a3.043,3.043,0,0,0,3,3h61.569C608.067,864.127,608.073,858.127,604.206,858.127Z"/><rect class="cls-10" x="604.364" y="799.558" width="61.57" height="61.57"/><path class="cls-9" d="M665.934,858.127h-61.57l3,3V799.558l-3,3h61.57l-3-3v61.569c0,3.861,6,3.867,6,0V799.558a3.044,3.044,0,0,0-3-3h-61.57a3.043,3.043,0,0,0-3,3v61.569a3.043,3.043,0,0,0,3,3h61.57C669.794,864.127,669.8,858.127,665.934,858.127Z"/><rect class="cls-10" x="666.091" y="799.558" width="61.57" height="61.57"/><path class="cls-9" d="M727.661,858.127h-61.57l3,3V799.558l-3,3h61.57l-3-3v61.569c0,3.861,6,3.867,6,0V799.558a3.044,3.044,0,0,0-3-3h-61.57a3.043,3.043,0,0,0-3,3v61.569a3.044,3.044,0,0,0,3,3h61.57C731.522,864.127,731.528,858.127,727.661,858.127Z"/><rect class="cls-10" x="727.818" y="799.558" width="61.57" height="61.57"/><path class="cls-9" d="M789.388,858.127h-61.57l3,3V799.558l-3,3h61.57l-3-3v61.569c0,3.861,6,3.867,6,0V799.558a3.043,3.043,0,0,0-3-3h-61.57a3.044,3.044,0,0,0-3,3v61.569a3.044,3.044,0,0,0,3,3h61.57C793.249,864.127,793.255,858.127,789.388,858.127Z"/><rect class="cls-11" x="789.546" y="799.558" width="61.57" height="61.57"/><path class="cls-9" d="M851.116,858.127h-61.57l3,3V799.558l-3,3h61.57l-3-3v61.569c0,3.861,6,3.867,6,0V799.558a3.044,3.044,0,0,0-3-3h-61.57a3.043,3.043,0,0,0-3,3v61.569a3.043,3.043,0,0,0,3,3h61.57C854.976,864.127,854.983,858.127,851.116,858.127Z"/><rect class="cls-11" x="851.273" y="799.558" width="61.57" height="61.57"/><path class="cls-9" d="M912.843,858.127h-61.57l3,3V799.558l-3,3h61.57l-3-3v61.569c0,3.861,6,3.867,6,0V799.558a3.044,3.044,0,0,0-3-3h-61.57a3.043,3.043,0,0,0-3,3v61.569a3.044,3.044,0,0,0,3,3h61.57C916.7,864.127,916.71,858.127,912.843,858.127Z"/><rect class="cls-11" x="913" y="799.558" width="61.57" height="61.57"/><path class="cls-9" d="M974.57,858.127H913l3,3V799.558l-3,3h61.57l-3-3v61.569c0,3.861,6,3.867,6,0V799.558a3.043,3.043,0,0,0-3-3H913a3.044,3.044,0,0,0-3,3v61.569a3.044,3.044,0,0,0,3,3h61.57C978.431,864.127,978.437,858.127,974.57,858.127Z"/><rect class="cls-12" x="974.728" y="799.558" width="61.57" height="61.57"/><path class="cls-9" d="M1036.3,858.127H974.728l3,3V799.558l-3,3H1036.3l-3-3v61.569c0,3.861,6,3.867,6,0V799.558a3.043,3.043,0,0,0-3-3H974.728a3.043,3.043,0,0,0-3,3v61.569a3.043,3.043,0,0,0,3,3H1036.3C1040.158,864.127,1040.165,858.127,1036.3,858.127Z"/><rect class="cls-12" x="1036.455" y="799.558" width="61.57" height="61.57"/><path class="cls-9" d="M1098.025,858.127h-61.57l3,3V799.558l-3,3h61.57l-3-3v61.569c0,3.861,6,3.867,6,0V799.558a3.044,3.044,0,0,0-3-3h-61.57a3.043,3.043,0,0,0-3,3v61.569a3.043,3.043,0,0,0,3,3h61.57C1101.885,864.127,1101.892,858.127,1098.025,858.127Z"/><rect class="cls-12" x="1098.182" y="799.558" width="61.57" height="61.57"/><path class="cls-9" d="M1159.752,858.127h-61.57l3,3V799.558l-3,3h61.57l-3-3v61.569c0,3.861,6,3.867,6,0V799.558a3.043,3.043,0,0,0-3-3h-61.57a3.044,3.044,0,0,0-3,3v61.569a3.044,3.044,0,0,0,3,3h61.57C1163.613,864.127,1163.619,858.127,1159.752,858.127Z"/><rect class="cls-13" x="1159.91" y="799.558" width="61.57" height="61.57"/><path class="cls-9" d="M1221.479,858.127H1159.91l3,3V799.558l-3,3h61.569l-3-3v61.569c0,3.861,6,3.867,6,0V799.558a3.043,3.043,0,0,0-3-3H1159.91a3.043,3.043,0,0,0-3,3v61.569a3.043,3.043,0,0,0,3,3h61.569C1225.34,864.127,1225.346,858.127,1221.479,858.127Z"/><rect class="cls-13" x="1221.637" y="799.558" width="61.57" height="61.57"/><path class="cls-9" d="M1283.207,858.127h-61.57l3,3V799.558l-3,3h61.57l-3-3v61.569c0,3.861,6,3.867,6,0V799.558a3.044,3.044,0,0,0-3-3h-61.57a3.043,3.043,0,0,0-3,3v61.569a3.043,3.043,0,0,0,3,3h61.57C1287.067,864.127,1287.074,858.127,1283.207,858.127Z"/><rect class="cls-8" x="419.182" y="739.594" width="61.57" height="61.57"/><path class="cls-9" d="M480.752,798.164h-61.57l3,3v-61.57l-3,3h61.57l-3-3v61.57c0,3.86,6,3.867,6,0v-61.57a3.044,3.044,0,0,0-3-3h-61.57a3.043,3.043,0,0,0-3,3v61.57a3.044,3.044,0,0,0,3,3h61.57C484.612,804.164,484.619,798.164,480.752,798.164Z"/><rect class="cls-8" x="480.909" y="739.594" width="61.57" height="61.57"/><path class="cls-9" d="M542.479,798.164h-61.57l3,3v-61.57l-3,3h61.57l-3-3v61.57c0,3.86,6,3.867,6,0v-61.57a3.043,3.043,0,0,0-3-3h-61.57a3.043,3.043,0,0,0-3,3v61.57a3.044,3.044,0,0,0,3,3h61.57C546.34,804.164,546.346,798.164,542.479,798.164Z"/><rect class="cls-8" x="542.637" y="739.594" width="61.57" height="61.57"/><path class="cls-9" d="M604.206,798.164H542.637l3,3v-61.57l-3,3h61.569l-3-3v61.57c0,3.86,6,3.867,6,0v-61.57a3.043,3.043,0,0,0-3-3H542.637a3.043,3.043,0,0,0-3,3v61.57a3.044,3.044,0,0,0,3,3h61.569C608.067,804.164,608.073,798.164,604.206,798.164Z"/><rect class="cls-10" x="604.364" y="739.594" width="61.57" height="61.57"/><path class="cls-9" d="M665.934,798.164h-61.57l3,3v-61.57l-3,3h61.57l-3-3v61.57c0,3.86,6,3.867,6,0v-61.57a3.044,3.044,0,0,0-3-3h-61.57a3.043,3.043,0,0,0-3,3v61.57a3.044,3.044,0,0,0,3,3h61.57C669.794,804.164,669.8,798.164,665.934,798.164Z"/><rect class="cls-10" x="666.091" y="739.594" width="61.57" height="61.57"/><path class="cls-9" d="M727.661,798.164h-61.57l3,3v-61.57l-3,3h61.57l-3-3v61.57c0,3.86,6,3.867,6,0v-61.57a3.044,3.044,0,0,0-3-3h-61.57a3.043,3.043,0,0,0-3,3v61.57a3.044,3.044,0,0,0,3,3h61.57C731.522,804.164,731.528,798.164,727.661,798.164Z"/><rect class="cls-10" x="727.818" y="739.594" width="61.57" height="61.57"/><path class="cls-9" d="M789.388,798.164h-61.57l3,3v-61.57l-3,3h61.57l-3-3v61.57c0,3.86,6,3.867,6,0v-61.57a3.043,3.043,0,0,0-3-3h-61.57a3.044,3.044,0,0,0-3,3v61.57a3.044,3.044,0,0,0,3,3h61.57C793.249,804.164,793.255,798.164,789.388,798.164Z"/><rect class="cls-11" x="789.546" y="739.594" width="61.57" height="61.57"/><path class="cls-9" d="M851.116,798.164h-61.57l3,3v-61.57l-3,3h61.57l-3-3v61.57c0,3.86,6,3.867,6,0v-61.57a3.044,3.044,0,0,0-3-3h-61.57a3.043,3.043,0,0,0-3,3v61.57a3.044,3.044,0,0,0,3,3h61.57C854.976,804.164,854.983,798.164,851.116,798.164Z"/><rect class="cls-11" x="851.273" y="739.594" width="61.57" height="61.57"/><path class="cls-9" d="M912.843,798.164h-61.57l3,3v-61.57l-3,3h61.57l-3-3v61.57c0,3.86,6,3.867,6,0v-61.57a3.044,3.044,0,0,0-3-3h-61.57a3.043,3.043,0,0,0-3,3v61.57a3.044,3.044,0,0,0,3,3h61.57C916.7,804.164,916.71,798.164,912.843,798.164Z"/><rect class="cls-11" x="913" y="739.594" width="61.57" height="61.57"/><path class="cls-9" d="M974.57,798.164H913l3,3v-61.57l-3,3h61.57l-3-3v61.57c0,3.86,6,3.867,6,0v-61.57a3.043,3.043,0,0,0-3-3H913a3.044,3.044,0,0,0-3,3v61.57a3.044,3.044,0,0,0,3,3h61.57C978.431,804.164,978.437,798.164,974.57,798.164Z"/><rect class="cls-12" x="974.728" y="739.594" width="61.57" height="61.57"/><path class="cls-9" d="M1036.3,798.164H974.728l3,3v-61.57l-3,3H1036.3l-3-3v61.57c0,3.86,6,3.867,6,0v-61.57a3.043,3.043,0,0,0-3-3H974.728a3.043,3.043,0,0,0-3,3v61.57a3.044,3.044,0,0,0,3,3H1036.3C1040.158,804.164,1040.165,798.164,1036.3,798.164Z"/><rect class="cls-12" x="1036.455" y="739.594" width="61.57" height="61.57"/><path class="cls-9" d="M1098.025,798.164h-61.57l3,3v-61.57l-3,3h61.57l-3-3v61.57c0,3.86,6,3.867,6,0v-61.57a3.044,3.044,0,0,0-3-3h-61.57a3.043,3.043,0,0,0-3,3v61.57a3.044,3.044,0,0,0,3,3h61.57C1101.885,804.164,1101.892,798.164,1098.025,798.164Z"/><rect class="cls-12" x="1098.182" y="739.594" width="61.57" height="61.57"/><path class="cls-9" d="M1159.752,798.164h-61.57l3,3v-61.57l-3,3h61.57l-3-3v61.57c0,3.86,6,3.867,6,0v-61.57a3.043,3.043,0,0,0-3-3h-61.57a3.044,3.044,0,0,0-3,3v61.57a3.044,3.044,0,0,0,3,3h61.57C1163.613,804.164,1163.619,798.164,1159.752,798.164Z"/><rect class="cls-13" x="1159.91" y="739.594" width="61.57" height="61.57"/><path class="cls-9" d="M1221.479,798.164H1159.91l3,3v-61.57l-3,3h61.569l-3-3v61.57c0,3.86,6,3.867,6,0v-61.57a3.043,3.043,0,0,0-3-3H1159.91a3.043,3.043,0,0,0-3,3v61.57a3.044,3.044,0,0,0,3,3h61.569C1225.34,804.164,1225.346,798.164,1221.479,798.164Z"/><rect class="cls-13" x="1221.637" y="739.594" width="61.57" height="61.57"/><path class="cls-9" d="M1283.207,798.164h-61.57l3,3v-61.57l-3,3h61.57l-3-3v61.57c0,3.86,6,3.867,6,0v-61.57a3.044,3.044,0,0,0-3-3h-61.57a3.043,3.043,0,0,0-3,3v61.57a3.044,3.044,0,0,0,3,3h61.57C1287.067,804.164,1287.074,798.164,1283.207,798.164Z"/><rect class="cls-8" x="419.182" y="679.63" width="61.57" height="61.57"/><path class="cls-9" d="M480.752,738.2h-61.57l3,3V679.63l-3,3h61.57l-3-3V741.2c0,3.861,6,3.867,6,0V679.63a3.044,3.044,0,0,0-3-3h-61.57a3.044,3.044,0,0,0-3,3V741.2a3.043,3.043,0,0,0,3,3h61.57C484.612,744.2,484.619,738.2,480.752,738.2Z"/><rect class="cls-8" x="480.909" y="679.63" width="61.57" height="61.57"/><path class="cls-9" d="M542.479,738.2h-61.57l3,3V679.63l-3,3h61.57l-3-3V741.2c0,3.861,6,3.867,6,0V679.63a3.043,3.043,0,0,0-3-3h-61.57a3.044,3.044,0,0,0-3,3V741.2a3.044,3.044,0,0,0,3,3h61.57C546.34,744.2,546.346,738.2,542.479,738.2Z"/><rect class="cls-8" x="542.637" y="679.63" width="61.57" height="61.57"/><path class="cls-9" d="M604.206,738.2H542.637l3,3V679.63l-3,3h61.569l-3-3V741.2c0,3.861,6,3.867,6,0V679.63a3.043,3.043,0,0,0-3-3H542.637a3.044,3.044,0,0,0-3,3V741.2a3.043,3.043,0,0,0,3,3h61.569C608.067,744.2,608.073,738.2,604.206,738.2Z"/><rect class="cls-10" x="604.364" y="679.63" width="61.57" height="61.57"/><path class="cls-9" d="M665.934,738.2h-61.57l3,3V679.63l-3,3h61.57l-3-3V741.2c0,3.861,6,3.867,6,0V679.63a3.044,3.044,0,0,0-3-3h-61.57a3.044,3.044,0,0,0-3,3V741.2a3.043,3.043,0,0,0,3,3h61.57C669.794,744.2,669.8,738.2,665.934,738.2Z"/><rect class="cls-10" x="666.091" y="679.63" width="61.57" height="61.57"/><path class="cls-9" d="M727.661,738.2h-61.57l3,3V679.63l-3,3h61.57l-3-3V741.2c0,3.861,6,3.867,6,0V679.63a3.044,3.044,0,0,0-3-3h-61.57a3.044,3.044,0,0,0-3,3V741.2a3.044,3.044,0,0,0,3,3h61.57C731.522,744.2,731.528,738.2,727.661,738.2Z"/><rect class="cls-10" x="727.818" y="679.63" width="61.57" height="61.57"/><path class="cls-9" d="M789.388,738.2h-61.57l3,3V679.63l-3,3h61.57l-3-3V741.2c0,3.861,6,3.867,6,0V679.63a3.043,3.043,0,0,0-3-3h-61.57a3.044,3.044,0,0,0-3,3V741.2a3.044,3.044,0,0,0,3,3h61.57C793.249,744.2,793.255,738.2,789.388,738.2Z"/><rect class="cls-11" x="789.546" y="679.63" width="61.57" height="61.57"/><path class="cls-9" d="M851.116,738.2h-61.57l3,3V679.63l-3,3h61.57l-3-3V741.2c0,3.861,6,3.867,6,0V679.63a3.044,3.044,0,0,0-3-3h-61.57a3.044,3.044,0,0,0-3,3V741.2a3.043,3.043,0,0,0,3,3h61.57C854.976,744.2,854.983,738.2,851.116,738.2Z"/><rect class="cls-11" x="851.273" y="679.63" width="61.57" height="61.57"/><path class="cls-9" d="M912.843,738.2h-61.57l3,3V679.63l-3,3h61.57l-3-3V741.2c0,3.861,6,3.867,6,0V679.63a3.044,3.044,0,0,0-3-3h-61.57a3.044,3.044,0,0,0-3,3V741.2a3.044,3.044,0,0,0,3,3h61.57C916.7,744.2,916.71,738.2,912.843,738.2Z"/><rect class="cls-11" x="913" y="679.63" width="61.57" height="61.57"/><path class="cls-9" d="M974.57,738.2H913l3,3V679.63l-3,3h61.57l-3-3V741.2c0,3.861,6,3.867,6,0V679.63a3.043,3.043,0,0,0-3-3H913a3.044,3.044,0,0,0-3,3V741.2a3.044,3.044,0,0,0,3,3h61.57C978.431,744.2,978.437,738.2,974.57,738.2Z"/><rect class="cls-12" x="974.728" y="679.63" width="61.57" height="61.57"/><path class="cls-9" d="M1036.3,738.2H974.728l3,3V679.63l-3,3H1036.3l-3-3V741.2c0,3.861,6,3.867,6,0V679.63a3.043,3.043,0,0,0-3-3H974.728a3.044,3.044,0,0,0-3,3V741.2a3.043,3.043,0,0,0,3,3H1036.3C1040.158,744.2,1040.165,738.2,1036.3,738.2Z"/><rect class="cls-12" x="1036.455" y="679.63" width="61.57" height="61.57"/><path class="cls-9" d="M1098.025,738.2h-61.57l3,3V679.63l-3,3h61.57l-3-3V741.2c0,3.861,6,3.867,6,0V679.63a3.044,3.044,0,0,0-3-3h-61.57a3.044,3.044,0,0,0-3,3V741.2a3.043,3.043,0,0,0,3,3h61.57C1101.885,744.2,1101.892,738.2,1098.025,738.2Z"/><rect class="cls-12" x="1098.182" y="679.63" width="61.57" height="61.57"/><path class="cls-9" d="M1159.752,738.2h-61.57l3,3V679.63l-3,3h61.57l-3-3V741.2c0,3.861,6,3.867,6,0V679.63a3.043,3.043,0,0,0-3-3h-61.57a3.044,3.044,0,0,0-3,3V741.2a3.044,3.044,0,0,0,3,3h61.57C1163.613,744.2,1163.619,738.2,1159.752,738.2Z"/><rect class="cls-13" x="1159.91" y="679.63" width="61.57" height="61.57"/><path class="cls-9" d="M1221.479,738.2H1159.91l3,3V679.63l-3,3h61.569l-3-3V741.2c0,3.861,6,3.867,6,0V679.63a3.043,3.043,0,0,0-3-3H1159.91a3.044,3.044,0,0,0-3,3V741.2a3.043,3.043,0,0,0,3,3h61.569C1225.34,744.2,1225.346,738.2,1221.479,738.2Z"/><rect class="cls-13" x="1221.637" y="679.63" width="61.57" height="61.57"/><path class="cls-9" d="M1283.207,738.2h-61.57l3,3V679.63l-3,3h61.57l-3-3V741.2c0,3.861,6,3.867,6,0V679.63a3.044,3.044,0,0,0-3-3h-61.57a3.044,3.044,0,0,0-3,3V741.2a3.043,3.043,0,0,0,3,3h61.57C1287.067,744.2,1287.074,738.2,1283.207,738.2Z"/><rect class="cls-8" x="419.182" y="619.667" width="61.57" height="61.57"/><path class="cls-9" d="M480.752,678.236h-61.57l3,3V619.667l-3,3h61.57l-3-3v61.569c0,3.861,6,3.867,6,0V619.667a3.044,3.044,0,0,0-3-3h-61.57a3.043,3.043,0,0,0-3,3v61.569a3.043,3.043,0,0,0,3,3h61.57C484.612,684.236,484.619,678.236,480.752,678.236Z"/><rect class="cls-8" x="480.909" y="619.667" width="61.57" height="61.57"/><path class="cls-9" d="M542.479,678.236h-61.57l3,3V619.667l-3,3h61.57l-3-3v61.569c0,3.861,6,3.867,6,0V619.667a3.043,3.043,0,0,0-3-3h-61.57a3.043,3.043,0,0,0-3,3v61.569a3.044,3.044,0,0,0,3,3h61.57C546.34,684.236,546.346,678.236,542.479,678.236Z"/><rect class="cls-8" x="542.637" y="619.667" width="61.57" height="61.57"/><path class="cls-9" d="M604.206,678.236H542.637l3,3V619.667l-3,3h61.569l-3-3v61.569c0,3.861,6,3.867,6,0V619.667a3.043,3.043,0,0,0-3-3H542.637a3.043,3.043,0,0,0-3,3v61.569a3.043,3.043,0,0,0,3,3h61.569C608.067,684.236,608.073,678.236,604.206,678.236Z"/><rect class="cls-10" x="604.364" y="619.667" width="61.57" height="61.57"/><path class="cls-9" d="M665.934,678.236h-61.57l3,3V619.667l-3,3h61.57l-3-3v61.569c0,3.861,6,3.867,6,0V619.667a3.044,3.044,0,0,0-3-3h-61.57a3.043,3.043,0,0,0-3,3v61.569a3.043,3.043,0,0,0,3,3h61.57C669.794,684.236,669.8,678.236,665.934,678.236Z"/><rect class="cls-10" x="666.091" y="619.667" width="61.57" height="61.57"/><path class="cls-9" d="M727.661,678.236h-61.57l3,3V619.667l-3,3h61.57l-3-3v61.569c0,3.861,6,3.867,6,0V619.667a3.044,3.044,0,0,0-3-3h-61.57a3.043,3.043,0,0,0-3,3v61.569a3.044,3.044,0,0,0,3,3h61.57C731.522,684.236,731.528,678.236,727.661,678.236Z"/><rect class="cls-10" x="727.818" y="619.667" width="61.57" height="61.57"/><path class="cls-9" d="M789.388,678.236h-61.57l3,3V619.667l-3,3h61.57l-3-3v61.569c0,3.861,6,3.867,6,0V619.667a3.043,3.043,0,0,0-3-3h-61.57a3.044,3.044,0,0,0-3,3v61.569a3.044,3.044,0,0,0,3,3h61.57C793.249,684.236,793.255,678.236,789.388,678.236Z"/><rect class="cls-11" x="789.546" y="619.667" width="61.57" height="61.57"/><path class="cls-9" d="M851.116,678.236h-61.57l3,3V619.667l-3,3h61.57l-3-3v61.569c0,3.861,6,3.867,6,0V619.667a3.044,3.044,0,0,0-3-3h-61.57a3.043,3.043,0,0,0-3,3v61.569a3.043,3.043,0,0,0,3,3h61.57C854.976,684.236,854.983,678.236,851.116,678.236Z"/><rect class="cls-11" x="851.273" y="619.667" width="61.57" height="61.57"/><path class="cls-9" d="M912.843,678.236h-61.57l3,3V619.667l-3,3h61.57l-3-3v61.569c0,3.861,6,3.867,6,0V619.667a3.044,3.044,0,0,0-3-3h-61.57a3.043,3.043,0,0,0-3,3v61.569a3.044,3.044,0,0,0,3,3h61.57C916.7,684.236,916.71,678.236,912.843,678.236Z"/><rect class="cls-12" x="974.728" y="619.667" width="61.57" height="61.57"/><path class="cls-9" d="M1036.3,678.236H974.728l3,3V619.667l-3,3H1036.3l-3-3v61.569c0,3.861,6,3.867,6,0V619.667a3.043,3.043,0,0,0-3-3H974.728a3.043,3.043,0,0,0-3,3v61.569a3.043,3.043,0,0,0,3,3H1036.3C1040.158,684.236,1040.165,678.236,1036.3,678.236Z"/><rect class="cls-12" x="1036.455" y="619.667" width="61.57" height="61.57"/><path class="cls-9" d="M1098.025,678.236h-61.57l3,3V619.667l-3,3h61.57l-3-3v61.569c0,3.861,6,3.867,6,0V619.667a3.044,3.044,0,0,0-3-3h-61.57a3.043,3.043,0,0,0-3,3v61.569a3.043,3.043,0,0,0,3,3h61.57C1101.885,684.236,1101.892,678.236,1098.025,678.236Z"/><rect class="cls-13" x="1159.91" y="619.667" width="61.57" height="61.57"/><path class="cls-9" d="M1221.479,678.236H1159.91l3,3V619.667l-3,3h61.569l-3-3v61.569c0,3.861,6,3.867,6,0V619.667a3.043,3.043,0,0,0-3-3H1159.91a3.043,3.043,0,0,0-3,3v61.569a3.043,3.043,0,0,0,3,3h61.569C1225.34,684.236,1225.346,678.236,1221.479,678.236Z"/><rect class="cls-13" x="1221.637" y="619.667" width="61.57" height="61.57"/><path class="cls-9" d="M1283.207,678.236h-61.57l3,3V619.667l-3,3h61.57l-3-3v61.569c0,3.861,6,3.867,6,0V619.667a3.044,3.044,0,0,0-3-3h-61.57a3.043,3.043,0,0,0-3,3v61.569a3.043,3.043,0,0,0,3,3h61.57C1287.067,684.236,1287.074,678.236,1283.207,678.236Z"/><rect class="cls-14" x="234" y="859.521" width="61.57" height="61.57"/><path class="cls-9" d="M295.57,918.091H234l3,3v-61.57l-3,3h61.57l-3-3v61.57c0,3.861,6,3.867,6,0v-61.57a3.044,3.044,0,0,0-3-3H234a3.044,3.044,0,0,0-3,3v61.57a3.043,3.043,0,0,0,3,3h61.57C299.43,924.091,299.437,918.091,295.57,918.091Z"/><rect class="cls-14" x="295.727" y="859.521" width="61.57" height="61.57"/><path class="cls-9" d="M357.3,918.091h-61.57l3,3v-61.57l-3,3H357.3l-3-3v61.57c0,3.861,6,3.867,6,0v-61.57a3.043,3.043,0,0,0-3-3h-61.57a3.044,3.044,0,0,0-3,3v61.57a3.044,3.044,0,0,0,3,3H357.3C361.158,924.091,361.164,918.091,357.3,918.091Z"/><rect class="cls-14" x="357.455" y="859.521" width="61.57" height="61.57"/><path class="cls-9" d="M419.024,918.091H357.455l3,3v-61.57l-3,3h61.569l-3-3v61.57c0,3.861,6,3.867,6,0v-61.57a3.043,3.043,0,0,0-3-3H357.455a3.044,3.044,0,0,0-3,3v61.57a3.043,3.043,0,0,0,3,3h61.569C422.885,924.091,422.891,918.091,419.024,918.091Z"/><rect class="cls-14" x="234" y="799.558" width="61.57" height="61.57"/><path class="cls-9" d="M295.57,858.127H234l3,3V799.558l-3,3h61.57l-3-3v61.569c0,3.861,6,3.867,6,0V799.558a3.044,3.044,0,0,0-3-3H234a3.043,3.043,0,0,0-3,3v61.569a3.043,3.043,0,0,0,3,3h61.57C299.43,864.127,299.437,858.127,295.57,858.127Z"/><rect class="cls-14" x="295.727" y="799.558" width="61.57" height="61.57"/><path class="cls-9" d="M357.3,858.127h-61.57l3,3V799.558l-3,3H357.3l-3-3v61.569c0,3.861,6,3.867,6,0V799.558a3.043,3.043,0,0,0-3-3h-61.57a3.044,3.044,0,0,0-3,3v61.569a3.044,3.044,0,0,0,3,3H357.3C361.158,864.127,361.164,858.127,357.3,858.127Z"/><rect class="cls-14" x="357.455" y="799.558" width="61.57" height="61.57"/><path class="cls-9" d="M419.024,858.127H357.455l3,3V799.558l-3,3h61.569l-3-3v61.569c0,3.861,6,3.867,6,0V799.558a3.043,3.043,0,0,0-3-3H357.455a3.043,3.043,0,0,0-3,3v61.569a3.043,3.043,0,0,0,3,3h61.569C422.885,864.127,422.891,858.127,419.024,858.127Z"/><rect class="cls-14" x="234" y="739.594" width="61.57" height="61.57"/><path class="cls-9" d="M295.57,798.164H234l3,3v-61.57l-3,3h61.57l-3-3v61.57c0,3.86,6,3.867,6,0v-61.57a3.044,3.044,0,0,0-3-3H234a3.043,3.043,0,0,0-3,3v61.57a3.044,3.044,0,0,0,3,3h61.57C299.43,804.164,299.437,798.164,295.57,798.164Z"/><rect class="cls-14" x="295.727" y="739.594" width="61.57" height="61.57"/><path class="cls-9" d="M357.3,798.164h-61.57l3,3v-61.57l-3,3H357.3l-3-3v61.57c0,3.86,6,3.867,6,0v-61.57a3.043,3.043,0,0,0-3-3h-61.57a3.044,3.044,0,0,0-3,3v61.57a3.044,3.044,0,0,0,3,3H357.3C361.158,804.164,361.164,798.164,357.3,798.164Z"/><rect class="cls-14" x="357.455" y="739.594" width="61.57" height="61.57"/><path class="cls-9" d="M419.024,798.164H357.455l3,3v-61.57l-3,3h61.569l-3-3v61.57c0,3.86,6,3.867,6,0v-61.57a3.043,3.043,0,0,0-3-3H357.455a3.043,3.043,0,0,0-3,3v61.57a3.044,3.044,0,0,0,3,3h61.569C422.885,804.164,422.891,798.164,419.024,798.164Z"/><rect class="cls-14" x="234" y="679.63" width="61.57" height="61.57"/><path class="cls-9" d="M295.57,738.2H234l3,3V679.63l-3,3h61.57l-3-3V741.2c0,3.861,6,3.867,6,0V679.63a3.044,3.044,0,0,0-3-3H234a3.044,3.044,0,0,0-3,3V741.2a3.043,3.043,0,0,0,3,3h61.57C299.43,744.2,299.437,738.2,295.57,738.2Z"/><rect class="cls-14" x="295.727" y="679.63" width="61.57" height="61.57"/><path class="cls-9" d="M357.3,738.2h-61.57l3,3V679.63l-3,3H357.3l-3-3V741.2c0,3.861,6,3.867,6,0V679.63a3.043,3.043,0,0,0-3-3h-61.57a3.044,3.044,0,0,0-3,3V741.2a3.044,3.044,0,0,0,3,3H357.3C361.158,744.2,361.164,738.2,357.3,738.2Z"/><rect class="cls-14" x="357.455" y="679.63" width="61.57" height="61.57"/><path class="cls-9" d="M419.024,738.2H357.455l3,3V679.63l-3,3h61.569l-3-3V741.2c0,3.861,6,3.867,6,0V679.63a3.043,3.043,0,0,0-3-3H357.455a3.044,3.044,0,0,0-3,3V741.2a3.043,3.043,0,0,0,3,3h61.569C422.885,744.2,422.891,738.2,419.024,738.2Z"/><rect class="cls-14" x="234" y="619.667" width="61.57" height="61.57"/><path class="cls-9" d="M295.57,678.236H234l3,3V619.667l-3,3h61.57l-3-3v61.569c0,3.861,6,3.867,6,0V619.667a3.044,3.044,0,0,0-3-3H234a3.043,3.043,0,0,0-3,3v61.569a3.043,3.043,0,0,0,3,3h61.57C299.43,684.236,299.437,678.236,295.57,678.236Z"/><rect class="cls-14" x="295.727" y="619.667" width="61.57" height="61.57"/><path class="cls-9" d="M357.3,678.236h-61.57l3,3V619.667l-3,3H357.3l-3-3v61.569c0,3.861,6,3.867,6,0V619.667a3.043,3.043,0,0,0-3-3h-61.57a3.044,3.044,0,0,0-3,3v61.569a3.044,3.044,0,0,0,3,3H357.3C361.158,684.236,361.164,678.236,357.3,678.236Z"/><rect class="cls-14" x="357.455" y="619.667" width="61.57" height="61.57"/><path class="cls-9" d="M419.024,678.236H357.455l3,3V619.667l-3,3h61.569l-3-3v61.569c0,3.861,6,3.867,6,0V619.667a3.043,3.043,0,0,0-3-3H357.455a3.043,3.043,0,0,0-3,3v61.569a3.043,3.043,0,0,0,3,3h61.569C422.885,684.236,422.891,678.236,419.024,678.236Z"/><rect class="cls-14" x="234" y="559.703" width="61.57" height="61.57"/><path class="cls-9" d="M295.57,618.273H234l3,3V559.7l-3,3h61.57l-3-3v61.57c0,3.86,6,3.867,6,0V559.7a3.044,3.044,0,0,0-3-3H234a3.043,3.043,0,0,0-3,3v61.57a3.044,3.044,0,0,0,3,3h61.57C299.43,624.273,299.437,618.273,295.57,618.273Z"/><rect class="cls-14" x="357.455" y="559.703" width="61.57" height="61.57"/><path class="cls-9" d="M419.024,618.273H357.455l3,3V559.7l-3,3h61.569l-3-3v61.57c0,3.86,6,3.867,6,0V559.7a3.043,3.043,0,0,0-3-3H357.455a3.043,3.043,0,0,0-3,3v61.57a3.044,3.044,0,0,0,3,3h61.569C422.885,624.273,422.891,618.273,419.024,618.273Z"/><rect class="cls-8" x="419.182" y="559.703" width="61.57" height="61.57"/><path class="cls-9" d="M480.752,618.273h-61.57l3,3V559.7l-3,3h61.57l-3-3v61.57c0,3.86,6,3.867,6,0V559.7a3.044,3.044,0,0,0-3-3h-61.57a3.043,3.043,0,0,0-3,3v61.57a3.044,3.044,0,0,0,3,3h61.57C484.612,624.273,484.619,618.273,480.752,618.273Z"/><rect class="cls-8" x="480.909" y="559.703" width="61.57" height="61.57"/><path class="cls-9" d="M542.479,618.273h-61.57l3,3V559.7l-3,3h61.57l-3-3v61.57c0,3.86,6,3.867,6,0V559.7a3.043,3.043,0,0,0-3-3h-61.57a3.043,3.043,0,0,0-3,3v61.57a3.044,3.044,0,0,0,3,3h61.57C546.34,624.273,546.346,618.273,542.479,618.273Z"/><rect class="cls-8" x="542.637" y="559.703" width="61.57" height="61.57"/><path class="cls-9" d="M604.206,618.273H542.637l3,3V559.7l-3,3h61.569l-3-3v61.57c0,3.86,6,3.867,6,0V559.7a3.043,3.043,0,0,0-3-3H542.637a3.043,3.043,0,0,0-3,3v61.57a3.044,3.044,0,0,0,3,3h61.569C608.067,624.273,608.073,618.273,604.206,618.273Z"/><rect class="cls-10" x="604.364" y="559.703" width="61.57" height="61.57"/><path class="cls-9" d="M665.934,618.273h-61.57l3,3V559.7l-3,3h61.57l-3-3v61.57c0,3.86,6,3.867,6,0V559.7a3.044,3.044,0,0,0-3-3h-61.57a3.043,3.043,0,0,0-3,3v61.57a3.044,3.044,0,0,0,3,3h61.57C669.794,624.273,669.8,618.273,665.934,618.273Z"/><rect class="cls-11" x="789.546" y="559.703" width="61.57" height="61.57"/><path class="cls-9" d="M851.116,618.273h-61.57l3,3V559.7l-3,3h61.57l-3-3v61.57c0,3.86,6,3.867,6,0V559.7a3.044,3.044,0,0,0-3-3h-61.57a3.043,3.043,0,0,0-3,3v61.57a3.044,3.044,0,0,0,3,3h61.57C854.976,624.273,854.983,618.273,851.116,618.273Z"/><rect class="cls-8" x="512.273" y="415.703" width="61.57" height="61.57"/><path class="cls-9" d="M573.843,474.273h-61.57l3,3V415.7l-3,3h61.57l-3-3v61.57c0,3.86,6,3.867,6,0V415.7a3.044,3.044,0,0,0-3-3h-61.57a3.043,3.043,0,0,0-3,3v61.57a3.044,3.044,0,0,0,3,3h61.57C577.7,480.273,577.71,474.273,573.843,474.273Z"/><rect class="cls-8" x="574" y="415.703" width="61.57" height="61.57"/><path class="cls-9" d="M635.57,474.273H574l3,3V415.7l-3,3h61.57l-3-3v61.57c0,3.86,6,3.867,6,0V415.7a3.043,3.043,0,0,0-3-3H574a3.044,3.044,0,0,0-3,3v61.57a3.044,3.044,0,0,0,3,3h61.57C639.431,480.273,639.437,474.273,635.57,474.273Z"/><rect class="cls-14" x="295.727" y="447.939" width="61.57" height="61.57"/><path class="cls-9" d="M357.3,506.509h-61.57l3,3v-61.57l-3,3H357.3l-3-3v61.57c0,3.861,6,3.867,6,0v-61.57a3.043,3.043,0,0,0-3-3h-61.57a3.044,3.044,0,0,0-3,3v61.57a3.044,3.044,0,0,0,3,3H357.3C361.158,512.509,361.164,506.509,357.3,506.509Z"/><rect class="cls-14" x="234" y="387.976" width="61.57" height="61.57"/><path class="cls-9" d="M295.57,446.545H234l3,3V387.976l-3,3h61.57l-3-3v61.569c0,3.861,6,3.867,6,0V387.976a3.044,3.044,0,0,0-3-3H234a3.043,3.043,0,0,0-3,3v61.569a3.043,3.043,0,0,0,3,3h61.57C299.43,452.545,299.437,446.545,295.57,446.545Z"/><rect class="cls-14" x="295.727" y="387.976" width="61.57" height="61.57"/><path class="cls-9" d="M357.3,446.545h-61.57l3,3V387.976l-3,3H357.3l-3-3v61.569c0,3.861,6,3.867,6,0V387.976a3.043,3.043,0,0,0-3-3h-61.57a3.044,3.044,0,0,0-3,3v61.569a3.044,3.044,0,0,0,3,3H357.3C361.158,452.545,361.164,446.545,357.3,446.545Z"/><rect class="cls-14" x="357.455" y="387.976" width="61.57" height="61.57"/><path class="cls-9" d="M419.024,446.545H357.455l3,3V387.976l-3,3h61.569l-3-3v61.569c0,3.861,6,3.867,6,0V387.976a3.043,3.043,0,0,0-3-3H357.455a3.043,3.043,0,0,0-3,3v61.569a3.043,3.043,0,0,0,3,3h61.569C422.885,452.545,422.891,446.545,419.024,446.545Z"/><rect class="cls-8" x="450.546" y="355.739" width="61.57" height="61.57"/><path class="cls-9" d="M512.116,414.309h-61.57l3,3v-61.57l-3,3h61.57l-3-3v61.57c0,3.861,6,3.867,6,0v-61.57a3.044,3.044,0,0,0-3-3h-61.57a3.044,3.044,0,0,0-3,3v61.57a3.043,3.043,0,0,0,3,3h61.57C515.976,420.309,515.983,414.309,512.116,414.309Z"/><rect class="cls-8" x="512.273" y="355.739" width="61.57" height="61.57"/><path class="cls-9" d="M573.843,414.309h-61.57l3,3v-61.57l-3,3h61.57l-3-3v61.57c0,3.861,6,3.867,6,0v-61.57a3.044,3.044,0,0,0-3-3h-61.57a3.044,3.044,0,0,0-3,3v61.57a3.044,3.044,0,0,0,3,3h61.57C577.7,420.309,577.71,414.309,573.843,414.309Z"/><rect class="cls-13" x="1159.91" y="520.703" width="61.57" height="61.57"/><path class="cls-9" d="M1221.479,579.273H1159.91l3,3V520.7l-3,3h61.569l-3-3v61.57c0,3.86,6,3.867,6,0V520.7a3.043,3.043,0,0,0-3-3H1159.91a3.043,3.043,0,0,0-3,3v61.57a3.044,3.044,0,0,0,3,3h61.569C1225.34,585.273,1225.346,579.273,1221.479,579.273Z"/><rect class="cls-13" x="1221.637" y="520.703" width="61.57" height="61.57"/><path class="cls-9" d="M1283.207,579.273h-61.57l3,3V520.7l-3,3h61.57l-3-3v61.57c0,3.86,6,3.867,6,0V520.7a3.044,3.044,0,0,0-3-3h-61.57a3.043,3.043,0,0,0-3,3v61.57a3.044,3.044,0,0,0,3,3h61.57C1287.067,585.273,1287.074,579.273,1283.207,579.273Z"/><rect class="cls-13" x="1159.91" y="460.739" width="61.57" height="61.57"/><path class="cls-9" d="M1221.479,519.309H1159.91l3,3v-61.57l-3,3h61.569l-3-3v61.57c0,3.861,6,3.867,6,0v-61.57a3.043,3.043,0,0,0-3-3H1159.91a3.044,3.044,0,0,0-3,3v61.57a3.043,3.043,0,0,0,3,3h61.569C1225.34,525.309,1225.346,519.309,1221.479,519.309Z"/><rect class="cls-13" x="1221.637" y="460.739" width="61.57" height="61.57"/><path class="cls-9" d="M1283.207,519.309h-61.57l3,3v-61.57l-3,3h61.57l-3-3v61.57c0,3.861,6,3.867,6,0v-61.57a3.044,3.044,0,0,0-3-3h-61.57a3.044,3.044,0,0,0-3,3v61.57a3.043,3.043,0,0,0,3,3h61.57C1287.067,525.309,1287.074,519.309,1283.207,519.309Z"/><rect class="cls-13" x="1284.637" y="859.521" width="61.57" height="61.57"/><path class="cls-9" d="M1346.207,918.091h-61.57l3,3v-61.57l-3,3h61.57l-3-3v61.57c0,3.861,6,3.867,6,0v-61.57a3.044,3.044,0,0,0-3-3h-61.57a3.044,3.044,0,0,0-3,3v61.57a3.043,3.043,0,0,0,3,3h61.57C1350.067,924.091,1350.074,918.091,1346.207,918.091Z"/><rect class="cls-13" x="1284.637" y="799.558" width="61.57" height="61.57"/><path class="cls-9" d="M1346.207,858.127h-61.57l3,3V799.558l-3,3h61.57l-3-3v61.569c0,3.861,6,3.867,6,0V799.558a3.044,3.044,0,0,0-3-3h-61.57a3.043,3.043,0,0,0-3,3v61.569a3.043,3.043,0,0,0,3,3h61.57C1350.067,864.127,1350.074,858.127,1346.207,858.127Z"/><rect class="cls-13" x="1284.637" y="739.594" width="61.57" height="61.57"/><path class="cls-9" d="M1346.207,798.164h-61.57l3,3v-61.57l-3,3h61.57l-3-3v61.57c0,3.86,6,3.867,6,0v-61.57a3.044,3.044,0,0,0-3-3h-61.57a3.043,3.043,0,0,0-3,3v61.57a3.044,3.044,0,0,0,3,3h61.57C1350.067,804.164,1350.074,798.164,1346.207,798.164Z"/><rect class="cls-13" x="1284.637" y="679.63" width="61.57" height="61.57"/><path class="cls-9" d="M1346.207,738.2h-61.57l3,3V679.63l-3,3h61.57l-3-3V741.2c0,3.861,6,3.867,6,0V679.63a3.044,3.044,0,0,0-3-3h-61.57a3.044,3.044,0,0,0-3,3V741.2a3.043,3.043,0,0,0,3,3h61.57C1350.067,744.2,1350.074,738.2,1346.207,738.2Z"/><text class="cls-15" transform="translate(307.192 974.653)">AI</text><path class="cls-16" d="M1513.5,1046H60.734c-6.365,0-13.4-.85-19.726,0a19.434,19.434,0,0,1-2.508,0l1.5,1.5V62.613c0-3.909,1.094-9.681,0-13.469A6.747,6.747,0,0,1,40,47.5L38.5,49H1491.266c6.365,0,13.4.85,19.726,0a19.434,19.434,0,0,1,2.508,0l-1.5-1.5v959.026c0,12.787-1.5,26.605,0,39.33a14.312,14.312,0,0,1,0,1.644,1.5,1.5,0,0,0,3,0V88.474c0-12.856,1.33-26.522,0-39.33a16.1,16.1,0,0,1,0-1.644,1.522,1.522,0,0,0-1.5-1.5H98.374c-19.107,0-38.262-.4-57.366,0-.835.017-1.672,0-2.508,0A1.522,1.522,0,0,0,37,47.5v959.026c0,12.856-1.33,26.522,0,39.33a16.1,16.1,0,0,1,0,1.644,1.522,1.522,0,0,0,1.5,1.5H1453.626c19.107,0,38.262.4,57.366,0,.835-.017,1.672,0,2.508,0A1.5,1.5,0,0,0,1513.5,1046Z"/></g><g id="Layer_2" data-name="Layer 2"><text class="cls-17" transform="translate(572.73 140.067) scale(1.05 1)">GRAPHIC SKILLS</text></g></svg>