<svg id="Layer_1" data-name="Layer 1" xmlns="http://www.w3.org/2000/svg" xmlns:xlink="http://www.w3.org/1999/xlink" viewBox="0 0 1280 1024"><defs><style>.cls-1{fill:url(#linear-gradient);}.cls-2{fill:url(#linear-gradient-2);}.cls-3{fill:url(#linear-gradient-3);}.cls-4{fill:url(#linear-gradient-4);}.cls-5{font-size:28px;font-family:OpenSans-Regular, Open Sans;}.cls-6{fill:#5acbe5;}</style><linearGradient id="linear-gradient" x1="109" y1="640.5" x2="360" y2="640.5" gradientUnits="userSpaceOnUse"><stop offset="0" stop-color="aqua"/><stop offset="0.184" stop-color="#05f9fe"/><stop offset="0.44" stop-color="#12e7fc"/><stop offset="0.738" stop-color="#28c9f9"/><stop offset="1" stop-color="#3fa9f5"/></linearGradient><linearGradient id="linear-gradient-2" x1="490" x2="741" xlink:href="#linear-gradient"/><linearGradient id="linear-gradient-3" x1="866" y1="631.5" x2="1117" y2="631.5" xlink:href="#linear-gradient"/><linearGradient id="linear-gradient-4" x1="477.437" y1="273.077" x2="728.437" y2="273.077" xlink:href="#linear-gradient"/></defs><title>survey-process</title><circle class="cls-1" cx="234.5" cy="640.5" r="125.5"/><circle class="cls-2" cx="615.5" cy="640.5" r="125.5"/><circle class="cls-3" cx="991.5" cy="631.5" r="125.5"/><circle class="cls-4" cx="602.937" cy="273.077" r="125.5"/><text class="cls-5" transform="translate(165.429 653.137)">RESEARCH</text><text class="cls-5" transform="translate(568.072 646.851)">DESIGN</text><text class="cls-5" transform="translate(944.072 646.851)">CODING</text><text class="cls-5" transform="translate(556.849 281.28)">CLIENT</text><path class="cls-6" d="M445.536,623.269l13.071,15.767,3.536-8.536H375c-6.435,0-6.445,10,0,10h87.143c4.636,0,6.2-5.327,3.535-8.536L452.607,616.2c-4.111-4.959-11.151,2.149-7.071,7.071Z"/><path class="cls-6" d="M451.266,653.769l14.077-14.475c4.49-4.616-2.574-11.695-7.071-7.071L444.2,646.7c-4.489,4.616,2.575,11.694,7.071,7.071Z"/><path class="cls-6" d="M407.788,445.757,387.4,443.851l3.536,8.536,53.9-53.9,7.722-7.722c4.556-4.557-2.513-11.63-7.071-7.071l-53.9,53.9-7.722,7.722c-3.283,3.283-.614,8.148,3.535,8.535l20.392,1.906c6.4.6,6.364-9.405,0-10Z"/><path class="cls-6" d="M382.169,428.243l.281,20.189c.09,6.429,10.09,6.447,10,0l-.281-20.189c-.089-6.43-10.09-6.448-10,0Z"/><path class="cls-6" d="M409.355,359.057l20.392,1.906-3.536-8.535-53.9,53.9-7.722,7.722c-4.557,4.556,2.512,11.629,7.071,7.071l53.9-53.9,7.722-7.722c3.283-3.283.614-8.148-3.535-8.536l-20.392-1.906c-6.405-.6-6.364,9.4,0,10Z"/><path class="cls-6" d="M434.974,376.572l-.282-20.189c-.089-6.43-10.089-6.448-10,0l.282,20.189c.089,6.429,10.089,6.448,10,0Z"/><path class="cls-6" d="M830.536,620.269l13.071,15.767,3.536-8.536H760c-6.435,0-6.445,10,0,10h87.143c4.636,0,6.195-5.327,3.535-8.536L837.607,613.2c-4.111-4.959-11.151,2.149-7.071,7.071Z"/><path class="cls-6" d="M836.266,650.769l14.077-14.475c4.49-4.616-2.574-11.695-7.071-7.071L829.2,643.7c-4.489,4.616,2.575,11.694,7.071,7.071Z"/><path class="cls-6" d="M631.3,493.309l-11.044,9.155L628.788,506V444.961c0-6.435-10-6.445-10,0V506c0,4.636,5.328,6.2,8.536,3.536l11.044-9.156c4.959-4.111-2.15-11.152-7.071-7.071Z"/><path class="cls-6" d="M609.933,499.441l10.139,9.86c4.616,4.489,11.7-2.575,7.071-7.071L617,492.37c-4.616-4.49-11.694,2.574-7.071,7.071Z"/><path class="cls-6" d="M591.249,451.709l11.044-9.156-8.536-3.536v61.039c0,6.435,10,6.446,10,0V439.017c0-4.636-5.327-6.195-8.535-3.535l-11.044,9.156c-4.959,4.111,2.149,11.151,7.071,7.071Z"/><path class="cls-6" d="M612.613,445.577l-10.139-9.86c-4.616-4.49-11.7,2.574-7.071,7.071l10.139,9.86c4.616,4.489,11.694-2.575,7.071-7.071Z"/><path class="cls-6" d="M875.7,403.191l-1.906,20.391,8.536-3.535-53.9-53.9-7.722-7.722c-4.557-4.557-11.63,2.512-7.071,7.071l53.9,53.9,7.722,7.722c3.283,3.283,8.148.614,8.535-3.536l1.906-20.391c.6-6.4-9.4-6.364-10,0Z"/><path class="cls-6" d="M858.184,428.809l20.189-.281c6.429-.089,6.447-10.09,0-10l-20.189.281c-6.43.09-6.448,10.09,0,10Z"/><path class="cls-6" d="M789,401.624l1.906-20.392-8.535,3.536,53.9,53.9,7.722,7.722c4.556,4.556,11.629-2.513,7.071-7.071l-53.9-53.9L789.44,377.7c-3.283-3.283-8.148-.614-8.536,3.535L779,401.624c-.6,6.4,9.4,6.363,10,0Z"/><path class="cls-6" d="M806.513,376.005l-20.189.281c-6.429.09-6.448,10.09,0,10l20.189-.281c6.429-.089,6.448-10.09,0-10Z"/></svg>