<svg id="Layer_1" data-name="Layer 1" xmlns="http://www.w3.org/2000/svg" viewBox="0 0 1024 1280"><defs><style>.cls-1{opacity:0.85;}.cls-2{fill:#bfbfbf;}</style></defs><title>bg</title><g class="cls-1"><path class="cls-2" d="M136.313,770.543V792.51H114.346V770.543h21.967m1-1H113.346V793.51h23.967V769.543Z"/></g><g class="cls-1"><path class="cls-2" d="M136.313,794.51v21.968H114.346V794.51h21.967m1-1H113.346v23.968h23.967V793.51Z"/></g><g class="cls-1"><path class="cls-2" d="M136.313,818.478v21.967H114.346V818.478h21.967m1-1H113.346v23.967h23.967V817.478Z"/></g><g class="cls-1"><path class="cls-2" d="M160.281,818.478v21.967H138.313V818.478h21.968m1-1H137.313v23.967h23.968V817.478Z"/></g><g class="cls-1"><path class="cls-2" d="M362.293,794.821v21.968H340.325V794.821h21.968m1-1H339.325v23.968h23.968V793.821Z"/></g><g class="cls-1"><path class="cls-2" d="M338.636,794.51v21.968H316.669V794.51h21.967m1-1H315.669v23.968h23.967V793.51Z"/></g><g class="cls-1"><path class="cls-2" d="M338.636,818.478v21.967H316.669V818.478h21.967m1-1H315.669v23.967h23.967V817.478Z"/></g><g class="cls-1"><path class="cls-2" d="M362.6,818.478v21.967H340.636V818.478H362.6m1-1H339.636v23.967H363.6V817.478Z"/></g><g class="cls-1"><path class="cls-2" d="M136.313,1127.876v21.968H114.346v-21.968h21.967m1-1H113.346v23.968h23.967v-23.968Z"/></g><g class="cls-1"><path class="cls-2" d="M112.657,1127.565v21.967H90.69v-21.967h21.967m1-1H89.69v23.967h23.967v-23.967Z"/></g><g class="cls-1"><path class="cls-2" d="M112.657,1151.532V1173.5H90.69v-21.968h21.967m1-1H89.69V1174.5h23.967v-23.968Z"/></g><g class="cls-1"><path class="cls-2" d="M136.625,1151.532V1173.5H114.657v-21.968h21.968m1-1H113.657V1174.5h23.968v-23.968Z"/></g><g class="cls-1"><path class="cls-2" d="M236.541,610.552v21.967H214.574V610.552h21.967m1-1H213.574v23.967h23.967V609.552Z"/></g><g class="cls-1"><path class="cls-2" d="M284.787,610.552v21.967H262.82V610.552h21.967m1-1H261.82v23.967h23.967V609.552Z"/></g><g class="cls-1"><path class="cls-2" d="M260.509,610.552v21.967H238.541V610.552h21.968m1-1H237.541v23.967h23.968V609.552Z"/></g><g class="cls-1"><path class="cls-2" d="M403.847,499.9v21.967H381.879V499.9h21.968m1-1H380.879v23.967h23.968V498.9Z"/></g><g class="cls-1"><path class="cls-2" d="M403.847,548.143v21.968H381.879V548.143h21.968m1-1H380.879v23.968h23.968V547.143Z"/></g><g class="cls-1"><path class="cls-2" d="M403.847,523.864v21.968H381.879V523.864h21.968m1-1H380.879v23.968h23.968V522.864Z"/></g><g class="cls-1"><path class="cls-2" d="M529.754,1094.26v21.967H507.786V1094.26h21.968m1-1H506.786v23.967h23.968V1093.26Z"/></g><g class="cls-1"><path class="cls-2" d="M578,1094.26v21.967H556.033V1094.26H578m1-1H555.033v23.967H579V1093.26Z"/></g><g class="cls-1"><path class="cls-2" d="M553.721,1094.26v21.967H531.754V1094.26h21.967m1-1H530.754v23.967h23.967V1093.26Z"/></g><g class="cls-1"><path class="cls-2" d="M476.711,756.914l20.9,6.755-6.755,20.9-20.9-6.755,6.755-20.9m-.644-1.259-7.37,22.806,22.806,7.37,7.37-22.806-22.806-7.37Z"/></g><g class="cls-1"><path class="cls-2" d="M454.3,749.344l20.9,6.754L468.445,777l-20.9-6.755,6.755-20.9m-.644-1.259-7.37,22.806,22.807,7.37,7.369-22.807-22.806-7.369Z"/></g><g class="cls-1"><path class="cls-2" d="M470.029,779.615l20.9,6.755-6.755,20.9-20.9-6.754,6.755-20.9m-.644-1.259-7.37,22.807,22.806,7.369,7.37-22.806-22.806-7.37Z"/></g><g class="cls-1"><path class="cls-2" d="M492.835,786.985l20.9,6.755-6.754,20.9-20.9-6.755,6.755-20.9m-.644-1.259-7.37,22.806,22.807,7.37L515,793.1l-22.806-7.37Z"/></g><g class="cls-1"><path class="cls-2" d="M167.935,969.2l20.9,6.755-6.755,20.9-20.9-6.754,6.755-20.9m-.644-1.259-7.37,22.807,22.806,7.369,7.37-22.806-22.806-7.37Z"/></g><g class="cls-1"><path class="cls-2" d="M145.52,961.627l20.9,6.755-6.754,20.9-20.9-6.755,6.755-20.9m-.644-1.259-7.37,22.806,22.807,7.37,7.369-22.806-22.806-7.37Z"/></g><g class="cls-1"><path class="cls-2" d="M161.253,991.9l20.9,6.755-6.755,20.9-20.9-6.755,6.755-20.9m-.644-1.259-7.37,22.806,22.806,7.37,7.37-22.806-22.806-7.37Z"/></g><g class="cls-1"><path class="cls-2" d="M184.059,999.269l20.9,6.754-6.754,20.9-20.9-6.755,6.755-20.9m-.644-1.259-7.37,22.806,22.807,7.37,7.369-22.807-22.806-7.369Z"/></g><g class="cls-1"><path class="cls-2" d="M373.714,961.891l15.534,15.533-15.534,15.533-15.533-15.533,15.533-15.533m0-1.414-16.947,16.947,16.947,16.948,16.948-16.948-16.948-16.947Z"/></g><g class="cls-1"><path class="cls-2" d="M356.767,978.838,372.3,994.372l-15.533,15.533-15.534-15.533,15.534-15.534m0-1.414-16.948,16.948,16.948,16.947,16.947-16.947-16.947-16.948Z"/></g><g class="cls-1"><path class="cls-2" d="M339.819,995.786l15.534,15.533-15.534,15.534-15.533-15.534,15.533-15.533m0-1.414-16.947,16.947,16.947,16.948,16.948-16.948-16.948-16.947Z"/></g><g class="cls-1"><path class="cls-2" d="M356.767,1012.734l15.533,15.533L356.767,1043.8l-15.534-15.533,15.534-15.533m0-1.415-16.948,16.948,16.948,16.947,16.947-16.947-16.947-16.948Z"/></g><g class="cls-1"><path class="cls-2" d="M523.745,898.392l15.533,15.534-15.533,15.533-15.534-15.533,15.534-15.534m0-1.414L506.8,913.926l16.948,16.947,16.947-16.947-16.947-16.948Z"/></g><g class="cls-1"><path class="cls-2" d="M506.8,915.34l15.533,15.533L506.8,946.407l-15.533-15.534L506.8,915.34m0-1.414L489.85,930.873,506.8,947.821l16.948-16.948L506.8,913.926Z"/></g><g class="cls-1"><path class="cls-2" d="M489.85,932.288l15.533,15.533L489.85,963.354l-15.534-15.533,15.534-15.533m0-1.415L472.9,947.821l16.948,16.948L506.8,947.821,489.85,930.873Z"/></g><g class="cls-1"><path class="cls-2" d="M523.605,932.427l15.534,15.533-15.534,15.533L508.072,947.96l15.533-15.533m0-1.414L506.658,947.96l16.947,16.948,16.948-16.948-16.948-16.947Z"/></g><g class="cls-1"><path class="cls-2" d="M108.847,652.737v21.968H86.879V652.737h21.968m1-1H85.879v23.968h23.968V651.737Z"/></g><g class="cls-1"><path class="cls-2" d="M132.814,652.737v21.968H110.847V652.737h21.967m1-1H109.847v23.968h23.967V651.737Z"/></g><g class="cls-1"><path class="cls-2" d="M156.782,652.737v21.968H134.814V652.737h21.968m1-1H133.814v23.968h23.968V651.737Z"/></g><g class="cls-1"><path class="cls-2" d="M133.011,628.77v21.967H111.044V628.77h21.967m1-1H110.044v23.967h23.967V627.77Z"/></g><g class="cls-1"><path class="cls-2" d="M504.16,559.994l9.151,19.971-19.971,9.15-9.151-19.97,19.971-9.151m.493-1.326-21.789,9.984,9.984,21.789,21.789-9.984-9.984-21.789Z"/></g><g class="cls-1"><path class="cls-2" d="M514.144,581.783l9.151,19.971-19.971,9.15-9.151-19.97,19.971-9.151m.493-1.326-21.789,9.984,9.984,21.789,21.789-9.984-9.984-21.789Z"/></g><g class="cls-1"><path class="cls-2" d="M524.128,603.572l9.151,19.971-19.971,9.15-9.151-19.97,19.971-9.151m.493-1.326-21.789,9.984,9.983,21.789,21.79-9.984-9.984-21.789Z"/></g><g class="cls-1"><path class="cls-2" d="M545.917,593.588l9.151,19.971-19.971,9.15-9.151-19.97,19.971-9.151m.493-1.326-21.789,9.984,9.984,21.789,21.789-9.984-9.984-21.789Z"/></g><g class="cls-1"><path class="cls-2" d="M693.313,235.543V257.51H671.346V235.543h21.967m1-1H670.346V258.51h23.967V234.543Z"/></g><g class="cls-1"><path class="cls-2" d="M693.313,259.51v21.968H671.346V259.51h21.967m1-1H670.346v23.968h23.967V258.51Z"/></g><g class="cls-1"><path class="cls-2" d="M693.313,283.478v21.967H671.346V283.478h21.967m1-1H670.346v23.967h23.967V282.478Z"/></g><g class="cls-1"><path class="cls-2" d="M717.281,283.478v21.967H695.313V283.478h21.968m1-1H694.313v23.967h23.968V282.478Z"/></g><g class="cls-1"><path class="cls-2" d="M919.293,259.821v21.968H897.325V259.821h21.968m1-1H896.325v23.968h23.968V258.821Z"/></g><g class="cls-1"><path class="cls-2" d="M895.636,259.51v21.968H873.669V259.51h21.967m1-1H872.669v23.968h23.967V258.51Z"/></g><g class="cls-1"><path class="cls-2" d="M895.636,283.478v21.967H873.669V283.478h21.967m1-1H872.669v23.967h23.967V282.478Z"/></g><g class="cls-1"><path class="cls-2" d="M919.6,283.478v21.967H897.636V283.478H919.6m1-1H896.636v23.967H920.6V282.478Z"/></g><g class="cls-1"><path class="cls-2" d="M693.313,592.876v21.968H671.346V592.876h21.967m1-1H670.346v23.968h23.967V591.876Z"/></g><g class="cls-1"><path class="cls-2" d="M669.657,592.565v21.967H647.69V592.565h21.967m1-1H646.69v23.967h23.967V591.565Z"/></g><g class="cls-1"><path class="cls-2" d="M669.657,616.532V638.5H647.69V616.532h21.967m1-1H646.69V639.5h23.967V615.532Z"/></g><g class="cls-1"><path class="cls-2" d="M693.625,616.532V638.5H671.657V616.532h21.968m1-1H670.657V639.5h23.968V615.532Z"/></g><g class="cls-1"><path class="cls-2" d="M793.541,75.552V97.519H771.574V75.552h21.967m1-1H770.574V98.519h23.967V74.552Z"/></g><g class="cls-1"><path class="cls-2" d="M841.787,75.552V97.519H819.82V75.552h21.967m1-1H818.82V98.519h23.967V74.552Z"/></g><g class="cls-1"><path class="cls-2" d="M817.509,75.552V97.519H795.541V75.552h21.968m1-1H794.541V98.519h23.968V74.552Z"/></g><g class="cls-1"><path class="cls-2" d="M781.847,830.9v21.967H759.879V830.9h21.968m1-1H758.879v23.967h23.968V829.9Z"/></g><g class="cls-1"><path class="cls-2" d="M781.847,879.143v21.968H759.879V879.143h21.968m1-1H758.879v23.968h23.968V878.143Z"/></g><g class="cls-1"><path class="cls-2" d="M781.847,854.864v21.968H759.879V854.864h21.968m1-1H758.879v23.968h23.968V853.864Z"/></g><g class="cls-1"><path class="cls-2" d="M254.754,385.26v21.967H232.786V385.26h21.968m1-1H231.786v23.967h23.968V384.26Z"/></g><g class="cls-1"><path class="cls-2" d="M303,385.26v21.967H281.033V385.26H303m1-1H280.033v23.967H304V384.26Z"/></g><g class="cls-1"><path class="cls-2" d="M278.721,385.26v21.967H256.754V385.26h21.967m1-1H255.754v23.967h23.967V384.26Z"/></g><g class="cls-1"><path class="cls-2" d="M201.711,47.914l20.9,6.755-6.755,20.9-20.9-6.755,6.755-20.9m-.644-1.259L193.7,69.461l22.806,7.37,7.37-22.806-22.806-7.37Z"/></g><g class="cls-1"><path class="cls-2" d="M179.3,40.344,200.2,47.1,193.445,68l-20.9-6.755,6.755-20.9m-.644-1.259-7.37,22.806,22.807,7.37,7.369-22.807-22.806-7.369Z"/></g><g class="cls-1"><path class="cls-2" d="M195.029,70.615l20.9,6.755-6.755,20.9-20.9-6.754,6.755-20.9m-.644-1.259-7.37,22.807,22.806,7.369,7.37-22.806-22.806-7.37Z"/></g><g class="cls-1"><path class="cls-2" d="M217.835,77.985l20.9,6.755-6.754,20.9-20.9-6.755,6.755-20.9m-.644-1.259-7.37,22.806,22.807,7.37L240,84.1l-22.806-7.37Z"/></g><g class="cls-1"><path class="cls-2" d="M724.935,434.2l20.9,6.755-6.755,20.9-20.9-6.754,6.755-20.9m-.644-1.259-7.37,22.807,22.806,7.369,7.37-22.806-22.806-7.37Z"/></g><g class="cls-1"><path class="cls-2" d="M702.52,426.627l20.9,6.755-6.754,20.9-20.9-6.755,6.755-20.9m-.644-1.259-7.37,22.806,22.807,7.37,7.369-22.806-22.806-7.37Z"/></g><g class="cls-1"><path class="cls-2" d="M718.253,456.9l20.9,6.755-6.755,20.9L711.5,477.8l6.755-20.9m-.644-1.259-7.37,22.806,22.806,7.37,7.37-22.806-22.806-7.37Z"/></g><g class="cls-1"><path class="cls-2" d="M741.059,464.269l20.9,6.754-6.754,20.9-20.9-6.755,6.755-20.9m-.644-1.259-7.37,22.806,22.807,7.37,7.369-22.807-22.806-7.369Z"/></g><g class="cls-1"><path class="cls-2" d="M930.714,426.891l15.534,15.533-15.534,15.533-15.533-15.533,15.533-15.533m0-1.414-16.947,16.947,16.947,16.948,16.948-16.948-16.948-16.947Z"/></g><g class="cls-1"><path class="cls-2" d="M913.767,443.838,929.3,459.372l-15.533,15.533-15.534-15.533,15.534-15.534m0-1.414-16.948,16.948,16.948,16.947,16.947-16.947-16.947-16.948Z"/></g><g class="cls-1"><path class="cls-2" d="M896.819,460.786l15.534,15.533-15.534,15.534-15.533-15.534,15.533-15.533m0-1.414-16.947,16.947,16.947,16.948,16.948-16.948-16.948-16.947Z"/></g><g class="cls-1"><path class="cls-2" d="M913.767,477.734,929.3,493.267,913.767,508.8l-15.534-15.533,15.534-15.533m0-1.415-16.948,16.948,16.948,16.947,16.947-16.947-16.947-16.948Z"/></g><g class="cls-1"><path class="cls-2" d="M248.745,189.392l15.533,15.534-15.533,15.533-15.534-15.533,15.534-15.534m0-1.414L231.8,204.926l16.948,16.947,16.947-16.947-16.947-16.948Z"/></g><g class="cls-1"><path class="cls-2" d="M231.8,206.34l15.533,15.533L231.8,237.407l-15.533-15.534L231.8,206.34m0-1.414L214.85,221.873,231.8,238.821l16.948-16.948L231.8,204.926Z"/></g><g class="cls-1"><path class="cls-2" d="M214.85,223.288l15.533,15.533L214.85,254.354l-15.534-15.533,15.534-15.533m0-1.415L197.9,238.821l16.948,16.948L231.8,238.821,214.85,221.873Z"/></g><g class="cls-1"><path class="cls-2" d="M248.605,223.427l15.534,15.533-15.534,15.533L233.072,238.96l15.533-15.533m0-1.414L231.658,238.96l16.947,16.948,16.948-16.948-16.948-16.947Z"/></g><g class="cls-1"><path class="cls-2" d="M665.847,117.737v21.968H643.879V117.737h21.968m1-1H642.879v23.968h23.968V116.737Z"/></g><g class="cls-1"><path class="cls-2" d="M689.814,117.737v21.968H667.847V117.737h21.967m1-1H666.847v23.968h23.967V116.737Z"/></g><g class="cls-1"><path class="cls-2" d="M713.782,117.737v21.968H691.814V117.737h21.968m1-1H690.814v23.968h23.968V116.737Z"/></g><g class="cls-1"><path class="cls-2" d="M690.011,93.77v21.967H668.044V93.77h21.967m1-1H667.044v23.967h23.967V92.77Z"/></g><g class="cls-1"><path class="cls-2" d="M704.313,861.543V883.51H682.346V861.543h21.967m1-1H681.346V884.51h23.967V860.543Z"/></g><g class="cls-1"><path class="cls-2" d="M704.313,885.51v21.968H682.346V885.51h21.967m1-1H681.346v23.968h23.967V884.51Z"/></g><g class="cls-1"><path class="cls-2" d="M704.313,909.478v21.967H682.346V909.478h21.967m1-1H681.346v23.967h23.967V908.478Z"/></g><g class="cls-1"><path class="cls-2" d="M728.281,909.478v21.967H706.313V909.478h21.968m1-1H705.313v23.967h23.968V908.478Z"/></g><g class="cls-1"><path class="cls-2" d="M930.293,885.821v21.968H908.325V885.821h21.968m1-1H907.325v23.968h23.968V884.821Z"/></g><g class="cls-1"><path class="cls-2" d="M906.636,885.51v21.968H884.669V885.51h21.967m1-1H883.669v23.968h23.967V884.51Z"/></g><g class="cls-1"><path class="cls-2" d="M906.636,909.478v21.967H884.669V909.478h21.967m1-1H883.669v23.967h23.967V908.478Z"/></g><g class="cls-1"><path class="cls-2" d="M930.6,909.478v21.967H908.636V909.478H930.6m1-1H907.636v23.967H931.6V908.478Z"/></g><g class="cls-1"><path class="cls-2" d="M918.541,686.552v21.967H896.574V686.552h21.967m1-1H895.574v23.967h23.967V685.552Z"/></g><g class="cls-1"><path class="cls-2" d="M966.787,686.552v21.967H944.82V686.552h21.967m1-1H943.82v23.967h23.967V685.552Z"/></g><g class="cls-1"><path class="cls-2" d="M942.509,686.552v21.967H920.541V686.552h21.968m1-1H919.541v23.967h23.968V685.552Z"/></g><g class="cls-1"><path class="cls-2" d="M735.935,1060.2l20.9,6.755-6.755,20.9-20.9-6.754,6.755-20.9m-.644-1.259-7.37,22.807,22.806,7.369,7.37-22.806-22.806-7.37Z"/></g><g class="cls-1"><path class="cls-2" d="M713.52,1052.627l20.9,6.755-6.754,20.9-20.9-6.755,6.755-20.9m-.644-1.259-7.37,22.806,22.807,7.37,7.369-22.806-22.806-7.37Z"/></g><g class="cls-1"><path class="cls-2" d="M729.253,1082.9l20.9,6.755-6.755,20.9-20.9-6.755,6.755-20.9m-.644-1.259-7.37,22.806,22.806,7.37,7.37-22.806-22.806-7.37Z"/></g><g class="cls-1"><path class="cls-2" d="M752.059,1090.269l20.9,6.754-6.754,20.9-20.9-6.755,6.755-20.9m-.644-1.259-7.37,22.806,22.807,7.37,7.369-22.807-22.806-7.369Z"/></g><g class="cls-1"><path class="cls-2" d="M941.714,1052.891l15.534,15.533-15.534,15.533-15.533-15.533,15.533-15.533m0-1.414-16.947,16.947,16.947,16.948,16.948-16.948-16.948-16.947Z"/></g><g class="cls-1"><path class="cls-2" d="M924.767,1069.838l15.533,15.534-15.533,15.533-15.534-15.533,15.534-15.534m0-1.414-16.948,16.948,16.948,16.947,16.947-16.947-16.947-16.948Z"/></g><g class="cls-1"><path class="cls-2" d="M907.819,1086.786l15.534,15.533-15.534,15.534-15.533-15.534,15.533-15.533m0-1.414-16.947,16.947,16.947,16.948,16.948-16.948-16.948-16.947Z"/></g><g class="cls-1"><path class="cls-2" d="M924.767,1103.734l15.533,15.533L924.767,1134.8l-15.534-15.533,15.534-15.533m0-1.415-16.948,16.948,16.948,16.947,16.947-16.947-16.947-16.948Z"/></g><g class="cls-1"><path class="cls-2" d="M700.814,743.737v21.968H678.847V743.737h21.967m1-1H677.847v23.968h23.967V742.737Z"/></g><g class="cls-1"><path class="cls-2" d="M724.782,743.737v21.968H702.814V743.737h21.968m1-1H701.814v23.968h23.968V742.737Z"/></g><g class="cls-1"><path class="cls-2" d="M701.011,719.77v21.967H679.044V719.77h21.967m1-1H678.044v23.967h23.967V718.77Z"/></g><g class="cls-1"><path class="cls-2" d="M461.16,221.994l9.151,19.971-19.971,9.15-9.151-19.97,19.971-9.151m.493-1.326-21.789,9.984,9.984,21.789,21.789-9.984-9.984-21.789Z"/></g><g class="cls-1"><path class="cls-2" d="M471.144,243.783l9.151,19.971-19.971,9.15-9.151-19.97,19.971-9.151m.493-1.326-21.789,9.984,9.984,21.789,21.789-9.984-9.984-21.789Z"/></g><g class="cls-1"><path class="cls-2" d="M481.128,265.572l9.151,19.971-19.971,9.15-9.151-19.97,19.971-9.151m.493-1.326-21.789,9.984,9.983,21.789,21.79-9.984-9.984-21.789Z"/></g><g class="cls-1"><path class="cls-2" d="M502.917,255.588l9.151,19.971-19.971,9.15-9.151-19.97,19.971-9.151m.493-1.326-21.789,9.984,9.984,21.789,21.789-9.984-9.984-21.789Z"/></g></svg>