<svg xmlns="http://www.w3.org/2000/svg" viewBox="0 0 443.067 422.404"><defs><style>.cls-1{fill:#efcf47;}.cls-2{fill:#231f20;}.cls-3{fill:#1e2d3a;}</style></defs><title>icon-contact</title><g id="contact"><g id="evelope"><rect class="cls-1" x="99.543" y="135.681" width="241.162" height="154.254"/><path class="cls-2" d="M340.7,284.935H109.325c-3.123,0-6.255-.068-9.377,0-.135,0-.27,0-.4,0l5,5V154.67c0-6.23.213-12.5,0-18.732,0-.085,0-.171,0-.257l-5,5H330.922c3.123,0,6.255.068,9.378,0,.134,0,.27,0,.4,0l-5-5V270.945c0,6.239-.132,12.5,0,18.733,0,.085,0,.171,0,.257a5,5,0,0,0,10,0V154.67c0-6.239.133-12.494,0-18.732,0-.085,0-.171,0-.257a5.072,5.072,0,0,0-5-5H109.325c-3.125,0-6.253-.041-9.377,0-.135,0-.27,0-.4,0a5.073,5.073,0,0,0-5,5V270.945c0,6.239-.133,12.5,0,18.733,0,.085,0,.171,0,.257a5.073,5.073,0,0,0,5,5H330.922c3.125,0,6.253.041,9.378,0,.135,0,.27,0,.4,0a5,5,0,0,0,0-10Z"/></g><polygon class="cls-3" points="99.985 135.211 219.682 254.908 340.263 134.328 99.985 135.211"/><path class="cls-2" d="M96.449,138.747l11.977,11.977,28.568,28.568,34.528,34.528,29.856,29.856c4.853,4.853,9.618,9.819,14.571,14.571.067.064.131.131.2.2a5.076,5.076,0,0,0,7.071,0l12-12,28.82-28.82L298.9,182.763l30.115-30.114c4.856-4.857,9.869-9.6,14.589-14.59.064-.067.131-.131.2-.2a5.054,5.054,0,0,0-3.535-8.535l-6.443.023-17.531.065-25.82.095-31.487.116-34.61.127-34.936.128L156.98,130l-27.436.1-19.8.072c-3.12.012-6.243-.021-9.363.035-.131,0-.263,0-.394,0a5,5,0,0,0,0,10l6.442-.023,17.531-.065,25.82-.095,31.487-.116,34.61-.127,34.936-.128,32.457-.12,27.436-.1,19.8-.073c3.118-.011,6.246.053,9.363-.034.131,0,.263,0,.395,0l-3.536-8.536-12,12-28.82,28.82-34.858,34.858-30.114,30.114c-4.853,4.853-9.906,9.572-14.59,14.59-.063.068-.131.131-.2.2h7.071L211.24,239.4l-28.568-28.568L148.145,176.3l-29.857-29.856c-4.853-4.853-9.618-9.819-14.571-14.571-.067-.064-.131-.131-.2-.2a5,5,0,0,0-7.071,7.071Z"/></g></svg>