<svg xmlns="http://www.w3.org/2000/svg" viewBox="0 0 443.067 422.404"><defs><style>.cls-1{fill:#efcf47;}.cls-2{fill:#231f20;}.cls-3{fill:#f0d047;}</style></defs><title>icon-code-pen</title><g id="codepen"><polygon class="cls-1" points="350.162 261.563 350.162 163.273 222.027 103.868 222.027 203.592 350.162 261.563"/><path class="cls-2" d="M355.162,261.563V175.4c0-3.979.108-7.974,0-11.952,0-.058,0-.117,0-.175a4.924,4.924,0,0,0-2.476-4.318l-12.808-5.938-30.519-14.148-37.123-17.211-31.9-14.787c-5.192-2.408-10.371-4.848-15.579-7.223l-.21-.1a5.2,5.2,0,0,0-5.047,0,5.036,5.036,0,0,0-2.477,4.317v87.416c0,4.04-.109,8.1,0,12.136,0,.057,0,.115,0,.172a4.913,4.913,0,0,0,2.477,4.318l12.777,5.78,30.671,13.877,36.856,16.674,32.06,14.5c5.186,2.346,10.362,4.716,15.558,7.038l.213.1c2.377,1.076,5.49.763,6.841-1.793,1.156-2.189.75-5.69-1.794-6.841l-12.777-5.781-30.672-13.876-36.856-16.675-32.06-14.5c-5.167-2.338-10.29-4.932-15.558-7.039-.072-.029-.141-.064-.212-.1l2.476,4.317V116.176c0-4.032.172-8.106,0-12.135,0-.058,0-.116,0-.173l-7.523,4.317,12.808,5.938,30.518,14.149,37.123,17.211,31.9,14.787c5.175,2.4,10.3,5.05,15.579,7.222.071.03.141.066.211.1l-2.477-4.317v86.163c0,3.978-.108,7.974,0,11.952,0,.058,0,.117,0,.175a5,5,0,0,0,10,0Z"/><polygon class="cls-1" points="222.347 105.027 222.347 203.318 94.212 262.723 94.212 162.998 222.347 105.027"/><path class="cls-2" d="M217.347,105.027V191.19c0,3.97-.176,7.985,0,11.952,0,.059,0,.117,0,.176L219.823,199l-12.808,5.938L176.5,219.087,139.374,236.3l-31.9,14.787c-5.181,2.4-10.485,4.638-15.579,7.223-.069.034-.141.065-.211.1l7.524,4.318V175.306c0-4.031.176-8.107,0-12.135,0-.058,0-.116,0-.173l-2.476,4.317,12.776-5.78,30.672-13.877,36.856-16.674,32.06-14.505c5.17-2.338,10.489-4.485,15.558-7.038.069-.035.142-.064.212-.1,2.391-1.082,3.152-4.735,1.794-6.841-1.592-2.47-4.283-2.951-6.841-1.794l-12.777,5.78-30.671,13.877-36.856,16.674-32.06,14.5c-5.17,2.339-10.489,4.485-15.558,7.038-.069.035-.142.065-.213.1A4.912,4.912,0,0,0,89.212,163v87.416c0,4.04-.109,8.1,0,12.136,0,.057,0,.115,0,.173a5.04,5.04,0,0,0,2.476,4.317,5.205,5.205,0,0,0,5.048,0l12.808-5.938,30.518-14.149,37.123-17.211,31.9-14.787c5.178-2.4,10.5-4.616,15.579-7.222.069-.036.14-.065.21-.1a4.922,4.922,0,0,0,2.477-4.317V117.155c0-3.979.108-7.975,0-11.952,0-.059,0-.117,0-.176a5,5,0,0,0-10,0Z"/><polygon class="cls-3" points="222.347 203.318 94.212 262.128 222.347 320.098 350.462 261.853 222.347 203.318"/><path class="cls-2" d="M219.823,199l-12.779,5.866-30.678,14.08L139.4,235.913,107.45,250.576c-5.164,2.37-10.479,4.548-15.54,7.133-.072.036-.148.068-.222.1-3.258,1.5-3.285,7.149,0,8.635l12.838,5.808,30.793,13.931,37.06,16.767L204.31,317.4c5.114,2.314,10.216,4.656,15.342,6.941a5.467,5.467,0,0,0,4.024.582,14.344,14.344,0,0,0,1.4-.6c.56-.25,1.117-.508,1.675-.761l7.962-3.62,28.958-13.166,36.865-16.759,33.389-15.18,18.231-8.289.834-.379c3.276-1.489,3.267-7.142,0-8.634l-12.734-5.818-30.581-13.973-37-16.907-32-14.621c-5.191-2.372-10.369-4.771-15.572-7.115l-.223-.1c-2.373-1.084-5.493-.756-6.84,1.794-1.161,2.2-.747,5.681,1.793,6.841l12.733,5.818,30.582,13.973,37,16.907,32,14.621c5.175,2.364,10.3,4.965,15.572,7.115.075.03.148.068.222.1v-8.634l-12.761,5.8-30.64,13.93-37.051,16.845-31.913,14.509c-5.166,2.348-10.44,4.543-15.527,7.059-.073.036-.149.067-.223.1h5.047l-12.763-5.775-30.645-13.864-37.056-16.765-31.919-14.44c-5.16-2.335-10.275-4.906-15.529-7.026-.075-.03-.148-.067-.222-.1v8.635l12.779-5.865,30.677-14.08,36.969-16.968,31.948-14.663c5.163-2.37,10.478-4.548,15.54-7.132.072-.037.148-.068.221-.1,2.385-1.094,3.158-4.726,1.794-6.841A5.143,5.143,0,0,0,219.823,199Z"/><path class="cls-2" d="M345.462,163.563v86.163c0,3.969-.176,7.984,0,11.952,0,.058,0,.117,0,.175l2.476-4.317-12.808,5.938-30.518,14.148-37.123,17.211-31.9,14.787c-5.181,2.4-10.485,4.639-15.579,7.223-.069.035-.141.065-.211.1l7.524,4.318V233.842c0-4.032.176-8.108,0-12.136,0-.057,0-.115,0-.173l-2.476,4.318,12.777-5.781L268.3,206.194l36.856-16.675,32.06-14.5c5.17-2.339,10.489-4.486,15.558-7.039.069-.035.142-.064.213-.1,2.39-1.082,3.151-4.734,1.793-6.841-1.592-2.47-4.283-2.951-6.841-1.794l-12.777,5.781L304.49,178.9l-36.856,16.675-32.06,14.5c-5.17,2.339-10.489,4.486-15.558,7.039-.069.035-.142.064-.213.1a4.913,4.913,0,0,0-2.476,4.317v87.416c0,4.04-.109,8.1,0,12.136,0,.058,0,.115,0,.173a5.04,5.04,0,0,0,2.476,4.317,5.205,5.205,0,0,0,5.048,0l12.808-5.938,30.518-14.149,37.123-17.21,31.9-14.788c5.178-2.4,10.5-4.616,15.579-7.222.069-.035.141-.065.211-.1a4.921,4.921,0,0,0,2.476-4.317V175.69c0-3.979.108-7.974,0-11.952,0-.058,0-.117,0-.175a5,5,0,0,0-10,0Z"/><path class="cls-2" d="M227.347,320.1V233.935c0-3.978.108-7.974,0-11.952,0-.058,0-.117,0-.175a4.922,4.922,0,0,0-2.477-4.317l-12.808-5.938L181.544,197.4l-37.123-17.211-31.9-14.787c-5.193-2.407-10.372-4.847-15.579-7.223l-.21-.1a5.205,5.205,0,0,0-5.048,0,5.038,5.038,0,0,0-2.476,4.317v87.416c0,4.04-.109,8.1,0,12.136,0,.058,0,.115,0,.173a4.913,4.913,0,0,0,2.476,4.317l12.777,5.781L135.137,286.1l36.856,16.674,32.06,14.5c5.186,2.346,10.361,4.716,15.558,7.039.071.031.141.064.212.1,2.378,1.075,5.491.762,6.841-1.794,1.157-2.189.751-5.69-1.794-6.841L212.094,310l-30.672-13.876L144.566,279.45l-32.06-14.5c-5.168-2.338-10.29-4.932-15.558-7.039-.072-.028-.142-.064-.212-.1l2.476,4.318V174.712c0-4.032.172-8.107,0-12.136,0-.058,0-.115,0-.173l-7.524,4.317,12.808,5.938,30.519,14.149,37.123,17.211,31.9,14.787c5.175,2.4,10.3,5.051,15.579,7.223.071.029.14.065.21.1l-2.476-4.317v86.163c0,3.979-.108,7.974,0,11.952,0,.058,0,.117,0,.175a5,5,0,0,0,10,0Z"/></g></svg>