<svg xmlns="http://www.w3.org/2000/svg" viewBox="0 0 435.355 411.169"><defs><style>.cls-1{fill:#efcf47;}.cls-2{fill:#231f20;}.cls-3{fill:#f4f4f5;}</style></defs><title>LOGO L</title><g id="LZ_initial" data-name="LZ initial"><rect class="cls-1" x="163.244" y="44.494" width="84.259" height="84.259"/><path class="cls-2" d="M247.5,123.753H163.244l5,5V44.494l-5,5H247.5l-5-5v84.259a5,5,0,0,0,10,0V44.494a5.073,5.073,0,0,0-5-5H163.244a5.073,5.073,0,0,0-5,5v84.259a5.073,5.073,0,0,0,5,5H247.5a5,5,0,1,0,0-10Z"/><rect class="cls-1" x="163.244" y="128.753" width="84.259" height="84.259"/><path class="cls-2" d="M247.5,208.011H163.244l5,5V128.753l-5,5H247.5l-5-5v84.258a5,5,0,1,0,10,0V128.753a5.073,5.073,0,0,0-5-5H163.244a5.072,5.072,0,0,0-5,5v84.258a5.073,5.073,0,0,0,5,5H247.5a5,5,0,0,0,0-10Z"/><rect class="cls-3" x="163.244" y="213.011" width="84.259" height="84.259"/><path class="cls-2" d="M247.5,292.27H163.244l5,5V213.011l-5,5H247.5l-5-5V297.27a5,5,0,0,0,10,0V213.011a5.073,5.073,0,0,0-5-5H163.244a5.073,5.073,0,0,0-5,5V297.27a5.073,5.073,0,0,0,5,5H247.5a5,5,0,0,0,0-10Z"/><rect class="cls-1" x="247.503" y="213.011" width="84.259" height="84.259"/><path class="cls-2" d="M331.761,292.27H247.5l5,5V213.011l-5,5h84.258l-5-5V297.27a5,5,0,0,0,10,0V213.011a5.072,5.072,0,0,0-5-5H247.5a5.073,5.073,0,0,0-5,5V297.27a5.073,5.073,0,0,0,5,5h84.258a5,5,0,0,0,0-10Z"/></g></svg>