<svg xmlns="http://www.w3.org/2000/svg" viewBox="0 0 479.337 415.073"><defs><style>.cls-1{fill:#efcf47;}.cls-2{fill:#231f20;}.cls-3{fill:#f4f4f5;}</style></defs><title>LZ INITIAL</title><g id="LZ_initial" data-name="LZ initial"><rect class="cls-1" x="60.39" y="95.719" width="84.259" height="84.259"/><path class="cls-2" d="M144.649,174.977H60.39l5,5V95.719l-5,5h84.259l-5-5v84.258a5,5,0,0,0,10,0V95.719a5.073,5.073,0,0,0-5-5H60.39a5.073,5.073,0,0,0-5,5v84.258a5.073,5.073,0,0,0,5,5h84.259a5,5,0,0,0,0-10Z"/><rect class="cls-1" x="60.39" y="179.977" width="84.259" height="84.259"/><path class="cls-2" d="M144.649,259.236H60.39l5,5V179.977l-5,5h84.259l-5-5v84.259a5,5,0,0,0,10,0V179.977a5.073,5.073,0,0,0-5-5H60.39a5.073,5.073,0,0,0-5,5v84.259a5.073,5.073,0,0,0,5,5h84.259a5,5,0,0,0,0-10Z"/><rect class="cls-3" x="60.39" y="264.236" width="84.259" height="84.259"/><path class="cls-2" d="M144.649,343.5H60.39l5,5V264.236l-5,5h84.259l-5-5V348.5a5,5,0,0,0,10,0V264.236a5.073,5.073,0,0,0-5-5H60.39a5.073,5.073,0,0,0-5,5V348.5a5.073,5.073,0,0,0,5,5h84.259a5,5,0,0,0,0-10Z"/><rect class="cls-1" x="144.649" y="264.236" width="84.259" height="84.259"/><path class="cls-2" d="M228.908,343.5H144.649l5,5V264.236l-5,5h84.259l-5-5V348.5a5,5,0,0,0,10,0V264.236a5.073,5.073,0,0,0-5-5H144.649a5.073,5.073,0,0,0-5,5V348.5a5.073,5.073,0,0,0,5,5h84.259a5,5,0,1,0,0-10Z"/><rect class="cls-1" x="199.433" y="127.213" width="84.259" height="84.259"/><path class="cls-2" d="M283.692,206.472H199.433l5,5V127.213l-5,5h84.259l-5-5v84.259a5,5,0,0,0,10,0V127.213a5.073,5.073,0,0,0-5-5H199.433a5.073,5.073,0,0,0-5,5v84.259a5.073,5.073,0,0,0,5,5h84.259a5,5,0,0,0,0-10Z"/><rect class="cls-3" x="283.692" y="127.213" width="84.259" height="84.259"/><path class="cls-2" d="M367.95,206.472H283.692l5,5V127.213l-5,5H367.95l-5-5v84.259a5,5,0,1,0,10,0V127.213a5.072,5.072,0,0,0-5-5H283.692a5.073,5.073,0,0,0-5,5v84.259a5.072,5.072,0,0,0,5,5H367.95a5,5,0,0,0,0-10Z"/><rect class="cls-1" x="283.692" y="211.472" width="84.259" height="84.259"/><path class="cls-2" d="M367.95,290.73H283.692l5,5V211.472l-5,5H367.95l-5-5V295.73a5,5,0,0,0,10,0V211.472a5.072,5.072,0,0,0-5-5H283.692a5.073,5.073,0,0,0-5,5V295.73a5.072,5.072,0,0,0,5,5H367.95a5,5,0,1,0,0-10Z"/><rect class="cls-1" x="367.95" y="211.472" width="84.259" height="84.259"/><path class="cls-2" d="M452.209,290.73H367.95l5,5V211.472l-5,5h84.259l-5-5V295.73a5,5,0,0,0,10,0V211.472a5.073,5.073,0,0,0-5-5H367.95a5.073,5.073,0,0,0-5,5V295.73a5.073,5.073,0,0,0,5,5h84.259a5,5,0,1,0,0-10Z"/></g></svg>