<svg xmlns="http://www.w3.org/2000/svg" viewBox="0 0 440.663 416.182"><defs><style>.cls-1{fill:#efcf47;}.cls-2{fill:#231f20;}.cls-3{fill:#f4f4f5;}</style></defs><title>LOGO-Z</title><g id="LZ_initial" data-name="LZ initial"><rect class="cls-1" x="103.699" y="141.636" width="84.259" height="84.259"/><path class="cls-2" d="M187.958,220.9H103.7l5,5V141.636l-5,5h84.259l-5-5V225.9a5,5,0,0,0,10,0V141.636a5.073,5.073,0,0,0-5-5H103.7a5.073,5.073,0,0,0-5,5V225.9a5.073,5.073,0,0,0,5,5h84.259a5,5,0,0,0,0-10Z"/><rect class="cls-3" x="187.958" y="141.636" width="84.259" height="84.259"/><path class="cls-2" d="M272.217,220.9H187.958l5,5V141.636l-5,5h84.259l-5-5V225.9a5,5,0,0,0,10,0V141.636a5.073,5.073,0,0,0-5-5H187.958a5.073,5.073,0,0,0-5,5V225.9a5.073,5.073,0,0,0,5,5h84.259a5,5,0,0,0,0-10Z"/><rect class="cls-1" x="187.958" y="225.895" width="84.259" height="84.259"/><path class="cls-2" d="M272.217,305.154H187.958l5,5V225.9l-5,5h84.259l-5-5v84.259a5,5,0,0,0,10,0V225.9a5.073,5.073,0,0,0-5-5H187.958a5.073,5.073,0,0,0-5,5v84.259a5.073,5.073,0,0,0,5,5h84.259a5,5,0,0,0,0-10Z"/><rect class="cls-1" x="272.217" y="225.895" width="84.259" height="84.259"/><path class="cls-2" d="M356.475,305.154H272.217l5,5V225.9l-5,5h84.258l-5-5v84.259a5,5,0,0,0,10,0V225.9a5.073,5.073,0,0,0-5-5H272.217a5.073,5.073,0,0,0-5,5v84.259a5.072,5.072,0,0,0,5,5h84.258a5,5,0,0,0,0-10Z"/></g></svg>