<svg xmlns="http://www.w3.org/2000/svg" viewBox="0 0 440.09 415.287"><defs><style>.cls-1{fill:#efcf47;}.cls-2{fill:#231f20;}</style></defs><title>pointer-block</title><g id="LZ_initial" data-name="LZ initial"><rect class="cls-1" x="93.657" y="217.129" width="84.259" height="84.259"/><path class="cls-2" d="M172.916,217.129v84.259l5-5H93.657l5,5V217.129l-5,5h84.259a5,5,0,0,0,0-10H93.657a5.073,5.073,0,0,0-5,5v84.259a5.073,5.073,0,0,0,5,5h84.259a5.073,5.073,0,0,0,5-5V217.129a5,5,0,1,0-10,0Z"/><rect class="cls-1" x="177.916" y="217.129" width="84.259" height="84.259"/><path class="cls-2" d="M257.174,217.129v84.259l5-5H177.916l5,5V217.129l-5,5h84.258a5,5,0,0,0,0-10H177.916a5.073,5.073,0,0,0-5,5v84.259a5.072,5.072,0,0,0,5,5h84.258a5.073,5.073,0,0,0,5-5V217.129a5,5,0,0,0-10,0Z"/><rect class="cls-1" x="262.174" y="217.129" width="84.259" height="84.259"/><path class="cls-2" d="M341.433,217.129v84.259l5-5H262.174l5,5V217.129l-5,5h84.259a5,5,0,0,0,0-10H262.174a5.073,5.073,0,0,0-5,5v84.259a5.073,5.073,0,0,0,5,5h84.259a5.073,5.073,0,0,0,5-5V217.129a5,5,0,0,0-10,0Z"/><rect class="cls-1" x="177.916" y="132.871" width="84.259" height="84.259"/><path class="cls-2" d="M257.174,132.871v84.258l5-5H177.916l5,5V132.871l-5,5h84.258a5,5,0,0,0,0-10H177.916a5.072,5.072,0,0,0-5,5v84.258a5.072,5.072,0,0,0,5,5h84.258a5.072,5.072,0,0,0,5-5V132.871a5,5,0,0,0-10,0Z"/></g></svg>