<svg xmlns="http://www.w3.org/2000/svg" viewBox="0 0 443.067 422.404"><defs><style>.cls-1{fill:#efcf47;}.cls-2{fill:#231f20;}.cls-3{fill:#1e2d3a;}</style></defs><title>icon-instagram</title><g id="ins"><rect class="cls-1" x="118.613" y="112.399" width="203.302" height="203.302" rx="15.528"/><path class="cls-2" d="M306.388,310.7h-170.2c-.657,0-1.314,0-1.971,0-.143,0-.282,0-.427,0-.348-.008-.694-.036-1.042-.058-.964-.059.907.189-.031,0a18.258,18.258,0,0,1-2.28-.591,4.567,4.567,0,0,1-.626-.229c-.007-.042.93.452.432.18-.289-.157-.6-.283-.888-.438q-.507-.271-.994-.579c-.138-.088-.273-.183-.411-.271-.235-.151-.7-.256-.157-.089.557.172.113.1-.133-.118-.123-.108-.249-.212-.37-.321q-.364-.329-.707-.679c-.267-.272-.517-.559-.769-.846-.048-.054-.315-.31-.311-.379,0,.1.6.866.2.224-.381-.6-.77-1.194-1.094-1.832-.074-.147-.142-.3-.218-.445-.353-.685.093.277.112.281-.116-.022-.342-.971-.383-1.1a21.723,21.723,0,0,0-.493-2.14c.006.016.095,1.039.07.478-.007-.172-.033-.345-.044-.517-.023-.35-.032-.7-.035-1.049,0-.124,0-.248,0-.372q0-1.335,0-2.67V128.625c0-.212,0-.423,0-.635,0-.2,0-.393.01-.59a6.78,6.78,0,0,0,.086-1.211c0,.012-.177,1.028-.059.481.036-.166.058-.336.092-.5a18.829,18.829,0,0,1,.638-2.261c.279-.836-.442.83.078-.179.151-.294.3-.589.457-.877q.281-.5.6-.981c.089-.134.2-.264.279-.4.3-.538-.619.672-.188.23.494-.507.924-1.067,1.443-1.555.279-.261.581-.494.863-.751.41-.374-.358.315-.364.283a3.238,3.238,0,0,1,.538-.373,18.185,18.185,0,0,1,1.857-1.056,1.982,1.982,0,0,1,.45-.209c.051.027-.985.343-.426.19.427-.117.841-.3,1.269-.419q.486-.138.982-.244c.221-.047.446-.079.667-.127.548-.117-.469.062-.481.06a11.143,11.143,0,0,0,1.74-.1c.478,0,.956,0,1.434,0H300.119c2.07,0,4.141-.016,6.211,0,.311,0,.622.008.933.025.23.013.46.044.691.054.561.024-.463-.064-.478-.071a6.078,6.078,0,0,0,1,.191c.238.053,2.2.434,2.24.686.006.041-.929-.451-.431-.181.193.105.4.187.6.287q.441.224.866.475c.33.2.643.414.967.619.242.153.484.139.021,0-.5-.154-.112-.1.134.119a18.293,18.293,0,0,1,1.524,1.475c.117.131.634.58.633.749,0-.144-.574-.832-.2-.224.115.186.246.362.363.547.385.606.675,1.253,1.018,1.881.271.5-.222-.437-.181-.431a2.431,2.431,0,0,1,.174.468c.143.424.28.847.392,1.281q.127.49.223.99c.22,1.156-.021-.722.035.2.028.467.057.931.061,1.4,0,.141,0,.281,0,.422q.006,3.922,0,7.844V299.544c0,.191,0,.381,0,.571,0,.253,0,.506-.015.759a6.757,6.757,0,0,0-.081,1.037c-.106-.854.128-.78.032-.313-.035.166-.064.333-.1.5a19.356,19.356,0,0,1-.6,2.1c-.294.881.413-.795-.006.03-.174.343-.339.69-.528,1.026q-.242.429-.51.843c-.089.137-.187.269-.274.408-.377.609.2-.079.2-.224,0,.35-1.062,1.212-1.311,1.456-.273.268-.56.517-.846.769-.054.048-.311.315-.379.311s.858-.575.357-.291c-.619.35-1.184.783-1.819,1.114-.195.1-.395.193-.592.293s-.592.13-.01.012c.714-.144-.287.09-.493.158a18.888,18.888,0,0,1-2.122.538c-.892.184,1.085-.084-.2.017-.407.031-.813.043-1.221.048a5,5,0,1,0,0,10,20.756,20.756,0,0,0,18.019-10.694,21.618,21.618,0,0,0,2.508-10.247q.006-4.014,0-8.03V135.968c0-2.573.006-5.147,0-7.72A20.53,20.53,0,0,0,306.382,107.4c-1.873-.017-3.747,0-5.619,0H135.428c-.662,0-1.327-.014-1.988.015a20.663,20.663,0,0,0-17.617,11.267,22.142,22.142,0,0,0-2.21,9.715q0,1.454,0,2.907V297.345c0,5,.473,9.917,3.45,14.2a20.934,20.934,0,0,0,17.093,9.154c.552,0,1.1,0,1.658,0H306.388a5,5,0,0,0,0-10Z"/><circle class="cls-3" cx="218.281" cy="215.292" r="40.212"/><path class="cls-2" d="M253.493,215.292c0,1.049-.04,2.1-.121,3.142q-.053.689-.13,1.376a3.15,3.15,0,0,1-.082.683q.144-1.059.059-.481c-.025.169-.051.338-.079.507a39.975,39.975,0,0,1-1.435,5.9c-.292.9-.666,1.767-.971,2.66-.218.636.414-.88.118-.277-.121.247-.223.505-.338.756q-.345.75-.721,1.485a40.253,40.253,0,0,1-2.974,4.916c-.209.3-.549.994-.872,1.188.06-.037.75-.931.176-.24-.139.168-.274.339-.413.507q-.992,1.2-2.072,2.311-.966,1-2,1.928-.486.437-.985.858c-.209.176-.421.347-.631.521-.612.509-.107.272.112-.074a8.928,8.928,0,0,1-2.407,1.7q-1.238.809-2.532,1.525t-2.65,1.34c-.2.093-.4.18-.6.272-.585.268.048.188.279-.115-.22.288-1.205.475-1.551.6a40.1,40.1,0,0,1-5.823,1.626q-.668.133-1.34.243a3.307,3.307,0,0,1-.675.1c.373.226,1.016-.125.138-.023-1.091.127-2.188.21-3.285.247a40.674,40.674,0,0,1-6.094-.247c-.878-.1-.235.249.138.023a3.318,3.318,0,0,1-.676-.1q-.672-.109-1.34-.243-1.572-.314-3.117-.752-1.367-.389-2.705-.874c-.417-.151-.828-.317-1.243-.475-1.049-.4.785.367.123.056-.249-.117-.5-.222-.756-.338a40.11,40.11,0,0,1-5.182-2.865,8.944,8.944,0,0,1-2.407-1.7c.04.063.928.748.24.177-.168-.139-.339-.275-.507-.414q-.628-.522-1.237-1.068a40.542,40.542,0,0,1-4.07-4.239c-.139-.168-.275-.339-.414-.507-.573-.691.117.2.177.24-.323-.194-.663-.892-.872-1.188q-.9-1.272-1.7-2.611-.674-1.131-1.274-2.305-.339-.662-.652-1.336c-.116-.25-.226-.5-.341-.753-.384-.839.254.716.052.125-.652-1.91-1.365-3.76-1.837-5.731q-.334-1.4-.569-2.828a3.318,3.318,0,0,1-.1-.676c-.127.209.12,1.033.042.309-.061-.572-.125-1.144-.169-1.718a40.575,40.575,0,0,1,0-6.285q.06-.774.15-1.547c.026-.223.228-.9.02-.187-.241.815.04-.214.062-.35q.248-1.507.609-2.993.338-1.388.774-2.748.23-.716.486-1.422c.115-.318.313-1.355.6-1.551-.04.028-.5,1.127-.115.28.091-.2.179-.4.272-.6q.31-.675.646-1.339.707-1.395,1.519-2.733.681-1.121,1.435-2.2c.283-.4.582-.792.868-1.191.421-.586-.786.957-.078.109.175-.209.344-.423.519-.632a40.339,40.339,0,0,1,4.087-4.222q.549-.49,1.115-.96c.168-.139.339-.274.507-.413.391-.327.128-.385-.24.176a8.95,8.95,0,0,1,2.407-1.7,40.237,40.237,0,0,1,5.182-2.866c.2-.092.4-.18.6-.272,1.018-.467-.812.3-.125.052.468-.171.928-.367,1.4-.537q1.416-.513,2.867-.919,1.382-.387,2.789-.673c.5-.1,1-.194,1.506-.277.22-.036.463-.05.676-.1-1.3.333-.325.043.033,0a40.68,40.68,0,0,1,6.272-.213q1.386.059,2.765.213c.154.017,1.16.276.358.04-.716-.211-.032,0,.182.035q.84.135,1.675.3a39.886,39.886,0,0,1,5.812,1.65c.278.1,1.23.316,1.4.542-.031-.042-1.124-.5-.279-.115.2.092.4.18.6.272q1.35.621,2.65,1.34t2.532,1.526a9.294,9.294,0,0,1,2.407,1.7c-.376-.568-.627-.5-.239-.176.21.174.423.343.632.518q.564.472,1.111.964,1.093.982,2.112,2.045.963,1,1.854,2.068c.175.209.344.422.518.632.324.388.393.137-.176-.239a5.345,5.345,0,0,1,.966,1.321,40.263,40.263,0,0,1,3.029,5.076q.3.591.572,1.192c.092.2.18.4.272.6.385.844-.073-.249-.115-.28.226.165.44,1.117.542,1.4q.288.783.543,1.578a39.934,39.934,0,0,1,1.411,5.909c.034.214.246.9.035.182-.236-.8.023.2.04.358q.077.687.13,1.376c.081,1.046.117,2.094.121,3.143a5,5,0,0,0,10,0,45.114,45.114,0,0,0-8.134-25.848,46.354,46.354,0,0,0-21.874-16.727,45.407,45.407,0,0,0-49.911,13.635,46.112,46.112,0,0,0-10.383,25.8,45.107,45.107,0,0,0,26.08,44.147,46.315,46.315,0,0,0,28.236,3.254c17.841-3.553,32.533-18.7,35.329-36.71a50.523,50.523,0,0,0,.657-7.548,5,5,0,1,0-10,0Z"/><circle class="cls-3" cx="272.247" cy="156.662" r="7.836"/><path class="cls-2" d="M275.083,156.662a9.781,9.781,0,0,1-.074,1.081l.179-1.329a8.6,8.6,0,0,1-.562,2.016l.5-1.194a8.67,8.67,0,0,1-1.049,1.757l.781-1.011a8.808,8.808,0,0,1-1.3,1.295l1.012-.782a8.614,8.614,0,0,1-1.758,1.049l1.195-.5A8.577,8.577,0,0,1,272,159.6l1.329-.178a8.69,8.69,0,0,1-2.162,0l1.329.178a8.556,8.556,0,0,1-2.016-.562l1.194.5a8.614,8.614,0,0,1-1.758-1.049l1.012.782a8.808,8.808,0,0,1-1.3-1.295l.782,1.011a8.58,8.58,0,0,1-1.049-1.757l.5,1.194a8.556,8.556,0,0,1-.562-2.016l.178,1.329a8.69,8.69,0,0,1,0-2.162l-.178,1.329a8.577,8.577,0,0,1,.562-2.017l-.5,1.195a8.614,8.614,0,0,1,1.049-1.758l-.782,1.012a8.815,8.815,0,0,1,1.3-1.3l-1.012.782a8.659,8.659,0,0,1,1.758-1.049l-1.194.5a8.6,8.6,0,0,1,2.016-.562l-1.329.179a8.69,8.69,0,0,1,2.162,0L272,153.721a8.625,8.625,0,0,1,2.017.562l-1.195-.5a8.659,8.659,0,0,1,1.758,1.049l-1.012-.782a8.864,8.864,0,0,1,1.3,1.3l-.781-1.012a8.705,8.705,0,0,1,1.049,1.758l-.5-1.195a8.625,8.625,0,0,1,.562,2.017l-.179-1.329a9.764,9.764,0,0,1,.074,1.081,5,5,0,0,0,10,0,12.7,12.7,0,0,0-2.183-7.135,13.636,13.636,0,0,0-6.514-5,12.761,12.761,0,0,0-13.761,3.668,13.688,13.688,0,0,0-3.177,7.709,12.738,12.738,0,0,0,7.084,12.236,13.7,13.7,0,0,0,8.441,1.057,12.224,12.224,0,0,0,6.832-3.983,13.33,13.33,0,0,0,3.278-8.549,5,5,0,1,0-10,0Z"/></g></svg>