<svg id="Layer_1" data-name="Layer 1" xmlns="http://www.w3.org/2000/svg" viewBox="0 0 264.27 278.292"><defs><style>.cls-1{fill:#754928;}.cls-2{fill:#ead994;}.cls-3{fill:#f8e9d4;}.cls-4{fill:#cbddda;}.cls-5,.cls-7{fill:#231f20;}.cls-6{fill:#efeded;}.cls-7{font-size:6px;font-family:OpenSans-Regular, Open Sans;}</style></defs><title>coder</title><path class="cls-1" d="M188.773,156.963a68.4,68.4,0,0,0-53.326-62.721,49.675,49.675,0,0,1,18.508-4.781c30.8-1.81,57.442,25.167,59.5,60.254s-14.767,68.991,10.725,86.372c4.077,2.78-44.787-3.16-64.853-16.2C177.745,206.661,190.2,181.266,188.773,156.963Z"/><path class="cls-2" d="M132.674,88.717V57.436c0-3.217-5-3.222-5,0V88.717c0,3.217,5,3.223,5,0Z"/><circle class="cls-3" cx="126.495" cy="165.076" r="65.258"/><path class="cls-1" d="M132.631,137.587c.139.257.288.508.433.762.162-.284.325-.566.48-.853C133.24,137.527,132.937,137.561,132.631,137.587Z"/><path class="cls-1" d="M170.848,84.245q-2.934-1.655-6-3.085a87.077,87.077,0,0,0-71.614-.75q-3.9,1.718-7.593,3.8C68.749,93.717,55.5,109.422,48.024,127.482,51.487,146.531,70.046,160.37,92.6,160.37c17.7,0,33.01-8.963,40.464-22.021-.145-.254-.294-.5-.433-.762a35.825,35.825,0,0,1,.433-35.165,35.816,35.816,0,0,1,.48,35.074c-.155.287-.318.569-.48.853,7.454,13.058,22.769,22.021,40.464,22.021,16.837,0,30.989-7.853,38.8-19.889C206.744,116.478,191.742,96.034,170.848,84.245Z"/><path class="cls-1" d="M137.9,120.385a36.057,36.057,0,0,0-4.831-17.963,35.825,35.825,0,0,0-.433,35.165c.306-.026.609-.06.913-.091A35.989,35.989,0,0,0,137.9,120.385Z"/><path class="cls-1" d="M65.551,161.61a65.273,65.273,0,0,1,47.286-62.732,47.4,47.4,0,0,0-17.9-3.518c-29.442,0-53.309,27.188-53.309,60.728s17.928,64.892-5.382,82.876c-3.729,2.876,38.231-4.405,56.615-17.954C74.583,209.446,65.551,184.841,65.551,161.61Z"/><path class="cls-4" d="M115.577,176.582c0,.755-.028,1.509-.085,2.263-.025.343-.057.687-.094,1.029-.13,1.183.131-.658-.028.195a34.924,34.924,0,0,1-1.066,4.413c-.206.633-.462,1.246-.678,1.875s.414-.884.12-.28c-.072.148-.134.3-.2.451-.161.35-.328.7-.5,1.038a29.934,29.934,0,0,1-2.19,3.648c-.116.165-.463.844-.674.923-.03.011.654-.79.28-.37-.108.121-.206.254-.31.379q-.727.876-1.522,1.7-.68.7-1.4,1.358-.421.384-.859.75c-.125.105-.252.206-.376.312-.554.47.189-.035.242-.178-.16.431-1.347.971-1.734,1.224q-.891.582-1.821,1.1t-1.9.971c-.189.088-1.172.435-.46.215s-.57.211-.792.291a29.663,29.663,0,0,1-4.189,1.177c-.332.067-.666.129-1,.185-1.278.215.734-.059-.192.037-.746.078-1.491.143-2.24.173a32.311,32.311,0,0,1-4.686-.173c-.969-.1.929.162-.025-.009-.334-.06-.669-.114-1-.18q-1.156-.228-2.292-.547-1.043-.293-2.063-.663c-.312-.112-.617-.246-.93-.354-.539-.185.462.179.431.187-.109.028-.5-.22-.6-.269a29.944,29.944,0,0,1-3.874-2.142c-.369-.241-1.582-.819-1.734-1.224-.011-.029.79.654.37.28-.121-.108-.254-.206-.379-.309q-.438-.365-.863-.746a30.153,30.153,0,0,1-3.047-3.164c-.1-.124-.2-.262-.309-.379-.39-.413.318.384.279.37-.187-.07-.461-.622-.58-.789q-.661-.933-1.252-1.915-.507-.844-.957-1.72c-.176-.342-.344-.687-.507-1.035-.069-.15-.136-.3-.2-.45-.327-.7.02.244.115.282-.31-.124-.631-1.694-.74-2.028q-.361-1.114-.634-2.256-.236-.987-.4-1.989c-.2-1.192.058.717-.037-.192-.041-.4-.083-.8-.113-1.2a30.256,30.256,0,0,1,0-4.526c.03-.4.071-.8.113-1.2.1-.969-.161.93.009-.025.139-.778.283-1.552.471-2.32q.24-.975.544-1.934c.1-.323.471-2.058.791-2.186.024-.01-.428.94-.182.433.072-.148.134-.3.2-.452.16-.349.328-.695.5-1.037q.483-.951,1.032-1.867T70.5,161.95c.187-.267.388-.525.575-.793.318-.455-.28.389-.283.367-.021-.12.443-.545.516-.631a30.046,30.046,0,0,1,2.942-3.039q.364-.327.738-.641c.125-.1.253-.206.377-.312.486-.416-.108-.149-.243.177.176-.424,1.346-.969,1.734-1.223a29.825,29.825,0,0,1,3.874-2.142c.15-.069.3-.131.452-.2.507-.246-.443.206-.434.182.052-.129.785-.306.928-.359q1.095-.4,2.219-.719,1.053-.3,2.126-.514c.332-.067.666-.129,1-.185,1.171-.2-.679.053.193-.037A32.454,32.454,0,0,1,91.9,151.7q1.037.042,2.069.155c1.18.129-.71-.134.2.028.39.069.78.134,1.168.213a29.663,29.663,0,0,1,4.189,1.177c.211.076,1.008.239,1.084.415.01.024-.941-.428-.433-.182.148.072.3.134.451.2q1.046.48,2.053,1.041.858.479,1.684,1.012c.392.252,1.7.864,1.871,1.312.012.03-.789-.653-.369-.279.121.108.254.2.378.309q.44.364.863.746.788.706,1.525,1.467t1.418,1.572c.132.158.854.888.325.383-.459-.438-.105-.142,0,.012.159.221.321.439.478.662a29.934,29.934,0,0,1,2.19,3.648c.149.293.293.59.432.888.07.149.136.3.206.45.4.861-.1-.275-.116-.282.291.116.638,1.712.74,2.027a33.285,33.285,0,0,1,1.066,4.413c.171.955-.092-.944.009.025.036.342.073.684.1,1.028.065.81.093,1.622.1,2.435a5,5,0,0,0,10,0,35.364,35.364,0,0,0-23.243-32.892,35.012,35.012,0,0,0-38.308,10.383,35.775,35.775,0,0,0-8.156,20.074,34.8,34.8,0,0,0,19.961,34.007,35.945,35.945,0,0,0,21.992,2.586c13.742-2.71,25.134-14.477,27.242-28.349a39.977,39.977,0,0,0,.512-5.809,5,5,0,0,0-10,0Z"/><path class="cls-4" d="M120.577,181.582h13.094a5,5,0,0,0,0-10H120.577a5,5,0,0,0,0,10Z"/><path class="cls-4" d="M188.476,176.582c0,.755-.028,1.509-.085,2.263-.025.343-.057.687-.095,1.029-.129,1.183.132-.658-.027.195a34.924,34.924,0,0,1-1.066,4.413c-.206.633-.462,1.246-.678,1.875s.414-.884.12-.28c-.072.148-.134.3-.2.451-.16.35-.327.7-.5,1.038a29.815,29.815,0,0,1-2.191,3.648c-.115.165-.462.844-.673.923-.03.011.654-.79.279-.37-.108.121-.2.254-.309.379q-.727.876-1.522,1.7-.679.7-1.4,1.358-.422.384-.859.75c-.125.105-.252.206-.377.312-.553.47.19-.035.243-.178-.16.431-1.348.971-1.734,1.224q-.891.582-1.821,1.1t-1.9.971c-.188.088-1.171.435-.459.215s-.57.211-.792.291a29.663,29.663,0,0,1-4.189,1.177c-.332.067-.666.129-1,.185-1.278.215.734-.059-.193.037-.745.078-1.49.143-2.239.173a32.306,32.306,0,0,1-4.686-.173c-.969-.1.929.162-.025-.009-.334-.06-.669-.114-1-.18q-1.157-.228-2.292-.547-1.044-.293-2.063-.663c-.312-.112-.617-.246-.93-.354-.539-.185.462.179.431.187-.109.028-.495-.22-.6-.269a29.944,29.944,0,0,1-3.874-2.142c-.369-.241-1.582-.819-1.734-1.224-.012-.029.79.654.37.28-.122-.108-.254-.206-.379-.309q-.439-.365-.863-.746a30.052,30.052,0,0,1-3.047-3.164c-.1-.124-.2-.262-.309-.379-.39-.413.318.384.279.37-.187-.07-.461-.622-.58-.789q-.661-.933-1.252-1.915-.507-.844-.957-1.72-.264-.513-.507-1.035c-.07-.15-.136-.3-.206-.45-.327-.7.021.244.116.282-.31-.124-.631-1.694-.74-2.028q-.361-1.114-.634-2.256-.236-.987-.4-1.989c-.2-1.192.058.717-.037-.192-.041-.4-.083-.8-.113-1.2a30.256,30.256,0,0,1,0-4.526c.03-.4.071-.8.113-1.2.1-.969-.162.93.009-.025.139-.778.283-1.552.471-2.32q.24-.975.544-1.934c.1-.323.47-2.058.791-2.186.023-.01-.428.94-.182.433.072-.148.134-.3.2-.452q.24-.523.5-1.037.483-.951,1.032-1.867t1.159-1.781c.187-.267.388-.525.575-.793.318-.455-.28.389-.284.367-.02-.12.444-.545.516-.631a30.056,30.056,0,0,1,2.943-3.039q.364-.327.738-.641c.125-.1.253-.206.377-.312.486-.416-.108-.149-.243.177.176-.424,1.346-.969,1.734-1.223a29.825,29.825,0,0,1,3.874-2.142c.15-.069.3-.131.452-.2.507-.246-.443.206-.434.182.052-.129.785-.306.927-.359q1.095-.4,2.22-.719,1.053-.3,2.126-.514c.332-.067.666-.129,1-.185,1.171-.2-.679.053.193-.037a32.449,32.449,0,0,1,4.686-.174q1.037.042,2.069.155c1.18.129-.71-.134.195.028.39.069.78.134,1.168.213a29.663,29.663,0,0,1,4.189,1.177c.211.076,1.008.239,1.084.415.01.024-.941-.428-.434-.182.148.072.3.134.452.2q1.046.48,2.053,1.041.858.479,1.684,1.012c.392.252,1.7.864,1.871,1.312.011.03-.79-.653-.37-.279.122.108.254.2.379.309q.44.364.863.746.788.706,1.525,1.467t1.418,1.572c.132.158.854.888.325.383-.459-.438-.1-.142,0,.012.159.221.321.439.477.662a29.941,29.941,0,0,1,2.191,3.648c.149.293.293.59.432.888.07.149.136.3.206.45.4.861-.1-.275-.116-.282.291.116.637,1.712.74,2.027a33.285,33.285,0,0,1,1.066,4.413c.171.955-.092-.944.009.025.035.342.073.684.1,1.028.066.81.093,1.622.1,2.435a5,5,0,0,0,10,0,35.364,35.364,0,0,0-23.243-32.892,35.012,35.012,0,0,0-38.308,10.383,35.775,35.775,0,0,0-8.156,20.074,34.8,34.8,0,0,0,19.961,34.007,35.945,35.945,0,0,0,21.992,2.586c13.742-2.71,25.134-14.477,27.242-28.349a40.118,40.118,0,0,0,.512-5.809,5,5,0,0,0-10,0Z"/><path class="cls-5" d="M162.108,185.511l.519,2.078a16.615,16.615,0,0,1-5.4.853q-4.983,0-7.66-2.984a9.1,9.1,0,0,1-2.318-6.3A9.324,9.324,0,0,1,150,172.309a9.223,9.223,0,0,1,6.808-2.757,8.995,8.995,0,0,1,6.3,2.271,7.426,7.426,0,0,1,2.491,5.735,6.232,6.232,0,0,1-1.585,4.363,5.163,5.163,0,0,1-3.983,1.738,3.853,3.853,0,0,1-2.045-.473,1.437,1.437,0,0,1-.766-1.272,4.163,4.163,0,0,1,.146-.959l.506-1.932a2.249,2.249,0,0,0,.054-.519.942.942,0,0,0-1.053-1.079,1.54,1.54,0,0,0-1.139.5,1.606,1.606,0,0,0-.486,1.153q0,.852.813.852a2.13,2.13,0,0,0,.746-.133l-1.2,3.3a4.782,4.782,0,0,1-.706.066,2.962,2.962,0,0,1-3.171-3.183,5.723,5.723,0,0,1,1.739-4.15,5.561,5.561,0,0,1,4.1-1.765,4.08,4.08,0,0,1,2.724.872,2.847,2.847,0,0,1,1.033,2.285,5.483,5.483,0,0,1-.173,1.292l-.4,1.612-.08.28a2.561,2.561,0,0,0-.107.666q0,.639.587.639.9,0,1.651-1.292a5.617,5.617,0,0,0,.746-2.864,5.5,5.5,0,0,0-1.845-4.3,6.947,6.947,0,0,0-4.815-1.652,7.039,7.039,0,0,0-5.282,2.152,7.5,7.5,0,0,0-2.085,5.442,7.261,7.261,0,0,0,1.625,4.795q1.985,2.4,6.128,2.4A14.418,14.418,0,0,0,162.108,185.511Z"/><path class="cls-5" d="M100.746,186.511l.519,2.078a16.615,16.615,0,0,1-5.395.853q-4.981,0-7.66-2.984a9.1,9.1,0,0,1-2.318-6.3,9.324,9.324,0,0,1,2.744-6.848,9.223,9.223,0,0,1,6.808-2.757,8.995,8.995,0,0,1,6.3,2.271,7.426,7.426,0,0,1,2.491,5.735,6.228,6.228,0,0,1-1.585,4.363,5.163,5.163,0,0,1-3.983,1.738,3.853,3.853,0,0,1-2.045-.473,1.437,1.437,0,0,1-.766-1.272,4.163,4.163,0,0,1,.146-.959l.507-1.932a2.309,2.309,0,0,0,.053-.519.942.942,0,0,0-1.053-1.079,1.541,1.541,0,0,0-1.139.5,1.606,1.606,0,0,0-.486,1.153q0,.852.813.852a2.13,2.13,0,0,0,.746-.133l-1.2,3.3a4.782,4.782,0,0,1-.706.066,2.963,2.963,0,0,1-3.171-3.183,5.723,5.723,0,0,1,1.739-4.15,5.561,5.561,0,0,1,4.1-1.765,4.08,4.08,0,0,1,2.724.872,2.847,2.847,0,0,1,1.033,2.285,5.483,5.483,0,0,1-.173,1.292l-.4,1.612-.08.28a2.561,2.561,0,0,0-.107.666q0,.639.587.639.906,0,1.651-1.292a5.617,5.617,0,0,0,.746-2.864,5.5,5.5,0,0,0-1.845-4.3,6.947,6.947,0,0,0-4.815-1.652,7.039,7.039,0,0,0-5.282,2.152,7.5,7.5,0,0,0-2.085,5.442,7.261,7.261,0,0,0,1.625,4.795q1.985,2.4,6.128,2.4A14.418,14.418,0,0,0,100.746,186.511Z"/><rect class="cls-6" x="90.675" y="8.798" width="81.91" height="48.638"/><rect class="cls-4" x="90.675" y="8.798" width="81.91" height="12.944"/><text class="cls-7" transform="translate(102.202 33.582)">Lorem ipsum dolor <tspan x="0" y="7.2">sit amet, </tspan><tspan x="0" y="14.4">consectetuer </tspan></text></svg>