<svg id="Layer_1" data-name="Layer 1" xmlns="http://www.w3.org/2000/svg" viewBox="0 0 1280 678"><defs><style>.cls-1{fill:#efcf47;}.cls-2{fill:#231f20;}.cls-3{fill:#986026;}.cls-4{fill:#eeaf1e;}.cls-5{fill:#f2d598;}.cls-6{font-size:46px;fill:#fff;font-family:OpenSans-Regular, Open Sans;}</style></defs><title>graphic skills</title><rect class="cls-1" x="80.337" y="248.172" width="69.821" height="69.821"/><path class="cls-2" d="M150.159,312.993H80.337l5,5V248.172l-5,5h69.822l-5-5v69.821c0,6.434,10,6.445,10,0V248.172a5.073,5.073,0,0,0-5-5H80.337a5.073,5.073,0,0,0-5,5v69.821a5.073,5.073,0,0,0,5,5h69.822C156.593,322.993,156.6,312.993,150.159,312.993Z"/><rect class="cls-1" x="80.337" y="318.848" width="69.821" height="69.821"/><path class="cls-2" d="M150.159,383.669H80.337l5,5V318.848l-5,5h69.822l-5-5v69.821c0,6.434,10,6.445,10,0V318.848a5.073,5.073,0,0,0-5-5H80.337a5.073,5.073,0,0,0-5,5v69.821a5.073,5.073,0,0,0,5,5h69.822C156.593,393.669,156.6,383.669,150.159,383.669Z"/><rect class="cls-1" x="80.337" y="389.919" width="69.821" height="69.821"/><path class="cls-2" d="M150.159,454.74H80.337l5,5V389.919l-5,5h69.822l-5-5V459.74c0,6.434,10,6.445,10,0V389.919a5.073,5.073,0,0,0-5-5H80.337a5.073,5.073,0,0,0-5,5V459.74a5.073,5.073,0,0,0,5,5h69.822C156.593,464.74,156.6,454.74,150.159,454.74Z"/><rect class="cls-3" x="80.337" y="460.264" width="69.821" height="69.821"/><path class="cls-2" d="M150.159,525.085H80.337l5,5V460.264l-5,5h69.822l-5-5v69.821c0,6.434,10,6.445,10,0V460.264a5.073,5.073,0,0,0-5-5H80.337a5.073,5.073,0,0,0-5,5v69.821a5.073,5.073,0,0,0,5,5h69.822C156.593,535.085,156.6,525.085,150.159,525.085Z"/><rect class="cls-3" x="80.337" y="531.595" width="69.821" height="69.821"/><path class="cls-2" d="M150.159,596.417H80.337l5,5V531.6l-5,5h69.822l-5-5v69.822c0,6.434,10,6.445,10,0V531.6a5.073,5.073,0,0,0-5-5H80.337a5.073,5.073,0,0,0-5,5v69.822a5.073,5.073,0,0,0,5,5h69.822C156.593,606.417,156.6,596.417,150.159,596.417Z"/><rect class="cls-3" x="80.337" y="601.27" width="69.821" height="69.821"/><path class="cls-2" d="M150.159,666.091H80.337l5,5V601.27l-5,5h69.822l-5-5v69.821c0,6.435,10,6.445,10,0V601.27a5.073,5.073,0,0,0-5-5H80.337a5.073,5.073,0,0,0-5,5v69.821a5.073,5.073,0,0,0,5,5h69.822C156.593,676.091,156.6,666.091,150.159,666.091Z"/><rect class="cls-3" x="150.159" y="601.27" width="69.821" height="69.821"/><path class="cls-2" d="M219.98,666.091H150.159l5,5V601.27l-5,5H219.98l-5-5v69.821c0,6.435,10,6.445,10,0V601.27a5.073,5.073,0,0,0-5-5H150.159a5.072,5.072,0,0,0-5,5v69.821a5.073,5.073,0,0,0,5,5H219.98C226.415,676.091,226.425,666.091,219.98,666.091Z"/><rect class="cls-1" x="150.159" y="318.848" width="69.821" height="69.821"/><path class="cls-2" d="M219.98,383.669H150.159l5,5V318.848l-5,5H219.98l-5-5v69.821c0,6.434,10,6.445,10,0V318.848a5.073,5.073,0,0,0-5-5H150.159a5.072,5.072,0,0,0-5,5v69.821a5.073,5.073,0,0,0,5,5H219.98C226.415,393.669,226.425,383.669,219.98,383.669Z"/><rect class="cls-4" x="150.159" y="389.919" width="69.821" height="69.821"/><path class="cls-2" d="M219.98,454.74H150.159l5,5V389.919l-5,5H219.98l-5-5V459.74c0,6.434,10,6.445,10,0V389.919a5.073,5.073,0,0,0-5-5H150.159a5.072,5.072,0,0,0-5,5V459.74a5.073,5.073,0,0,0,5,5H219.98C226.415,464.74,226.425,454.74,219.98,454.74Z"/><rect class="cls-4" x="150.159" y="460.264" width="69.821" height="69.821"/><path class="cls-2" d="M219.98,525.085H150.159l5,5V460.264l-5,5H219.98l-5-5v69.821c0,6.434,10,6.445,10,0V460.264a5.073,5.073,0,0,0-5-5H150.159a5.072,5.072,0,0,0-5,5v69.821a5.073,5.073,0,0,0,5,5H219.98C226.415,535.085,226.425,525.085,219.98,525.085Z"/><rect class="cls-4" x="150.159" y="531.595" width="69.821" height="69.821"/><path class="cls-2" d="M219.98,596.417H150.159l5,5V531.6l-5,5H219.98l-5-5v69.822c0,6.434,10,6.445,10,0V531.6a5.073,5.073,0,0,0-5-5H150.159a5.073,5.073,0,0,0-5,5v69.822a5.073,5.073,0,0,0,5,5H219.98C226.415,606.417,226.425,596.417,219.98,596.417Z"/><rect class="cls-5" x="346.83" y="603.946" width="69.821" height="69.821" transform="translate(-2.921 1.754) rotate(-0.262)"/><path class="cls-2" d="M351.99,673.926l-.32-69.82-5,5,69.821-.32-5-5,.32,69.821,5-5-69.821.319c-6.433.03-6.446,10.03,0,10l69.821-.319a5.073,5.073,0,0,0,5-5l-.32-69.821a5.072,5.072,0,0,0-5-5l-69.821.32a5.072,5.072,0,0,0-5,5l.32,69.82C342.02,680.359,352.02,680.373,351.99,673.926Z"/><rect class="cls-5" x="275.582" y="603.946" width="69.821" height="69.821" transform="translate(-2.922 1.428) rotate(-0.262)"/><path class="cls-2" d="M280.742,673.926l-.319-69.82-5,5,69.82-.32-5-5,.32,69.821,5-5-69.821.319c-6.433.03-6.446,10.03,0,10l69.821-.319a5.073,5.073,0,0,0,5-5l-.32-69.821a5.072,5.072,0,0,0-5-5l-69.82.32a5.071,5.071,0,0,0-5,5l.319,69.82C270.772,680.359,280.772,680.373,280.742,673.926Z"/><rect class="cls-5" x="346.83" y="531.436" width="69.821" height="69.821" transform="translate(-2.589 1.754) rotate(-0.262)"/><path class="cls-2" d="M351.99,601.417l-.32-69.821-5,5,69.821-.32-5-5,.32,69.821,5-5-69.821.32c-6.433.029-6.446,10.029,0,10l69.821-.32a5.073,5.073,0,0,0,5-5l-.32-69.821a5.073,5.073,0,0,0-5-5l-69.821.32a5.073,5.073,0,0,0-5,5l.32,69.821C342.02,607.85,352.02,607.863,351.99,601.417Z"/><rect class="cls-5" x="275.582" y="531.436" width="69.821" height="69.821" transform="translate(-2.59 1.427) rotate(-0.262)"/><path class="cls-2" d="M280.742,601.417l-.319-69.821-5,5,69.82-.32-5-5,.32,69.821,5-5-69.821.32c-6.433.029-6.446,10.029,0,10l69.821-.32a5.073,5.073,0,0,0,5-5l-.32-69.821a5.073,5.073,0,0,0-5-5l-69.82.32a5.071,5.071,0,0,0-5,5l.319,69.821C270.772,607.85,280.772,607.863,280.742,601.417Z"/><rect class="cls-5" x="346.83" y="460.104" width="69.821" height="69.821" transform="translate(-2.262 1.753) rotate(-0.262)"/><path class="cls-2" d="M351.99,530.085l-.32-69.821-5,5,69.821-.319-5-5,.32,69.82,5-5-69.821.32c-6.433.029-6.446,10.029,0,10l69.821-.32a5.073,5.073,0,0,0,5-5l-.32-69.82a5.071,5.071,0,0,0-5-5l-69.821.319a5.073,5.073,0,0,0-5,5l.32,69.821C342.02,536.518,352.02,536.531,351.99,530.085Z"/><rect class="cls-5" x="275.582" y="460.104" width="69.821" height="69.821" transform="translate(-2.263 1.427) rotate(-0.262)"/><path class="cls-2" d="M280.742,530.085l-.319-69.821-5,5,69.82-.319-5-5,.32,69.82,5-5-69.821.32c-6.433.029-6.446,10.029,0,10l69.821-.32a5.073,5.073,0,0,0,5-5l-.32-69.82a5.071,5.071,0,0,0-5-5l-69.82.319a5.072,5.072,0,0,0-5,5l.319,69.821C270.772,536.518,280.772,536.531,280.742,530.085Z"/><rect class="cls-5" x="346.83" y="389.759" width="69.821" height="69.821" transform="translate(-1.94 1.752) rotate(-0.262)"/><path class="cls-2" d="M351.99,459.74l-.32-69.821-5,5,69.821-.319-5-5,.32,69.82,5-5-69.821.32c-6.433.029-6.446,10.029,0,10l69.821-.32a5.073,5.073,0,0,0,5-5l-.32-69.82a5.071,5.071,0,0,0-5-5l-69.821.319a5.073,5.073,0,0,0-5,5l.32,69.821C342.02,466.173,352.02,466.186,351.99,459.74Z"/><rect class="cls-5" x="275.582" y="389.759" width="69.821" height="69.821" transform="translate(-1.941 1.426) rotate(-0.262)"/><path class="cls-2" d="M280.742,459.74l-.319-69.821-5,5,69.82-.319-5-5,.32,69.82,5-5-69.821.32c-6.433.029-6.446,10.029,0,10l69.821-.32a5.073,5.073,0,0,0,5-5l-.32-69.82a5.071,5.071,0,0,0-5-5l-69.82.319a5.072,5.072,0,0,0-5,5l.319,69.821C270.772,466.173,280.772,466.186,280.742,459.74Z"/><rect class="cls-5" x="275.582" y="318.688" width="69.821" height="69.821" transform="translate(-1.616 1.425) rotate(-0.262)"/><path class="cls-2" d="M280.742,388.669l-.319-69.821-5,5,69.82-.319-5-5,.32,69.82,5-5-69.821.32c-6.433.029-6.446,10.029,0,10l69.821-.32a5.072,5.072,0,0,0,5-5l-.32-69.82a5.071,5.071,0,0,0-5-5l-69.82.319a5.072,5.072,0,0,0-5,5l.319,69.821C270.772,395.1,280.772,395.115,280.742,388.669Z"/><rect class="cls-5" x="346.83" y="318.688" width="69.821" height="69.821" transform="translate(-1.615 1.751) rotate(-0.262)"/><path class="cls-2" d="M351.99,388.669l-.32-69.821-5,5,69.821-.319-5-5,.32,69.82,5-5-69.821.32c-6.433.029-6.446,10.029,0,10l69.821-.32a5.072,5.072,0,0,0,5-5l-.32-69.82a5.071,5.071,0,0,0-5-5l-69.821.319a5.073,5.073,0,0,0-5,5l.32,69.821C342.02,395.1,352.02,395.115,351.99,388.669Z"/><rect class="cls-4" x="541.157" y="603.946" width="69.821" height="69.821" transform="matrix(1, -0.005, 0.005, 1, -2.919, 2.644)"/><path class="cls-2" d="M546.317,673.926,546,604.106l-5,5,69.82-.32-5-5,.32,69.821,5-5-69.821.319c-6.433.03-6.446,10.03,0,10l69.821-.319a5.072,5.072,0,0,0,5-5l-.32-69.821a5.071,5.071,0,0,0-5-5l-69.82.32a5.071,5.071,0,0,0-5,5l.319,69.82C536.347,680.359,546.347,680.373,546.317,673.926Z"/><rect class="cls-4" x="469.909" y="603.946" width="69.821" height="69.821" transform="translate(-2.92 2.318) rotate(-0.262)"/><path class="cls-2" d="M475.07,673.926l-.32-69.82-5,5,69.82-.32-5-5,.32,69.821,5-5-69.82.319c-6.434.03-6.447,10.03,0,10l69.82-.319a5.072,5.072,0,0,0,5-5l-.32-69.821a5.071,5.071,0,0,0-5-5l-69.82.32a5.071,5.071,0,0,0-5,5l.32,69.82C465.1,680.359,475.1,680.373,475.07,673.926Z"/><rect class="cls-4" x="541.157" y="531.436" width="69.821" height="69.821" transform="matrix(1, -0.005, 0.005, 1, -2.587, 2.643)"/><path class="cls-2" d="M546.317,601.417,546,531.6l-5,5,69.82-.32-5-5,.32,69.821,5-5-69.821.32c-6.433.029-6.446,10.029,0,10l69.821-.32a5.071,5.071,0,0,0,5-5l-.32-69.821a5.072,5.072,0,0,0-5-5L541,526.6a5.071,5.071,0,0,0-5,5l.319,69.821C536.347,607.85,546.347,607.863,546.317,601.417Z"/><rect class="cls-4" x="469.909" y="531.436" width="69.821" height="69.821" transform="translate(-2.588 2.317) rotate(-0.262)"/><path class="cls-2" d="M475.07,601.417l-.32-69.821-5,5,69.82-.32-5-5,.32,69.821,5-5-69.82.32c-6.434.029-6.447,10.029,0,10l69.82-.32a5.071,5.071,0,0,0,5-5l-.32-69.821a5.072,5.072,0,0,0-5-5l-69.82.32a5.071,5.071,0,0,0-5,5l.32,69.821C465.1,607.85,475.1,607.863,475.07,601.417Z"/><rect class="cls-4" x="541.157" y="460.104" width="69.821" height="69.821" transform="matrix(1, -0.005, 0.005, 1, -2.26, 2.643)"/><path class="cls-2" d="M546.317,530.085,546,460.264l-5,5,69.82-.319-5-5,.32,69.82,5-5-69.821.32c-6.433.029-6.446,10.029,0,10l69.821-.32a5.071,5.071,0,0,0,5-5l-.32-69.82a5.071,5.071,0,0,0-5-5l-69.82.319a5.072,5.072,0,0,0-5,5l.319,69.821C536.347,536.518,546.347,536.531,546.317,530.085Z"/><rect class="cls-1" x="469.909" y="460.104" width="69.821" height="69.821" transform="translate(-2.261 2.316) rotate(-0.262)"/><path class="cls-2" d="M475.07,530.085l-.32-69.821-5,5,69.82-.319-5-5,.32,69.82,5-5-69.82.32c-6.434.029-6.447,10.029,0,10l69.82-.32a5.071,5.071,0,0,0,5-5l-.32-69.82a5.071,5.071,0,0,0-5-5l-69.82.319a5.072,5.072,0,0,0-5,5l.32,69.821C465.1,536.518,475.1,536.531,475.07,530.085Z"/><rect class="cls-4" x="541.157" y="389.759" width="69.821" height="69.821" transform="matrix(1, -0.005, 0.005, 1, -1.938, 2.642)"/><path class="cls-2" d="M546.317,459.74,546,389.919l-5,5,69.82-.319-5-5,.32,69.82,5-5-69.821.32c-6.433.029-6.446,10.029,0,10l69.821-.32a5.071,5.071,0,0,0,5-5l-.32-69.82a5.071,5.071,0,0,0-5-5l-69.82.319a5.072,5.072,0,0,0-5,5l.319,69.821C536.347,466.173,546.347,466.186,546.317,459.74Z"/><rect class="cls-4" x="541.157" y="318.688" width="69.821" height="69.821" transform="matrix(1, -0.005, 0.005, 1, -1.613, 2.641)"/><path class="cls-2" d="M546.317,388.669,546,318.848l-5,5,69.82-.319-5-5,.32,69.82,5-5-69.821.32c-6.433.029-6.446,10.029,0,10l69.821-.32a5.071,5.071,0,0,0,5-5l-.32-69.82a5.071,5.071,0,0,0-5-5l-69.82.319a5.072,5.072,0,0,0-5,5l.319,69.821C536.347,395.1,546.347,395.115,546.317,388.669Z"/><rect class="cls-1" x="469.909" y="389.759" width="69.821" height="69.821" transform="translate(-1.939 2.316) rotate(-0.262)"/><path class="cls-2" d="M475.07,459.74l-.32-69.821-5,5,69.82-.319-5-5,.32,69.82,5-5-69.82.32c-6.434.029-6.447,10.029,0,10l69.82-.32a5.071,5.071,0,0,0,5-5l-.32-69.82a5.071,5.071,0,0,0-5-5l-69.82.319a5.072,5.072,0,0,0-5,5l.32,69.821C465.1,466.173,475.1,466.186,475.07,459.74Z"/><rect class="cls-3" x="741.845" y="603.946" width="69.821" height="69.821" transform="translate(-2.917 3.563) rotate(-0.262)"/><path class="cls-2" d="M747.005,673.926l-.32-69.82-5,5,69.821-.32-5-5,.32,69.821,5-5-69.821.319c-6.433.03-6.446,10.03,0,10l69.821-.319a5.073,5.073,0,0,0,5-5l-.32-69.821a5.072,5.072,0,0,0-5-5l-69.821.32a5.072,5.072,0,0,0-5,5l.32,69.82C737.035,680.359,747.035,680.373,747.005,673.926Z"/><rect class="cls-3" x="670.597" y="603.946" width="69.821" height="69.821" transform="translate(-2.918 3.237) rotate(-0.262)"/><path class="cls-2" d="M675.757,673.926l-.32-69.82-5,5,69.821-.32-5-5,.32,69.821,5-5-69.821.319c-6.433.03-6.446,10.03,0,10l69.821-.319a5.073,5.073,0,0,0,5-5l-.32-69.821a5.072,5.072,0,0,0-5-5l-69.821.32a5.072,5.072,0,0,0-5,5l.32,69.82C665.787,680.359,675.787,680.373,675.757,673.926Z"/><rect class="cls-3" x="741.845" y="531.436" width="69.821" height="69.821" transform="translate(-2.585 3.562) rotate(-0.262)"/><path class="cls-2" d="M747.005,601.417l-.32-69.821-5,5,69.821-.32-5-5,.32,69.821,5-5-69.821.32c-6.433.029-6.446,10.029,0,10l69.821-.32a5.073,5.073,0,0,0,5-5l-.32-69.821a5.073,5.073,0,0,0-5-5l-69.821.32a5.073,5.073,0,0,0-5,5l.32,69.821C737.035,607.85,747.035,607.863,747.005,601.417Z"/><rect class="cls-1" x="670.597" y="531.436" width="69.821" height="69.821" transform="translate(-2.586 3.236) rotate(-0.262)"/><path class="cls-2" d="M675.757,601.417l-.32-69.821-5,5,69.821-.32-5-5,.32,69.821,5-5-69.821.32c-6.433.029-6.446,10.029,0,10l69.821-.32a5.073,5.073,0,0,0,5-5l-.32-69.821a5.073,5.073,0,0,0-5-5l-69.821.32a5.073,5.073,0,0,0-5,5l.32,69.821C665.787,607.85,675.787,607.863,675.757,601.417Z"/><rect class="cls-3" x="741.845" y="460.104" width="69.821" height="69.821" transform="translate(-2.258 3.561) rotate(-0.262)"/><path class="cls-2" d="M747.005,530.085l-.32-69.821-5,5,69.821-.319-5-5,.32,69.82,5-5-69.821.32c-6.433.029-6.446,10.029,0,10l69.821-.32a5.073,5.073,0,0,0,5-5l-.32-69.82a5.071,5.071,0,0,0-5-5l-69.821.319a5.073,5.073,0,0,0-5,5l.32,69.821C737.035,536.518,747.035,536.531,747.005,530.085Z"/><rect class="cls-1" x="670.597" y="460.104" width="69.821" height="69.821" transform="translate(-2.259 3.235) rotate(-0.262)"/><path class="cls-2" d="M675.757,530.085l-.32-69.821-5,5,69.821-.319-5-5,.32,69.82,5-5-69.821.32c-6.433.029-6.446,10.029,0,10l69.821-.32a5.073,5.073,0,0,0,5-5l-.32-69.82a5.071,5.071,0,0,0-5-5l-69.821.319a5.073,5.073,0,0,0-5,5l.32,69.821C665.787,536.518,675.787,536.531,675.757,530.085Z"/><rect class="cls-1" x="670.597" y="389.759" width="69.821" height="69.821" transform="translate(-1.937 3.235) rotate(-0.262)"/><path class="cls-2" d="M675.757,459.74l-.32-69.821-5,5,69.821-.319-5-5,.32,69.82,5-5-69.821.32c-6.433.029-6.446,10.029,0,10l69.821-.32a5.073,5.073,0,0,0,5-5l-.32-69.82a5.071,5.071,0,0,0-5-5l-69.821.319a5.073,5.073,0,0,0-5,5l.32,69.821C665.787,466.173,675.787,466.186,675.757,459.74Z"/><text class="cls-6" transform="translate(129.192 184.028)">AI</text><text class="cls-6" transform="translate(275.765 242.153)">FIGMA</text><text class="cls-6" transform="translate(510.402 242.153)">XD</text><text class="cls-6" transform="translate(713.785 311.62)">AE</text><rect class="cls-3" x="1147.532" y="603.946" width="69.821" height="69.821" transform="translate(-2.913 5.42) rotate(-0.262)"/><path class="cls-2" d="M1152.692,673.926l-.32-69.82-5,5,69.821-.32-5-5,.319,69.821,5-5-69.82.319c-6.433.03-6.447,10.03,0,10l69.82-.319a5.072,5.072,0,0,0,5-5l-.319-69.821a5.073,5.073,0,0,0-5-5l-69.821.32a5.071,5.071,0,0,0-5,5l.32,69.82C1142.721,680.359,1152.721,680.373,1152.692,673.926Z"/><rect class="cls-3" x="1076.284" y="603.946" width="69.821" height="69.821" transform="matrix(1, -0.005, 0.005, 1, -2.913, 5.094)"/><path class="cls-2" d="M1081.444,673.926l-.32-69.82-5,5,69.821-.32-5-5,.319,69.821,5-5-69.82.319c-6.433.03-6.447,10.03,0,10l69.82-.319a5.072,5.072,0,0,0,5-5l-.319-69.821a5.073,5.073,0,0,0-5-5l-69.821.32a5.071,5.071,0,0,0-5,5l.32,69.82C1071.473,680.359,1081.473,680.373,1081.444,673.926Z"/><rect class="cls-4" x="1147.532" y="531.436" width="69.821" height="69.821" transform="translate(-2.581 5.42) rotate(-0.262)"/><path class="cls-2" d="M1152.692,601.417l-.32-69.821-5,5,69.821-.32-5-5,.319,69.821,5-5-69.82.32c-6.433.029-6.447,10.029,0,10l69.82-.32a5.071,5.071,0,0,0,5-5l-.319-69.821a5.073,5.073,0,0,0-5-5l-69.821.32a5.072,5.072,0,0,0-5,5l.32,69.821C1142.721,607.85,1152.721,607.863,1152.692,601.417Z"/><rect class="cls-4" x="1076.284" y="531.436" width="69.821" height="69.821" transform="translate(-2.581 5.093) rotate(-0.262)"/><path class="cls-2" d="M1081.444,601.417l-.32-69.821-5,5,69.821-.32-5-5,.319,69.821,5-5-69.82.32c-6.433.029-6.447,10.029,0,10l69.82-.32a5.071,5.071,0,0,0,5-5l-.319-69.821a5.073,5.073,0,0,0-5-5l-69.821.32a5.072,5.072,0,0,0-5,5l.32,69.821C1071.473,607.85,1081.473,607.863,1081.444,601.417Z"/><rect class="cls-4" x="1147.532" y="460.104" width="69.821" height="69.821" transform="translate(-2.254 5.419) rotate(-0.262)"/><path class="cls-2" d="M1152.692,530.085l-.32-69.821-5,5,69.821-.319-5-5,.319,69.82,5-5-69.82.32c-6.433.029-6.447,10.029,0,10l69.82-.32a5.071,5.071,0,0,0,5-5l-.319-69.82a5.072,5.072,0,0,0-5-5l-69.821.319a5.073,5.073,0,0,0-5,5l.32,69.821C1142.721,536.518,1152.721,536.531,1152.692,530.085Z"/><rect class="cls-4" x="1076.284" y="460.104" width="69.821" height="69.821" transform="matrix(1, -0.005, 0.005, 1, -2.255, 5.093)"/><path class="cls-2" d="M1081.444,530.085l-.32-69.821-5,5,69.821-.319-5-5,.319,69.82,5-5-69.82.32c-6.433.029-6.447,10.029,0,10l69.82-.32a5.071,5.071,0,0,0,5-5l-.319-69.82a5.072,5.072,0,0,0-5-5l-69.821.319a5.073,5.073,0,0,0-5,5l.32,69.821C1071.473,536.518,1081.473,536.531,1081.444,530.085Z"/><text class="cls-6" transform="translate(1120.348 419.364)">PS</text><rect class="cls-1" x="929.477" y="603.946" width="69.821" height="69.821" transform="translate(-2.915 4.422) rotate(-0.262)"/><path class="cls-2" d="M934.637,673.926l-.319-69.82-5,5,69.82-.32-5-5,.32,69.821,5-5-69.821.319c-6.433.03-6.446,10.03,0,10l69.821-.319a5.073,5.073,0,0,0,5-5l-.32-69.821a5.072,5.072,0,0,0-5-5l-69.82.32a5.071,5.071,0,0,0-5,5l.319,69.82C924.667,680.359,934.667,680.373,934.637,673.926Z"/><rect class="cls-4" x="858.229" y="603.946" width="69.821" height="69.821" transform="translate(-2.916 4.096) rotate(-0.262)"/><path class="cls-2" d="M863.389,673.926l-.319-69.82-5,5,69.82-.32-5-5,.32,69.821,5-5-69.821.319c-6.433.03-6.446,10.03,0,10l69.821-.319a5.073,5.073,0,0,0,5-5l-.32-69.821a5.072,5.072,0,0,0-5-5l-69.82.32a5.071,5.071,0,0,0-5,5l.319,69.82C853.419,680.359,863.419,680.373,863.389,673.926Z"/><rect class="cls-4" x="929.477" y="531.436" width="69.821" height="69.821" transform="translate(-2.583 4.421) rotate(-0.262)"/><path class="cls-2" d="M934.637,601.417l-.319-69.821-5,5,69.82-.32-5-5,.32,69.821,5-5-69.821.32c-6.433.029-6.446,10.029,0,10l69.821-.32a5.073,5.073,0,0,0,5-5l-.32-69.821a5.073,5.073,0,0,0-5-5l-69.82.32a5.071,5.071,0,0,0-5,5l.319,69.821C924.667,607.85,934.667,607.863,934.637,601.417Z"/><rect class="cls-4" x="858.229" y="531.436" width="69.821" height="69.821" transform="translate(-2.584 4.095) rotate(-0.262)"/><path class="cls-2" d="M863.389,601.417,863.07,531.6l-5,5,69.82-.32-5-5,.32,69.821,5-5-69.821.32c-6.433.029-6.446,10.029,0,10l69.821-.32a5.072,5.072,0,0,0,5-5l-.32-69.821a5.073,5.073,0,0,0-5-5l-69.82.32a5.071,5.071,0,0,0-5,5l.319,69.821C853.419,607.85,863.419,607.863,863.389,601.417Z"/><rect class="cls-1" x="929.477" y="460.104" width="69.821" height="69.821" transform="translate(-2.256 4.421) rotate(-0.262)"/><path class="cls-2" d="M934.637,530.085l-.319-69.821-5,5,69.82-.319-5-5,.32,69.82,5-5-69.821.32c-6.433.029-6.446,10.029,0,10l69.821-.32a5.073,5.073,0,0,0,5-5l-.32-69.82a5.071,5.071,0,0,0-5-5l-69.82.319a5.072,5.072,0,0,0-5,5l.319,69.821C924.667,536.518,934.667,536.531,934.637,530.085Z"/><rect class="cls-1" x="929.477" y="389.759" width="69.821" height="69.821" transform="translate(-1.934 4.42) rotate(-0.262)"/><path class="cls-2" d="M934.637,459.74l-.319-69.821-5,5,69.82-.319-5-5,.32,69.82,5-5-69.821.32c-6.433.029-6.446,10.029,0,10l69.821-.32a5.073,5.073,0,0,0,5-5l-.32-69.82a5.071,5.071,0,0,0-5-5l-69.82.319a5.072,5.072,0,0,0-5,5l.319,69.821C924.667,466.173,934.667,466.186,934.637,459.74Z"/><rect class="cls-4" x="858.229" y="460.104" width="69.821" height="69.821" transform="translate(-2.257 4.094) rotate(-0.262)"/><path class="cls-2" d="M863.389,530.085l-.319-69.821-5,5,69.82-.319-5-5,.32,69.82,5-5-69.821.32c-6.433.029-6.446,10.029,0,10l69.821-.32a5.072,5.072,0,0,0,5-5l-.32-69.82a5.071,5.071,0,0,0-5-5l-69.82.319a5.072,5.072,0,0,0-5,5l.319,69.821C853.419,536.518,863.419,536.531,863.389,530.085Z"/><text class="cls-6" transform="translate(857.181 311.62)">AXURE</text></svg>