<svg xmlns="http://www.w3.org/2000/svg" viewBox="0 0 443.067 422.404"><defs><style>.cls-1{fill:#efcf47;}.cls-2{fill:#231f20;}</style></defs><title>icon-linkedin</title><g id="linkendin"><rect class="cls-1" x="141.686" y="159.233" width="40.102" height="156.856"/><path class="cls-2" d="M181.788,311.089h-40.1l5,5V178.456c0-6.3.209-12.647,0-18.947,0-.092,0-.184,0-.276l-5,5h40.1l-5-5V296.866c0,6.311-.13,12.637,0,18.947,0,.092,0,.184,0,.276a5,5,0,0,0,10,0V178.456c0-6.311.129-12.637,0-18.947,0-.092,0-.184,0-.276a5.073,5.073,0,0,0-5-5h-40.1a5.073,5.073,0,0,0-5,5V296.866c0,6.311-.13,12.637,0,18.947,0,.092,0,.184,0,.276a5.073,5.073,0,0,0,5,5h40.1a5,5,0,0,0,0-10Z"/><polygon class="cls-1" points="202.834 159.208 202.834 159.233 198.655 159.233 198.655 316.089 238.757 316.089 238.757 199.309 280.236 199.309 280.236 316.089 320.338 316.089 320.338 199.309 320.338 159.233 320.338 159.208 202.834 159.208"/><path class="cls-2" d="M197.834,159.208v.025l5-5h-4.179a5.073,5.073,0,0,0-5,5V296.866c0,6.311-.129,12.637,0,18.947,0,.092,0,.184,0,.276a5.073,5.073,0,0,0,5,5h40.1a5.073,5.073,0,0,0,5-5V213.741c0-4.729.189-9.5,0-14.229,0-.067,0-.135,0-.2l-5,5h41.479l-5-5V301.657c0,4.738-.118,9.493,0,14.229,0,.068,0,.135,0,.2a5.073,5.073,0,0,0,5,5h40.1a5.073,5.073,0,0,0,5-5V159.208a5.073,5.073,0,0,0-5-5h-103c-4.762,0-9.542-.118-14.3,0-.067,0-.134,0-.2,0a5,5,0,0,0,0,10h103c4.754,0,9.552.188,14.3,0,.066,0,.134,0,.2,0l-5-5V291.554c0,8.045-.214,16.123,0,24.166,0,.123,0,.246,0,.369l5-5h-40.1l5,5V213.741c0-4.738.118-9.492,0-14.229,0-.067,0-.135,0-.2a5.073,5.073,0,0,0-5-5H238.757a5.073,5.073,0,0,0-5,5V301.657c0,4.729-.189,9.5,0,14.229,0,.067,0,.135,0,.2l5-5h-40.1l5,5V178.456c0-6.3.21-12.647,0-18.947,0-.092,0-.184,0-.276l-5,5h4.179a5.073,5.073,0,0,0,5-5v-.025a5,5,0,0,0-10,0Z"/><rect class="cls-1" x="141.686" y="112.399" width="40.102" height="36.348"/><path class="cls-2" d="M181.788,143.746h-40.1l5,5V112.4l-5,5h40.1l-5-5v36.347a5,5,0,0,0,10,0V112.4a5.073,5.073,0,0,0-5-5h-40.1a5.072,5.072,0,0,0-5,5v36.347a5.073,5.073,0,0,0,5,5h40.1a5,5,0,0,0,0-10Z"/></g></svg>